<svg width="1024" height="1024" viewBox="0 0 1024 1024" fill="none" xmlns="http://www.w3.org/2000/svg">
<rect width="1024" height="1024" fill="#0063FF"/>
<path d="M352.859 372C353.047 371.219 353.203 370.281 353.328 369.188C353.484 368.062 353.562 366.906 353.562 365.719C353.562 364.625 353.484 363.562 353.328 362.531C353.172 361.469 353.016 360.562 352.859 359.812C354.266 359.812 355.5 359.703 356.562 359.484C357.625 359.266 358.516 358.906 359.234 358.406C359.953 357.875 360.484 357.172 360.828 356.297C361.203 355.391 361.391 354.266 361.391 352.922C361.391 350.297 361.312 348.047 361.156 346.172C361.031 344.297 360.828 342.75 360.547 341.531C360.297 340.312 359.969 339.391 359.562 338.766C359.156 338.109 358.688 337.703 358.156 337.547C358.719 337.359 359.203 337.062 359.609 336.656C360.016 336.25 360.344 335.562 360.594 334.594C360.875 333.594 361.078 332.234 361.203 330.516C361.328 328.766 361.391 326.453 361.391 323.578C361.391 322.234 361.203 321.125 360.828 320.25C360.484 319.344 359.953 318.641 359.234 318.141C358.516 317.609 357.625 317.234 356.562 317.016C355.5 316.797 354.266 316.688 352.859 316.688C353.016 315.938 353.172 315.047 353.328 314.016C353.484 312.953 353.562 311.875 353.562 310.781C353.562 309.594 353.484 308.453 353.328 307.359C353.203 306.234 353.047 305.281 352.859 304.5C353.266 304.656 354.062 304.812 355.25 304.969C356.438 305.125 357.828 305.266 359.422 305.391C361.047 305.484 362.797 305.578 364.672 305.672C366.547 305.766 368.391 305.859 370.203 305.953C372.016 306.016 373.703 306.062 375.266 306.094C376.859 306.125 378.172 306.141 379.203 306.141C382.172 306.141 385.172 306.125 388.203 306.094C391.266 306.031 394.109 305.938 396.734 305.812C399.391 305.688 401.703 305.516 403.672 305.297C405.641 305.078 407.031 304.812 407.844 304.5C407.875 305.125 408.094 305.797 408.5 306.516C408.938 307.203 409.484 307.906 410.141 308.625C410.828 309.312 411.594 309.984 412.438 310.641C413.281 311.297 414.125 311.875 414.969 312.375C415.844 312.875 416.688 313.281 417.5 313.594C418.312 313.906 419.031 314.078 419.656 314.109C419.438 314.547 419.234 315.188 419.047 316.031C418.891 316.875 418.75 317.812 418.625 318.844C418.5 319.875 418.406 320.969 418.344 322.125C418.281 323.25 418.25 324.328 418.25 325.359C418.25 326.547 418.266 327.719 418.297 328.875C418.359 330 418.438 331.062 418.531 332.062C418.625 333.062 418.766 333.984 418.953 334.828C419.141 335.641 419.375 336.312 419.656 336.844C418.562 337.031 417.422 337.328 416.234 337.734C415.047 338.141 413.875 338.641 412.719 339.234C411.562 339.797 410.469 340.438 409.438 341.156C408.406 341.875 407.516 342.641 406.766 343.453C407.234 344.109 407.781 344.719 408.406 345.281C409.062 345.844 409.734 346.328 410.422 346.734C411.109 347.109 411.812 347.406 412.531 347.625C413.25 347.844 413.922 347.953 414.547 347.953C414.547 349.828 414.828 351.5 415.391 352.969C415.984 354.438 416.812 355.688 417.875 356.719C418.938 357.719 420.234 358.484 421.766 359.016C423.297 359.547 425.031 359.812 426.969 359.812C426.688 360.562 426.5 361.469 426.406 362.531C426.312 363.562 426.266 364.625 426.266 365.719C426.266 366.906 426.328 368.062 426.453 369.188C426.578 370.281 426.781 371.219 427.062 372C426.75 371.875 426.141 371.75 425.234 371.625C424.328 371.469 423.281 371.344 422.094 371.25C420.938 371.125 419.734 371.031 418.484 370.969C417.234 370.875 416.109 370.828 415.109 370.828C413.922 370.828 412.609 370.844 411.172 370.875C409.734 370.906 408.328 370.969 406.953 371.062C405.578 371.125 404.312 371.234 403.156 371.391C402.031 371.547 401.172 371.75 400.578 372C400.641 371.375 400.688 370.766 400.719 370.172C400.75 369.547 400.766 368.938 400.766 368.344C400.766 367.062 400.672 365.844 400.484 364.688C400.297 363.5 399.984 362.422 399.547 361.453C399.109 360.453 398.547 359.594 397.859 358.875C397.172 358.125 396.328 357.547 395.328 357.141C395.609 356.609 395.859 355.891 396.078 354.984C396.297 354.078 396.406 352.812 396.406 351.188C396.406 350.312 396.266 349.484 395.984 348.703C395.703 347.922 395.203 347.25 394.484 346.688C393.797 346.125 392.875 345.688 391.719 345.375C390.562 345.031 389.109 344.859 387.359 344.859C386.609 344.859 385.703 344.891 384.641 344.953C383.578 345.016 382.453 345.125 381.266 345.281C380.922 346.125 380.656 347.141 380.469 348.328C380.281 349.484 380.188 351.016 380.188 352.922C380.188 354.266 380.328 355.391 380.609 356.297C380.922 357.172 381.422 357.875 382.109 358.406C382.797 358.906 383.672 359.266 384.734 359.484C385.828 359.703 387.156 359.812 388.719 359.812C388.562 360.562 388.406 361.469 388.25 362.531C388.094 363.562 388.016 364.625 388.016 365.719C388.016 366.906 388.078 368.062 388.203 369.188C388.359 370.281 388.531 371.219 388.719 372C387.812 371.812 386.672 371.656 385.297 371.531C383.922 371.375 382.422 371.25 380.797 371.156C379.172 371.031 377.5 370.953 375.781 370.922C374.062 370.859 372.406 370.828 370.812 370.828C369.219 370.828 367.547 370.859 365.797 370.922C364.078 370.953 362.406 371.031 360.781 371.156C359.156 371.25 357.641 371.375 356.234 371.531C354.859 371.656 353.734 371.812 352.859 372ZM380.281 334.594C381.594 334.969 382.969 335.25 384.406 335.438C385.875 335.594 387.469 335.672 389.188 335.672C390.875 335.672 392.375 335.422 393.688 334.922C395.031 334.391 396.156 333.672 397.062 332.766C397.969 331.859 398.656 330.797 399.125 329.578C399.594 328.328 399.828 327 399.828 325.594C399.828 324.281 399.641 323 399.266 321.75C398.922 320.5 398.344 319.406 397.531 318.469C396.75 317.5 395.703 316.734 394.391 316.172C393.109 315.578 391.531 315.281 389.656 315.281C388.031 315.281 386.375 315.391 384.688 315.609C383.031 315.828 381.547 316.203 380.234 316.734C380.078 317.734 379.969 318.844 379.906 320.062C379.844 321.25 379.812 322.5 379.812 323.812C379.812 325.75 379.859 327.672 379.953 329.578C380.047 331.453 380.156 333.125 380.281 334.594ZM433.156 364.219C433.781 363.469 434.266 362.422 434.609 361.078C434.953 359.734 435.203 358.281 435.359 356.719C435.547 355.125 435.656 353.531 435.688 351.938C435.75 350.344 435.781 348.938 435.781 347.719C435.781 346.438 435.734 344.984 435.641 343.359C435.547 341.734 435.391 340.156 435.172 338.625C434.984 337.062 434.719 335.656 434.375 334.406C434.062 333.156 433.672 332.25 433.203 331.688C434.578 331.688 436.094 331.344 437.75 330.656C439.406 329.938 440.969 329.062 442.438 328.031C443.938 326.969 445.234 325.844 446.328 324.656C447.422 323.469 448.109 322.375 448.391 321.375C450.109 321.969 452.141 322.391 454.484 322.641C456.828 322.891 459.734 323.016 463.203 323.016C465.641 323.016 467.656 322.875 469.25 322.594C470.844 322.312 472.141 321.906 473.141 321.375C473.672 322.469 474.547 323.453 475.766 324.328C477.016 325.203 478.359 325.953 479.797 326.578C481.266 327.203 482.719 327.703 484.156 328.078C485.625 328.422 486.828 328.609 487.766 328.641C487.516 329.172 487.281 329.75 487.062 330.375C486.875 331 486.703 331.734 486.547 332.578C486.422 333.422 486.312 334.422 486.219 335.578C486.156 336.703 486.125 338.031 486.125 339.562C486.125 340.625 486.141 341.656 486.172 342.656C486.234 343.656 486.312 344.578 486.406 345.422C486.5 346.266 486.594 347.016 486.688 347.672C486.812 348.297 486.938 348.766 487.062 349.078C486.281 349.016 485.234 348.969 483.922 348.938C482.609 348.875 481.172 348.828 479.609 348.797C478.047 348.734 476.406 348.703 474.688 348.703C473 348.672 471.391 348.656 469.859 348.656C468.047 348.656 466.234 348.672 464.422 348.703C462.641 348.703 460.797 348.703 458.891 348.703C457.297 348.703 456.031 348.844 455.094 349.125C454.156 349.406 453.438 349.797 452.938 350.297C452.469 350.766 452.156 351.344 452 352.031C451.875 352.719 451.812 353.469 451.812 354.281C451.812 355.5 452.109 356.609 452.703 357.609C453.297 358.609 454.109 359.469 455.141 360.188C456.172 360.875 457.391 361.422 458.797 361.828C460.203 362.203 461.703 362.391 463.297 362.391C464.609 362.391 465.656 362.203 466.438 361.828C467.219 361.422 467.812 360.891 468.219 360.234C468.656 359.578 468.938 358.812 469.062 357.938C469.188 357.062 469.25 356.125 469.25 355.125C469.625 355.25 470.188 355.359 470.938 355.453C471.688 355.547 472.5 355.625 473.375 355.688C474.25 355.719 475.125 355.75 476 355.781C476.906 355.812 477.688 355.828 478.344 355.828C479 355.828 479.75 355.812 480.594 355.781C481.438 355.75 482.266 355.719 483.078 355.688C483.922 355.625 484.703 355.547 485.422 355.453C486.141 355.359 486.719 355.25 487.156 355.125C487.094 355.469 487.016 355.938 486.922 356.531C486.859 357.094 486.797 357.703 486.734 358.359C486.703 359.016 486.672 359.672 486.641 360.328C486.609 360.984 486.594 361.531 486.594 361.969C486.594 363.5 486.641 364.734 486.734 365.672C486.859 366.578 487.047 367.391 487.297 368.109H486.453C485.172 368.109 483.859 368.234 482.516 368.484C481.172 368.703 479.875 369.016 478.625 369.422C477.375 369.797 476.203 370.25 475.109 370.781C474.016 371.312 473.078 371.875 472.297 372.469C471.859 372.188 471.25 371.953 470.469 371.766C469.719 371.547 468.875 371.375 467.938 371.25C467.031 371.094 466.062 370.984 465.031 370.922C464.031 370.859 463.062 370.828 462.125 370.828C461 370.828 459.828 370.875 458.609 370.969C457.391 371.062 456.219 371.203 455.094 371.391C454 371.547 453 371.719 452.094 371.906C451.188 372.094 450.484 372.281 449.984 372.469C449.703 371.656 448.969 370.766 447.781 369.797C446.625 368.828 445.266 367.938 443.703 367.125C442.141 366.281 440.484 365.578 438.734 365.016C436.984 364.453 435.391 364.172 433.953 364.172C433.797 364.172 433.656 364.188 433.531 364.219C433.406 364.219 433.281 364.219 433.156 364.219ZM464.328 340.219C465.578 340.219 466.562 340.172 467.281 340.078C468.031 339.984 468.594 339.797 468.969 339.516C469.375 339.234 469.625 338.859 469.719 338.391C469.844 337.891 469.906 337.234 469.906 336.422C469.906 334.922 469.266 333.703 467.984 332.766C466.703 331.828 464.703 331.359 461.984 331.359C460.297 331.359 458.844 331.5 457.625 331.781C456.406 332.062 455.375 332.547 454.531 333.234C453.719 333.922 453.094 334.828 452.656 335.953C452.219 337.078 451.953 338.5 451.859 340.219H464.328ZM495.641 365.109C496.047 364.391 496.344 363.562 496.531 362.625C496.719 361.688 496.812 360.734 496.812 359.766C496.812 358.766 496.703 357.766 496.484 356.766C496.266 355.766 495.984 354.953 495.641 354.328C496.484 354.047 497.234 353.594 497.891 352.969C498.578 352.344 499.156 351.641 499.625 350.859C500.125 350.078 500.531 349.281 500.844 348.469C501.156 347.656 501.359 346.906 501.453 346.219C501.609 346.281 501.781 346.312 501.969 346.312C502.156 346.312 502.359 346.312 502.578 346.312C504.891 346.312 507.688 346.094 510.969 345.656C514.25 345.219 517.797 344.641 521.609 343.922C523.391 343.578 524.859 343.156 526.016 342.656C527.172 342.156 528.094 341.594 528.781 340.969C529.469 340.312 529.938 339.609 530.188 338.859C530.469 338.109 530.609 337.312 530.609 336.469C530.609 334.938 530.219 333.766 529.438 332.953C528.688 332.109 527.375 331.688 525.5 331.688C523.031 331.688 521.203 332.312 520.016 333.562C518.859 334.781 518.281 336.797 518.281 339.609C517.25 339.359 516 339.188 514.531 339.094C513.062 338.969 511.438 338.906 509.656 338.906C508.75 338.906 507.828 338.922 506.891 338.953C505.984 338.984 505.094 339.031 504.219 339.094C503.344 339.125 502.531 339.188 501.781 339.281C501.031 339.375 500.391 339.484 499.859 339.609C500.047 338.641 500.203 337.547 500.328 336.328C500.484 335.109 500.562 333.688 500.562 332.062C500.562 331.531 500.547 331.047 500.516 330.609C500.516 330.141 500.484 329.688 500.422 329.25C500.391 328.812 500.328 328.359 500.234 327.891C500.141 327.391 500.016 326.844 499.859 326.25C501.172 326.25 502.609 326.125 504.172 325.875C505.734 325.594 507.25 325.234 508.719 324.797C510.219 324.359 511.578 323.844 512.797 323.25C514.016 322.656 514.953 322.031 515.609 321.375C516.172 321.656 516.719 321.906 517.25 322.125C517.781 322.312 518.391 322.484 519.078 322.641C519.766 322.766 520.562 322.859 521.469 322.922C522.375 322.984 523.469 323.016 524.75 323.016C527.688 323.016 530.188 322.875 532.25 322.594C534.344 322.281 535.844 321.875 536.75 321.375C537.25 322.312 537.969 323.203 538.906 324.047C539.844 324.891 540.859 325.625 541.953 326.25C543.078 326.844 544.203 327.328 545.328 327.703C546.484 328.047 547.531 328.219 548.469 328.219H548.891C548.609 328.906 548.375 329.859 548.188 331.078C548 332.297 547.844 333.672 547.719 335.203C547.594 336.703 547.5 338.297 547.438 339.984C547.375 341.672 547.312 343.344 547.25 345C547.219 346.625 547.203 348.156 547.203 349.594C547.203 351.031 547.203 352.25 547.203 353.25C547.203 354.531 547.312 355.578 547.531 356.391C547.75 357.172 548.172 357.781 548.797 358.219C549.453 358.656 550.359 358.953 551.516 359.109C552.703 359.266 554.234 359.344 556.109 359.344C555.984 359.719 555.859 360.188 555.734 360.75C555.641 361.281 555.547 361.859 555.453 362.484C555.359 363.109 555.281 363.734 555.219 364.359C555.188 364.984 555.172 365.562 555.172 366.094C555.172 368.531 555.484 370.5 556.109 372C555.359 371.656 554.141 371.375 552.453 371.156C550.766 370.938 548.922 370.828 546.922 370.828C544.672 370.828 542.672 370.938 540.922 371.156C539.203 371.375 537.844 371.656 536.844 372C536.594 370.281 536.109 368.906 535.391 367.875C534.703 366.844 534 366.031 533.281 365.438C532.188 365.781 531.188 366.25 530.281 366.844C529.375 367.406 528.562 368.031 527.844 368.719C527.156 369.375 526.594 370.047 526.156 370.734C525.719 371.391 525.438 371.969 525.312 372.469C524.594 372.281 523.938 372.094 523.344 371.906C522.781 371.719 522.203 371.547 521.609 371.391C521.016 371.203 520.375 371.062 519.688 370.969C519 370.875 518.188 370.828 517.25 370.828C516.281 370.828 515.25 370.875 514.156 370.969C513.094 371.062 512.031 371.203 510.969 371.391C509.906 371.547 508.906 371.719 507.969 371.906C507.062 372.094 506.281 372.281 505.625 372.469C505.094 371.594 504.438 370.734 503.656 369.891C502.875 369.016 502.031 368.234 501.125 367.547C500.25 366.828 499.328 366.25 498.359 365.812C497.422 365.375 496.516 365.141 495.641 365.109ZM515.797 356.391C515.797 357.141 515.953 357.812 516.266 358.406C516.578 358.969 516.969 359.453 517.438 359.859C517.938 360.234 518.484 360.531 519.078 360.75C519.672 360.938 520.25 361.031 520.812 361.031C521.844 361.031 522.891 360.828 523.953 360.422C525.047 360.016 526.047 359.375 526.953 358.5C527.859 357.594 528.625 356.422 529.25 354.984C529.875 353.547 530.25 351.797 530.375 349.734C527.688 349.797 525.406 349.984 523.531 350.297C521.688 350.578 520.188 351 519.031 351.562C517.875 352.094 517.047 352.766 516.547 353.578C516.047 354.391 515.797 355.328 515.797 356.391ZM560.516 364.219C561.016 363.688 561.422 362.828 561.734 361.641C562.078 360.453 562.344 359.094 562.531 357.562C562.75 356.031 562.891 354.406 562.953 352.688C563.047 350.969 563.094 349.312 563.094 347.719C563.094 346.156 563.047 344.547 562.953 342.891C562.859 341.234 562.703 339.672 562.484 338.203C562.266 336.734 562 335.422 561.688 334.266C561.375 333.109 560.984 332.25 560.516 331.688C561.766 331.562 563.172 331.203 564.734 330.609C566.297 330.016 567.797 329.266 569.234 328.359C570.703 327.453 572.016 326.406 573.172 325.219C574.359 324 575.203 322.719 575.703 321.375C576.109 321.594 576.656 321.797 577.344 321.984C578.062 322.172 578.859 322.344 579.734 322.5C580.641 322.656 581.609 322.781 582.641 322.875C583.703 322.969 584.781 323.016 585.875 323.016C587.219 323.016 588.531 322.953 589.812 322.828C591.094 322.703 592.281 322.531 593.375 322.312C594.469 322.094 595.438 321.828 596.281 321.516C597.156 321.172 597.828 320.812 598.297 320.438C598.734 321.031 599.328 321.578 600.078 322.078C600.828 322.547 601.688 322.969 602.656 323.344C603.625 323.688 604.672 323.953 605.797 324.141C606.922 324.328 608.078 324.422 609.266 324.422C610.922 324.422 612.156 324.359 612.969 324.234C613.781 324.078 614.422 323.938 614.891 323.812C614.516 324.812 614.219 326.172 614 327.891C613.812 329.609 613.719 331.344 613.719 333.094C613.719 334.031 613.734 334.984 613.766 335.953C613.828 336.891 613.906 337.781 614 338.625C614.125 339.469 614.25 340.234 614.375 340.922C614.531 341.578 614.703 342.094 614.891 342.469C614.109 342.094 613.078 341.828 611.797 341.672C610.516 341.484 608.984 341.391 607.203 341.391C605.422 341.391 603.844 341.484 602.469 341.672C601.094 341.828 599.938 342.094 599 342.469C598.75 339.156 598.016 336.672 596.797 335.016C595.578 333.328 593.672 332.484 591.078 332.484C589.797 332.484 588.594 332.688 587.469 333.094C586.344 333.5 585.359 334.25 584.516 335.344C583.703 336.406 583.047 337.859 582.547 339.703C582.078 341.547 581.844 343.906 581.844 346.781C581.844 350.031 582.062 352.656 582.5 354.656C582.969 356.625 583.578 358.172 584.328 359.297C585.109 360.391 586.031 361.125 587.094 361.5C588.156 361.875 589.297 362.062 590.516 362.062C592.141 362.062 593.5 361.781 594.594 361.219C595.688 360.625 596.562 359.859 597.219 358.922C597.875 357.984 598.359 356.906 598.672 355.688C598.984 354.438 599.188 353.156 599.281 351.844C600.375 352.25 601.641 352.531 603.078 352.688C604.547 352.812 606.031 352.875 607.531 352.875C608.875 352.875 610.172 352.812 611.422 352.688C612.703 352.531 613.859 352.25 614.891 351.844C614.734 352.312 614.594 352.891 614.469 353.578C614.344 354.234 614.234 354.922 614.141 355.641C614.078 356.328 614.031 357.016 614 357.703C613.969 358.391 613.953 359 613.953 359.531C613.953 360.5 613.969 361.359 614 362.109C614.062 362.828 614.141 363.484 614.234 364.078C614.328 364.672 614.422 365.219 614.516 365.719C614.641 366.219 614.766 366.703 614.891 367.172C614.641 367.141 614.391 367.125 614.141 367.125C613.891 367.094 613.641 367.078 613.391 367.078C612.078 367.078 610.672 367.234 609.172 367.547C607.703 367.859 606.25 368.266 604.812 368.766C603.406 369.266 602.062 369.844 600.781 370.5C599.531 371.125 598.484 371.781 597.641 372.469C596.734 372.094 595.516 371.734 593.984 371.391C592.484 371.016 590.844 370.828 589.062 370.828C587.938 370.828 586.797 370.875 585.641 370.969C584.484 371.062 583.391 371.203 582.359 371.391C581.328 371.547 580.375 371.719 579.5 371.906C578.625 372.094 577.891 372.281 577.297 372.469C577.172 371.938 576.797 371.359 576.172 370.734C575.578 370.109 574.812 369.5 573.875 368.906C572.969 368.281 571.953 367.688 570.828 367.125C569.703 366.562 568.562 366.062 567.406 365.625C566.25 365.188 565.109 364.844 563.984 364.594C562.891 364.344 561.906 364.219 561.031 364.219H560.516ZM629 362.344C630.031 361.094 630.719 359.5 631.062 357.562C631.406 355.625 631.578 353.297 631.578 350.578V337.031C631.547 336.469 631.453 335.969 631.297 335.531C631.172 335.062 630.938 334.672 630.594 334.359C630.281 334.016 629.844 333.75 629.281 333.562C628.719 333.375 628.016 333.281 627.172 333.281C626.703 333.281 626.188 333.312 625.625 333.375C625.094 333.438 624.484 333.531 623.797 333.656C623.953 332.75 624.062 331.766 624.125 330.703C624.188 329.641 624.219 328.562 624.219 327.469C624.219 326.469 624.188 325.484 624.125 324.516C624.062 323.547 623.953 322.656 623.797 321.844C624.109 322.062 624.5 322.25 624.969 322.406C625.438 322.531 625.906 322.641 626.375 322.734C626.844 322.828 627.281 322.906 627.688 322.969C628.094 323 628.406 323.016 628.625 323.016C629.531 323.016 630.203 322.672 630.641 321.984C631.109 321.266 631.344 320.031 631.344 318.281C631.344 318 631.328 317.609 631.297 317.109C631.297 316.609 631.281 316.094 631.25 315.562C631.219 315.031 631.156 314.531 631.062 314.062C631 313.594 630.906 313.234 630.781 312.984C631.031 313.047 631.281 313.078 631.531 313.078C631.781 313.078 632.047 313.078 632.328 313.078C633.922 313.078 635.594 312.812 637.344 312.281C639.125 311.75 640.844 311.172 642.5 310.547C644.188 309.922 645.75 309.344 647.188 308.812C648.625 308.281 649.812 308.016 650.75 308.016C650.5 308.766 650.297 309.594 650.141 310.5C649.984 311.406 649.859 312.312 649.766 313.219C649.672 314.125 649.594 315.016 649.531 315.891C649.5 316.734 649.484 317.453 649.484 318.047C649.484 319.078 649.609 319.922 649.859 320.578C650.109 321.203 650.547 321.703 651.172 322.078C651.828 322.422 652.719 322.672 653.844 322.828C655 322.953 656.469 323.016 658.25 323.016C659 323.016 659.875 323.016 660.875 323.016C661.906 322.984 662.969 322.938 664.062 322.875C665.156 322.781 666.234 322.656 667.297 322.5C668.391 322.344 669.391 322.125 670.297 321.844C669.984 322.656 669.766 323.609 669.641 324.703C669.516 325.797 669.453 326.922 669.453 328.078C669.453 329.391 669.516 330.609 669.641 331.734C669.766 332.859 669.984 333.859 670.297 334.734C669.234 334.641 668.062 334.531 666.781 334.406C665.531 334.281 664.281 334.172 663.031 334.078C661.781 333.953 660.625 333.859 659.562 333.797C658.5 333.703 657.641 333.656 656.984 333.656C655.422 333.656 654.125 333.734 653.094 333.891C652.094 334.016 651.297 334.234 650.703 334.547C650.109 334.828 649.688 335.203 649.438 335.672C649.219 336.109 649.109 336.625 649.109 337.219V349.781C649.109 351 649.172 352.297 649.297 353.672C649.453 355.016 649.719 356.266 650.094 357.422C650.469 358.578 650.984 359.547 651.641 360.328C652.297 361.078 653.141 361.453 654.172 361.453C655.297 361.453 656.234 361.234 656.984 360.797C657.766 360.328 658.391 359.688 658.859 358.875C659.328 358.062 659.656 357.109 659.844 356.016C660.062 354.891 660.172 353.656 660.172 352.312C660.859 352.469 661.781 352.625 662.938 352.781C664.094 352.938 665.281 353.016 666.5 353.016C667.688 353.016 668.797 352.938 669.828 352.781C670.891 352.625 671.703 352.469 672.266 352.312C672.016 353 671.828 353.969 671.703 355.219C671.609 356.438 671.562 357.75 671.562 359.156C671.562 360.562 671.609 361.875 671.703 363.094C671.797 364.312 671.984 365.219 672.266 365.812H671.797C670.641 365.812 669.391 366 668.047 366.375C666.734 366.719 665.469 367.188 664.25 367.781C663.031 368.375 661.906 369.047 660.875 369.797C659.875 370.516 659.109 371.25 658.578 372C658.328 371.812 657.844 371.656 657.125 371.531C656.438 371.375 655.625 371.25 654.688 371.156C653.781 371.031 652.812 370.953 651.781 370.922C650.75 370.859 649.766 370.828 648.828 370.828C647.891 370.828 646.906 370.859 645.875 370.922C644.875 370.953 643.891 371.031 642.922 371.156C641.953 371.25 641.062 371.375 640.25 371.531C639.469 371.656 638.844 371.812 638.375 372C638.094 370.906 637.656 369.844 637.062 368.812C636.5 367.75 635.812 366.781 635 365.906C634.188 365.031 633.266 364.281 632.234 363.656C631.234 363.031 630.156 362.594 629 362.344ZM328.672 492C328.859 491.219 329.016 490.281 329.141 489.188C329.297 488.062 329.375 486.906 329.375 485.719C329.375 484.625 329.297 483.562 329.141 482.531C328.984 481.469 328.828 480.562 328.672 479.812C330.078 479.812 331.312 479.703 332.375 479.484C333.438 479.266 334.328 478.906 335.047 478.406C335.766 477.875 336.297 477.172 336.641 476.297C337.016 475.391 337.203 474.266 337.203 472.922C337.203 470.078 337.125 467.703 336.969 465.797C336.844 463.891 336.641 462.359 336.359 461.203C336.109 460.016 335.781 459.156 335.375 458.625C334.969 458.062 334.5 457.703 333.969 457.547C334.531 457.359 335.016 457.031 335.422 456.562C335.828 456.062 336.156 455.266 336.406 454.172C336.688 453.078 336.891 451.625 337.016 449.812C337.141 447.969 337.203 445.609 337.203 442.734C337.203 441.484 337 440.469 336.594 439.688C336.188 438.906 335.641 438.297 334.953 437.859C334.266 437.391 333.453 437.078 332.516 436.922C331.609 436.766 330.625 436.688 329.562 436.688H328.672C328.828 435.938 328.984 435.078 329.141 434.109C329.297 433.109 329.375 432.062 329.375 430.969C329.375 429.812 329.297 428.641 329.141 427.453C329.016 426.266 328.859 425.281 328.672 424.5C329.891 424.938 331.625 425.328 333.875 425.672C336.125 425.984 339.047 426.141 342.641 426.141C344.984 426.141 347.266 426.016 349.484 425.766C351.703 425.484 353.75 425.172 355.625 424.828C355.625 426.328 355.938 428.031 356.562 429.938C357.188 431.844 358.031 433.844 359.094 435.938C360.156 438.031 361.359 440.172 362.703 442.359C364.078 444.516 365.5 446.609 366.969 448.641C368.469 450.672 369.953 452.594 371.422 454.406C372.922 456.188 374.312 457.75 375.594 459.094C376.906 460.406 378.047 461.453 379.016 462.234C379.984 463.016 380.703 463.406 381.172 463.406H381.266C381.297 463.406 381.328 463.422 381.359 463.453C381.422 463.453 381.484 463.453 381.547 463.453C381.797 462.516 381.984 461.328 382.109 459.891C382.266 458.453 382.375 456.828 382.438 455.016C382.531 453.203 382.594 451.266 382.625 449.203C382.656 447.109 382.672 444.953 382.672 442.734C382.672 441.484 382.469 440.469 382.062 439.688C381.656 438.906 381.109 438.297 380.422 437.859C379.734 437.391 378.922 437.078 377.984 436.922C377.078 436.766 376.094 436.688 375.031 436.688H374.141C374.297 435.938 374.453 435.078 374.609 434.109C374.766 433.109 374.844 432.062 374.844 430.969C374.844 429.812 374.766 428.641 374.609 427.453C374.484 426.266 374.328 425.281 374.141 424.5C374.734 424.719 375.672 424.922 376.953 425.109C378.234 425.297 379.703 425.469 381.359 425.625C383.016 425.781 384.766 425.906 386.609 426C388.484 426.094 390.312 426.141 392.094 426.141C393.906 426.141 395.734 426.094 397.578 426C399.453 425.906 401.203 425.781 402.828 425.625C404.484 425.469 405.938 425.297 407.188 425.109C408.438 424.922 409.375 424.719 410 424.5C409.812 425.281 409.641 426.266 409.484 427.453C409.359 428.641 409.297 429.812 409.297 430.969C409.297 432.062 409.375 433.109 409.531 434.109C409.688 435.078 409.844 435.938 410 436.688H409.016C407.891 436.688 406.859 436.766 405.922 436.922C404.984 437.078 404.188 437.391 403.531 437.859C402.875 438.297 402.359 438.906 401.984 439.688C401.641 440.469 401.469 441.484 401.469 442.734C401.469 445.609 401.547 447.984 401.703 449.859C401.891 451.734 402.141 453.234 402.453 454.359C402.797 455.484 403.188 456.281 403.625 456.75C404.094 457.219 404.609 457.484 405.172 457.547C404.641 457.828 404.172 458.266 403.766 458.859C403.359 459.453 403.016 460.391 402.734 461.672C402.484 462.953 402.281 464.656 402.125 466.781C402 468.906 401.938 471.641 401.938 474.984C401.938 477.234 402.031 479.297 402.219 481.172C402.406 483.016 402.625 484.656 402.875 486.094C403.156 487.5 403.453 488.703 403.766 489.703C404.078 490.672 404.359 491.438 404.609 492C403.828 491.75 402.953 491.547 401.984 491.391C401.016 491.234 400.031 491.125 399.031 491.062C398.031 490.969 397.062 490.906 396.125 490.875C395.188 490.844 394.375 490.828 393.688 490.828C392.938 490.828 392.094 490.844 391.156 490.875C390.219 490.906 389.25 490.969 388.25 491.062C387.281 491.125 386.297 491.234 385.297 491.391C384.297 491.547 383.375 491.75 382.531 492C382.531 490.438 382.078 488.578 381.172 486.422C380.297 484.266 379.125 482 377.656 479.625C376.219 477.25 374.578 474.844 372.734 472.406C370.922 469.969 369.078 467.672 367.203 465.516C365.359 463.328 363.578 461.375 361.859 459.656C360.141 457.906 358.672 456.547 357.453 455.578C356.859 456.984 356.469 459.188 356.281 462.188C356.094 465.188 356 468.766 356 472.922C356 474.266 356.141 475.391 356.422 476.297C356.734 477.172 357.234 477.875 357.922 478.406C358.609 478.906 359.484 479.266 360.547 479.484C361.641 479.703 362.969 479.812 364.531 479.812C364.375 480.562 364.219 481.469 364.062 482.531C363.906 483.562 363.828 484.625 363.828 485.719C363.828 486.906 363.891 488.062 364.016 489.188C364.172 490.281 364.344 491.219 364.531 492C363.625 491.812 362.484 491.656 361.109 491.531C359.734 491.375 358.234 491.25 356.609 491.156C354.984 491.031 353.312 490.953 351.594 490.922C349.875 490.859 348.219 490.828 346.625 490.828C345.031 490.828 343.359 490.859 341.609 490.922C339.891 490.953 338.219 491.031 336.594 491.156C334.969 491.25 333.453 491.375 332.047 491.531C330.672 491.656 329.547 491.812 328.672 492ZM415.484 485.109C415.891 484.391 416.188 483.562 416.375 482.625C416.562 481.688 416.656 480.734 416.656 479.766C416.656 478.766 416.547 477.766 416.328 476.766C416.109 475.766 415.828 474.953 415.484 474.328C416.328 474.047 417.078 473.594 417.734 472.969C418.422 472.344 419 471.641 419.469 470.859C419.969 470.078 420.375 469.281 420.688 468.469C421 467.656 421.203 466.906 421.297 466.219C421.453 466.281 421.625 466.312 421.812 466.312C422 466.312 422.203 466.312 422.422 466.312C424.734 466.312 427.531 466.094 430.812 465.656C434.094 465.219 437.641 464.641 441.453 463.922C443.234 463.578 444.703 463.156 445.859 462.656C447.016 462.156 447.938 461.594 448.625 460.969C449.312 460.312 449.781 459.609 450.031 458.859C450.312 458.109 450.453 457.312 450.453 456.469C450.453 454.938 450.062 453.766 449.281 452.953C448.531 452.109 447.219 451.688 445.344 451.688C442.875 451.688 441.047 452.312 439.859 453.562C438.703 454.781 438.125 456.797 438.125 459.609C437.094 459.359 435.844 459.188 434.375 459.094C432.906 458.969 431.281 458.906 429.5 458.906C428.594 458.906 427.672 458.922 426.734 458.953C425.828 458.984 424.938 459.031 424.062 459.094C423.188 459.125 422.375 459.188 421.625 459.281C420.875 459.375 420.234 459.484 419.703 459.609C419.891 458.641 420.047 457.547 420.172 456.328C420.328 455.109 420.406 453.688 420.406 452.062C420.406 451.531 420.391 451.047 420.359 450.609C420.359 450.141 420.328 449.688 420.266 449.25C420.234 448.812 420.172 448.359 420.078 447.891C419.984 447.391 419.859 446.844 419.703 446.25C421.016 446.25 422.453 446.125 424.016 445.875C425.578 445.594 427.094 445.234 428.562 444.797C430.062 444.359 431.422 443.844 432.641 443.25C433.859 442.656 434.797 442.031 435.453 441.375C436.016 441.656 436.562 441.906 437.094 442.125C437.625 442.312 438.234 442.484 438.922 442.641C439.609 442.766 440.406 442.859 441.312 442.922C442.219 442.984 443.312 443.016 444.594 443.016C447.531 443.016 450.031 442.875 452.094 442.594C454.188 442.281 455.688 441.875 456.594 441.375C457.094 442.312 457.812 443.203 458.75 444.047C459.688 444.891 460.703 445.625 461.797 446.25C462.922 446.844 464.047 447.328 465.172 447.703C466.328 448.047 467.375 448.219 468.312 448.219H468.734C468.453 448.906 468.219 449.859 468.031 451.078C467.844 452.297 467.688 453.672 467.562 455.203C467.438 456.703 467.344 458.297 467.281 459.984C467.219 461.672 467.156 463.344 467.094 465C467.062 466.625 467.047 468.156 467.047 469.594C467.047 471.031 467.047 472.25 467.047 473.25C467.047 474.531 467.156 475.578 467.375 476.391C467.594 477.172 468.016 477.781 468.641 478.219C469.297 478.656 470.203 478.953 471.359 479.109C472.547 479.266 474.078 479.344 475.953 479.344C475.828 479.719 475.703 480.188 475.578 480.75C475.484 481.281 475.391 481.859 475.297 482.484C475.203 483.109 475.125 483.734 475.062 484.359C475.031 484.984 475.016 485.562 475.016 486.094C475.016 488.531 475.328 490.5 475.953 492C475.203 491.656 473.984 491.375 472.297 491.156C470.609 490.938 468.766 490.828 466.766 490.828C464.516 490.828 462.516 490.938 460.766 491.156C459.047 491.375 457.688 491.656 456.688 492C456.438 490.281 455.953 488.906 455.234 487.875C454.547 486.844 453.844 486.031 453.125 485.438C452.031 485.781 451.031 486.25 450.125 486.844C449.219 487.406 448.406 488.031 447.688 488.719C447 489.375 446.438 490.047 446 490.734C445.562 491.391 445.281 491.969 445.156 492.469C444.438 492.281 443.781 492.094 443.188 491.906C442.625 491.719 442.047 491.547 441.453 491.391C440.859 491.203 440.219 491.062 439.531 490.969C438.844 490.875 438.031 490.828 437.094 490.828C436.125 490.828 435.094 490.875 434 490.969C432.938 491.062 431.875 491.203 430.812 491.391C429.75 491.547 428.75 491.719 427.812 491.906C426.906 492.094 426.125 492.281 425.469 492.469C424.938 491.594 424.281 490.734 423.5 489.891C422.719 489.016 421.875 488.234 420.969 487.547C420.094 486.828 419.172 486.25 418.203 485.812C417.266 485.375 416.359 485.141 415.484 485.109ZM435.641 476.391C435.641 477.141 435.797 477.812 436.109 478.406C436.422 478.969 436.812 479.453 437.281 479.859C437.781 480.234 438.328 480.531 438.922 480.75C439.516 480.938 440.094 481.031 440.656 481.031C441.688 481.031 442.734 480.828 443.797 480.422C444.891 480.016 445.891 479.375 446.797 478.5C447.703 477.594 448.469 476.422 449.094 474.984C449.719 473.547 450.094 471.797 450.219 469.734C447.531 469.797 445.25 469.984 443.375 470.297C441.531 470.578 440.031 471 438.875 471.562C437.719 472.094 436.891 472.766 436.391 473.578C435.891 474.391 435.641 475.328 435.641 476.391ZM485.281 482.344C486.312 481.094 487 479.5 487.344 477.562C487.688 475.625 487.859 473.297 487.859 470.578V457.031C487.828 456.469 487.734 455.969 487.578 455.531C487.453 455.062 487.219 454.672 486.875 454.359C486.562 454.016 486.125 453.75 485.562 453.562C485 453.375 484.297 453.281 483.453 453.281C482.984 453.281 482.469 453.312 481.906 453.375C481.375 453.438 480.766 453.531 480.078 453.656C480.234 452.75 480.344 451.766 480.406 450.703C480.469 449.641 480.5 448.562 480.5 447.469C480.5 446.469 480.469 445.484 480.406 444.516C480.344 443.547 480.234 442.656 480.078 441.844C480.391 442.062 480.781 442.25 481.25 442.406C481.719 442.531 482.188 442.641 482.656 442.734C483.125 442.828 483.562 442.906 483.969 442.969C484.375 443 484.688 443.016 484.906 443.016C485.812 443.016 486.484 442.672 486.922 441.984C487.391 441.266 487.625 440.031 487.625 438.281C487.625 438 487.609 437.609 487.578 437.109C487.578 436.609 487.562 436.094 487.531 435.562C487.5 435.031 487.438 434.531 487.344 434.062C487.281 433.594 487.188 433.234 487.062 432.984C487.312 433.047 487.562 433.078 487.812 433.078C488.062 433.078 488.328 433.078 488.609 433.078C490.203 433.078 491.875 432.812 493.625 432.281C495.406 431.75 497.125 431.172 498.781 430.547C500.469 429.922 502.031 429.344 503.469 428.812C504.906 428.281 506.094 428.016 507.031 428.016C506.781 428.766 506.578 429.594 506.422 430.5C506.266 431.406 506.141 432.312 506.047 433.219C505.953 434.125 505.875 435.016 505.812 435.891C505.781 436.734 505.766 437.453 505.766 438.047C505.766 439.078 505.891 439.922 506.141 440.578C506.391 441.203 506.828 441.703 507.453 442.078C508.109 442.422 509 442.672 510.125 442.828C511.281 442.953 512.75 443.016 514.531 443.016C515.281 443.016 516.156 443.016 517.156 443.016C518.188 442.984 519.25 442.938 520.344 442.875C521.438 442.781 522.516 442.656 523.578 442.5C524.672 442.344 525.672 442.125 526.578 441.844C526.266 442.656 526.047 443.609 525.922 444.703C525.797 445.797 525.734 446.922 525.734 448.078C525.734 449.391 525.797 450.609 525.922 451.734C526.047 452.859 526.266 453.859 526.578 454.734C525.516 454.641 524.344 454.531 523.062 454.406C521.812 454.281 520.562 454.172 519.312 454.078C518.062 453.953 516.906 453.859 515.844 453.797C514.781 453.703 513.922 453.656 513.266 453.656C511.703 453.656 510.406 453.734 509.375 453.891C508.375 454.016 507.578 454.234 506.984 454.547C506.391 454.828 505.969 455.203 505.719 455.672C505.5 456.109 505.391 456.625 505.391 457.219V469.781C505.391 471 505.453 472.297 505.578 473.672C505.734 475.016 506 476.266 506.375 477.422C506.75 478.578 507.266 479.547 507.922 480.328C508.578 481.078 509.422 481.453 510.453 481.453C511.578 481.453 512.516 481.234 513.266 480.797C514.047 480.328 514.672 479.688 515.141 478.875C515.609 478.062 515.938 477.109 516.125 476.016C516.344 474.891 516.453 473.656 516.453 472.312C517.141 472.469 518.062 472.625 519.219 472.781C520.375 472.938 521.562 473.016 522.781 473.016C523.969 473.016 525.078 472.938 526.109 472.781C527.172 472.625 527.984 472.469 528.547 472.312C528.297 473 528.109 473.969 527.984 475.219C527.891 476.438 527.844 477.75 527.844 479.156C527.844 480.562 527.891 481.875 527.984 483.094C528.078 484.312 528.266 485.219 528.547 485.812H528.078C526.922 485.812 525.672 486 524.328 486.375C523.016 486.719 521.75 487.188 520.531 487.781C519.312 488.375 518.188 489.047 517.156 489.797C516.156 490.516 515.391 491.25 514.859 492C514.609 491.812 514.125 491.656 513.406 491.531C512.719 491.375 511.906 491.25 510.969 491.156C510.062 491.031 509.094 490.953 508.062 490.922C507.031 490.859 506.047 490.828 505.109 490.828C504.172 490.828 503.188 490.859 502.156 490.922C501.156 490.953 500.172 491.031 499.203 491.156C498.234 491.25 497.344 491.375 496.531 491.531C495.75 491.656 495.125 491.812 494.656 492C494.375 490.906 493.938 489.844 493.344 488.812C492.781 487.75 492.094 486.781 491.281 485.906C490.469 485.031 489.547 484.281 488.516 483.656C487.516 483.031 486.438 482.594 485.281 482.344ZM538.062 436.453C538.25 436.109 538.422 435.594 538.578 434.906C538.766 434.219 538.906 433.422 539 432.516C539.125 431.609 539.219 430.641 539.281 429.609C539.375 428.547 539.422 427.469 539.422 426.375C539.422 425.375 539.375 424.406 539.281 423.469C539.219 422.5 539.125 421.609 539 420.797C538.875 419.953 538.719 419.203 538.531 418.547C538.375 417.891 538.203 417.375 538.016 417C538.578 417.188 539.312 417.375 540.219 417.562C541.156 417.719 542.188 417.859 543.312 417.984C544.469 418.109 545.672 418.219 546.922 418.312C548.203 418.375 549.453 418.406 550.672 418.406C551.797 418.406 553.016 418.391 554.328 418.359C555.672 418.297 556.953 418.203 558.172 418.078C559.422 417.953 560.547 417.812 561.547 417.656C562.547 417.469 563.297 417.25 563.797 417C563.609 417.406 563.438 417.938 563.281 418.594C563.156 419.25 563.031 420 562.906 420.844C562.812 421.656 562.734 422.547 562.672 423.516C562.641 424.453 562.625 425.406 562.625 426.375C562.625 427.375 562.641 428.359 562.672 429.328C562.734 430.297 562.812 431.234 562.906 432.141C563.031 433.016 563.156 433.828 563.281 434.578C563.438 435.328 563.609 435.953 563.797 436.453C563.297 436.297 562.562 436.172 561.594 436.078C560.656 435.953 559.578 435.859 558.359 435.797C557.172 435.703 555.922 435.641 554.609 435.609C553.297 435.547 552.031 435.516 550.812 435.516C549.594 435.516 548.344 435.547 547.062 435.609C545.781 435.641 544.547 435.703 543.359 435.797C542.203 435.859 541.156 435.953 540.219 436.078C539.281 436.172 538.562 436.297 538.062 436.453ZM534.312 492C534.562 491.188 534.734 490.219 534.828 489.094C534.922 487.969 534.969 486.859 534.969 485.766C534.969 484.766 534.906 483.766 534.781 482.766C534.656 481.766 534.5 480.781 534.312 479.812C536.062 479.812 537.594 479.734 538.906 479.578C540.25 479.422 541.359 479.156 542.234 478.781C543.141 478.375 543.812 477.812 544.25 477.094C544.719 476.375 544.953 475.453 544.953 474.328V461.297C544.922 459.953 544.672 458.891 544.203 458.109C543.766 457.297 543.172 456.688 542.422 456.281C541.672 455.844 540.797 455.562 539.797 455.438C538.828 455.281 537.797 455.203 536.703 455.203H535.203C535.453 454.578 535.672 453.719 535.859 452.625C536.047 451.5 536.141 450.328 536.141 449.109C536.141 447.922 536.047 446.781 535.859 445.688C535.703 444.562 535.484 443.672 535.203 443.016C537.859 443.141 540.328 443.234 542.609 443.297C544.922 443.359 547.094 443.391 549.125 443.391C552.906 443.391 556.172 443.25 558.922 442.969C561.672 442.656 564.031 442.125 566 441.375C565.375 442.594 564.828 443.766 564.359 444.891C563.891 445.984 563.484 447.156 563.141 448.406C562.828 449.625 562.578 450.969 562.391 452.438C562.234 453.906 562.156 455.594 562.156 457.5L562.109 474.328C562.109 475.453 562.344 476.375 562.812 477.094C563.312 477.812 563.984 478.375 564.828 478.781C565.672 479.156 566.672 479.422 567.828 479.578C568.984 479.734 570.234 479.812 571.578 479.812C571.391 480.469 571.234 481.281 571.109 482.25C571.016 483.219 570.969 484.25 570.969 485.344C570.969 486.531 571 487.734 571.062 488.953C571.156 490.141 571.328 491.156 571.578 492C570.734 491.844 569.578 491.703 568.109 491.578C566.641 491.422 565.031 491.297 563.281 491.203C561.562 491.078 559.75 490.984 557.844 490.922C555.969 490.859 554.188 490.828 552.5 490.828C551 490.828 549.359 490.859 547.578 490.922C545.828 490.953 544.094 491.031 542.375 491.156C540.688 491.25 539.125 491.375 537.688 491.531C536.25 491.656 535.125 491.812 534.312 492ZM594.359 492C594.391 491.781 594.406 491.531 594.406 491.25C594.438 490.938 594.453 490.656 594.453 490.406C594.453 489.062 594.188 487.453 593.656 485.578C593.125 483.703 592.328 481.672 591.266 479.484C590.172 477.234 589.031 475.453 587.844 474.141C586.656 472.828 585.484 472 584.328 471.656C584.859 471.469 585.125 470.969 585.125 470.156C585.125 469.75 585.094 469.203 585.031 468.516C585 467.797 584.859 466.984 584.609 466.078C584.359 465.141 583.984 464.125 583.484 463.031C582.984 461.938 582.266 460.797 581.328 459.609C580.797 458.922 580.219 458.281 579.594 457.688C579 457.062 578.281 456.516 577.438 456.047C576.625 455.578 575.672 455.203 574.578 454.922C573.484 454.641 572.188 454.5 570.688 454.5C570.844 453.594 570.984 452.609 571.109 451.547C571.203 450.453 571.25 449.25 571.25 447.938C571.25 446.781 571.203 445.672 571.109 444.609C571.016 443.516 570.875 442.594 570.688 441.844C571.156 442.031 571.969 442.203 573.125 442.359C574.312 442.484 575.719 442.594 577.344 442.688C578.969 442.781 580.719 442.859 582.594 442.922C584.469 442.984 586.344 443.016 588.219 443.016C590.219 443.016 592.141 443.016 593.984 443.016C595.828 442.984 597.531 442.938 599.094 442.875C600.688 442.781 602.094 442.656 603.312 442.5C604.562 442.344 605.562 442.125 606.312 441.844C606.125 442.625 605.984 443.469 605.891 444.375C605.797 445.281 605.75 446.312 605.75 447.469C605.75 448.781 605.781 450.062 605.844 451.312C605.938 452.531 606.062 453.594 606.219 454.5C603.875 454.5 602.188 454.75 601.156 455.25C600.156 455.75 599.656 456.547 599.656 457.641C599.656 458.484 599.938 459.594 600.5 460.969C601.062 462.344 601.766 463.906 602.609 465.656C603.453 467.406 604.344 469.312 605.281 471.375C606.219 473.406 607.062 475.516 607.812 477.703C608.625 475.734 609.516 473.781 610.484 471.844C611.453 469.906 612.344 468.062 613.156 466.312C614 464.562 614.703 462.938 615.266 461.438C615.828 459.938 616.109 458.625 616.109 457.5C616.109 456.25 615.656 455.438 614.75 455.062C613.844 454.688 612.359 454.5 610.297 454.5C610.453 453.594 610.562 452.531 610.625 451.312C610.719 450.062 610.766 448.781 610.766 447.469C610.766 445.219 610.578 443.344 610.203 441.844C610.609 442.125 611.281 442.344 612.219 442.5C613.188 442.656 614.297 442.781 615.547 442.875C616.797 442.938 618.125 442.984 619.531 443.016C620.969 443.016 622.375 443.016 623.75 443.016C625.281 443.016 626.766 443 628.203 442.969C629.641 442.906 630.938 442.828 632.094 442.734C633.281 442.609 634.281 442.484 635.094 442.359C635.938 442.203 636.516 442.031 636.828 441.844C636.672 442.469 636.547 443.281 636.453 444.281C636.391 445.281 636.359 446.344 636.359 447.469C636.359 448.781 636.391 450.062 636.453 451.312C636.547 452.531 636.672 453.594 636.828 454.5C636.078 454.5 635.297 454.609 634.484 454.828C633.672 455.047 632.859 455.391 632.047 455.859C631.266 456.297 630.5 456.859 629.75 457.547C629.031 458.234 628.406 459.031 627.875 459.938C627.125 461.031 626.516 462.094 626.047 463.125C625.609 464.125 625.266 465.078 625.016 465.984C624.797 466.859 624.656 467.656 624.594 468.375C624.531 469.094 624.5 469.688 624.5 470.156C624.5 470.969 624.766 471.469 625.297 471.656C624.141 471.906 623 472.562 621.875 473.625C620.781 474.656 619.797 475.984 618.922 477.609C618.078 479.203 617.391 481.047 616.859 483.141C616.328 485.203 616.062 487.375 616.062 489.656C616.062 490.094 616.078 490.516 616.109 490.922C616.172 491.297 616.234 491.656 616.297 492C616.016 491.844 615.422 491.703 614.516 491.578C613.609 491.422 612.562 491.297 611.375 491.203C610.219 491.078 609.031 490.984 607.812 490.922C606.594 490.859 605.547 490.828 604.672 490.828C603.703 490.828 602.703 490.875 601.672 490.969C600.672 491.031 599.703 491.125 598.766 491.25C597.859 491.344 597.016 491.469 596.234 491.625C595.453 491.75 594.828 491.875 594.359 492ZM641.094 484.219C641.719 483.469 642.203 482.422 642.547 481.078C642.891 479.734 643.141 478.281 643.297 476.719C643.484 475.125 643.594 473.531 643.625 471.938C643.688 470.344 643.719 468.938 643.719 467.719C643.719 466.438 643.672 464.984 643.578 463.359C643.484 461.734 643.328 460.156 643.109 458.625C642.922 457.062 642.656 455.656 642.312 454.406C642 453.156 641.609 452.25 641.141 451.688C642.516 451.688 644.031 451.344 645.688 450.656C647.344 449.938 648.906 449.062 650.375 448.031C651.875 446.969 653.172 445.844 654.266 444.656C655.359 443.469 656.047 442.375 656.328 441.375C658.047 441.969 660.078 442.391 662.422 442.641C664.766 442.891 667.672 443.016 671.141 443.016C673.578 443.016 675.594 442.875 677.188 442.594C678.781 442.312 680.078 441.906 681.078 441.375C681.609 442.469 682.484 443.453 683.703 444.328C684.953 445.203 686.297 445.953 687.734 446.578C689.203 447.203 690.656 447.703 692.094 448.078C693.562 448.422 694.766 448.609 695.703 448.641C695.453 449.172 695.219 449.75 695 450.375C694.812 451 694.641 451.734 694.484 452.578C694.359 453.422 694.25 454.422 694.156 455.578C694.094 456.703 694.062 458.031 694.062 459.562C694.062 460.625 694.078 461.656 694.109 462.656C694.172 463.656 694.25 464.578 694.344 465.422C694.438 466.266 694.531 467.016 694.625 467.672C694.75 468.297 694.875 468.766 695 469.078C694.219 469.016 693.172 468.969 691.859 468.938C690.547 468.875 689.109 468.828 687.547 468.797C685.984 468.734 684.344 468.703 682.625 468.703C680.938 468.672 679.328 468.656 677.797 468.656C675.984 468.656 674.172 468.672 672.359 468.703C670.578 468.703 668.734 468.703 666.828 468.703C665.234 468.703 663.969 468.844 663.031 469.125C662.094 469.406 661.375 469.797 660.875 470.297C660.406 470.766 660.094 471.344 659.938 472.031C659.812 472.719 659.75 473.469 659.75 474.281C659.75 475.5 660.047 476.609 660.641 477.609C661.234 478.609 662.047 479.469 663.078 480.188C664.109 480.875 665.328 481.422 666.734 481.828C668.141 482.203 669.641 482.391 671.234 482.391C672.547 482.391 673.594 482.203 674.375 481.828C675.156 481.422 675.75 480.891 676.156 480.234C676.594 479.578 676.875 478.812 677 477.938C677.125 477.062 677.188 476.125 677.188 475.125C677.562 475.25 678.125 475.359 678.875 475.453C679.625 475.547 680.438 475.625 681.312 475.688C682.188 475.719 683.062 475.75 683.938 475.781C684.844 475.812 685.625 475.828 686.281 475.828C686.938 475.828 687.688 475.812 688.531 475.781C689.375 475.75 690.203 475.719 691.016 475.688C691.859 475.625 692.641 475.547 693.359 475.453C694.078 475.359 694.656 475.25 695.094 475.125C695.031 475.469 694.953 475.938 694.859 476.531C694.797 477.094 694.734 477.703 694.672 478.359C694.641 479.016 694.609 479.672 694.578 480.328C694.547 480.984 694.531 481.531 694.531 481.969C694.531 483.5 694.578 484.734 694.672 485.672C694.797 486.578 694.984 487.391 695.234 488.109H694.391C693.109 488.109 691.797 488.234 690.453 488.484C689.109 488.703 687.812 489.016 686.562 489.422C685.312 489.797 684.141 490.25 683.047 490.781C681.953 491.312 681.016 491.875 680.234 492.469C679.797 492.188 679.188 491.953 678.406 491.766C677.656 491.547 676.812 491.375 675.875 491.25C674.969 491.094 674 490.984 672.969 490.922C671.969 490.859 671 490.828 670.062 490.828C668.938 490.828 667.766 490.875 666.547 490.969C665.328 491.062 664.156 491.203 663.031 491.391C661.938 491.547 660.938 491.719 660.031 491.906C659.125 492.094 658.422 492.281 657.922 492.469C657.641 491.656 656.906 490.766 655.719 489.797C654.562 488.828 653.203 487.938 651.641 487.125C650.078 486.281 648.422 485.578 646.672 485.016C644.922 484.453 643.328 484.172 641.891 484.172C641.734 484.172 641.594 484.188 641.469 484.219C641.344 484.219 641.219 484.219 641.094 484.219ZM672.266 460.219C673.516 460.219 674.5 460.172 675.219 460.078C675.969 459.984 676.531 459.797 676.906 459.516C677.312 459.234 677.562 458.859 677.656 458.391C677.781 457.891 677.844 457.234 677.844 456.422C677.844 454.922 677.203 453.703 675.922 452.766C674.641 451.828 672.641 451.359 669.922 451.359C668.234 451.359 666.781 451.5 665.562 451.781C664.344 452.062 663.312 452.547 662.469 453.234C661.656 453.922 661.031 454.828 660.594 455.953C660.156 457.078 659.891 458.5 659.797 460.219H672.266ZM192.312 612C192.5 611.219 192.656 610.281 192.781 609.188C192.938 608.062 193.016 606.906 193.016 605.719C193.016 604.625 192.938 603.562 192.781 602.531C192.625 601.469 192.469 600.562 192.312 599.812C193.719 599.812 194.953 599.703 196.016 599.484C197.078 599.266 197.969 598.906 198.688 598.406C199.406 597.875 199.938 597.172 200.281 596.297C200.656 595.391 200.844 594.266 200.844 592.922C200.844 590.297 200.766 588.047 200.609 586.172C200.484 584.297 200.281 582.75 200 581.531C199.75 580.312 199.422 579.391 199.016 578.766C198.609 578.109 198.141 577.703 197.609 577.547C198.172 577.359 198.656 577.062 199.062 576.656C199.469 576.25 199.797 575.562 200.047 574.594C200.328 573.594 200.531 572.234 200.656 570.516C200.781 568.766 200.844 566.453 200.844 563.578C200.844 562.234 200.656 561.125 200.281 560.25C199.938 559.344 199.406 558.641 198.688 558.141C197.969 557.609 197.078 557.234 196.016 557.016C194.953 556.797 193.719 556.688 192.312 556.688C192.469 555.938 192.625 555.047 192.781 554.016C192.938 552.953 193.016 551.875 193.016 550.781C193.016 549.594 192.938 548.453 192.781 547.359C192.656 546.234 192.5 545.281 192.312 544.5C192.719 544.656 193.516 544.812 194.703 544.969C195.891 545.125 197.281 545.266 198.875 545.391C200.5 545.484 202.25 545.578 204.125 545.672C206 545.766 207.844 545.859 209.656 545.953C211.469 546.016 213.156 546.062 214.719 546.094C216.312 546.125 217.625 546.141 218.656 546.141C221.25 546.141 223.781 546.125 226.25 546.094C228.75 546.031 231.047 545.938 233.141 545.812C235.234 545.688 237.062 545.516 238.625 545.297C240.188 545.078 241.328 544.812 242.047 544.5C242.078 545.156 242.328 545.859 242.797 546.609C243.266 547.328 243.875 548.062 244.625 548.812C245.406 549.531 246.266 550.234 247.203 550.922C248.141 551.609 249.094 552.234 250.062 552.797C251.031 553.328 251.969 553.766 252.875 554.109C253.781 554.422 254.578 554.594 255.266 554.625C255.047 555.031 254.844 555.625 254.656 556.406C254.5 557.156 254.359 558.016 254.234 558.984C254.109 559.953 254.016 560.953 253.953 561.984C253.891 563.016 253.859 564 253.859 564.938C253.859 566.938 253.953 568.812 254.141 570.562C254.359 572.281 254.734 573.594 255.266 574.5C253.953 574.75 252.641 575.25 251.328 576C250.016 576.75 248.781 577.641 247.625 578.672C249.312 579.672 251.141 580.5 253.109 581.156C255.078 581.781 256.922 582.219 258.641 582.469C258.391 582.875 258.172 583.406 257.984 584.062C257.797 584.719 257.641 585.453 257.516 586.266C257.422 587.078 257.344 587.938 257.281 588.844C257.25 589.75 257.234 590.656 257.234 591.562C257.234 592.5 257.25 593.5 257.281 594.562C257.344 595.594 257.438 596.594 257.562 597.562C257.688 598.5 257.828 599.359 257.984 600.141C258.172 600.922 258.391 601.5 258.641 601.875C257.766 601.906 256.75 602.078 255.594 602.391C254.469 602.703 253.297 603.125 252.078 603.656C250.891 604.156 249.703 604.734 248.516 605.391C247.359 606.047 246.297 606.75 245.328 607.5C244.359 608.25 243.547 609.016 242.891 609.797C242.234 610.547 241.828 611.281 241.672 612C241.297 611.812 240.375 611.656 238.906 611.531C237.438 611.375 235.625 611.25 233.469 611.156C231.344 611.031 228.984 610.953 226.391 610.922C223.828 610.859 221.25 610.828 218.656 610.828C217.656 610.828 216.344 610.844 214.719 610.875C213.094 610.906 211.344 610.953 209.469 611.016C207.594 611.078 205.688 611.141 203.75 611.203C201.844 611.266 200.078 611.344 198.453 611.438C196.859 611.531 195.5 611.625 194.375 611.719C193.25 611.812 192.562 611.906 192.312 612ZM219.734 572.438C220.172 572.594 220.609 572.734 221.047 572.859C221.516 572.953 222.031 573.047 222.594 573.141C223.188 573.203 223.859 573.25 224.609 573.281C225.359 573.312 226.234 573.328 227.234 573.328C228.797 573.328 230.078 573.094 231.078 572.625C232.109 572.156 232.906 571.516 233.469 570.703C234.062 569.891 234.469 568.938 234.688 567.844C234.938 566.719 235.062 565.516 235.062 564.234C235.062 563.141 235 562.094 234.875 561.094C234.75 560.062 234.438 559.156 233.938 558.375C233.438 557.562 232.703 556.922 231.734 556.453C230.766 555.984 229.422 555.75 227.703 555.75C226.297 555.75 224.891 555.844 223.484 556.031C222.078 556.219 220.797 556.562 219.641 557.062C219.516 557.938 219.422 558.906 219.359 559.969C219.328 561 219.312 562.062 219.312 563.156C219.312 564.812 219.344 566.453 219.406 568.078C219.5 569.672 219.609 571.125 219.734 572.438ZM219.641 600.562C221.141 600.969 222.688 601.266 224.281 601.453C225.906 601.609 227.672 601.688 229.578 601.688C231.359 601.688 232.828 601.438 233.984 600.938C235.172 600.406 236.125 599.703 236.844 598.828C237.562 597.953 238.062 596.922 238.344 595.734C238.656 594.547 238.812 593.266 238.812 591.891C238.812 590.672 238.719 589.5 238.531 588.375C238.375 587.25 237.984 586.25 237.359 585.375C236.766 584.5 235.891 583.797 234.734 583.266C233.578 582.734 232.016 582.469 230.047 582.469C227.453 582.469 225.359 582.578 223.766 582.797C222.172 582.984 220.812 583.328 219.688 583.828C219.531 584.891 219.422 586.062 219.359 587.344C219.297 588.625 219.266 589.969 219.266 591.375C219.266 593 219.297 594.609 219.359 596.203C219.453 597.766 219.547 599.219 219.641 600.562ZM265.156 604.219C265.5 603.719 265.828 603.078 266.141 602.297C266.453 601.516 266.719 600.5 266.938 599.25C267.188 597.969 267.375 596.406 267.5 594.562C267.656 592.688 267.734 590.406 267.734 587.719C267.734 584.906 267.656 582.625 267.5 580.875C267.375 579.125 267.188 577.703 266.938 576.609C266.719 575.484 266.453 574.578 266.141 573.891C265.828 573.203 265.516 572.531 265.203 571.875C266.453 571.75 267.875 571.391 269.469 570.797C271.062 570.172 272.594 569.391 274.062 568.453C275.562 567.516 276.891 566.438 278.047 565.219C279.203 564 279.969 562.719 280.344 561.375C280.906 561.625 281.719 561.859 282.781 562.078C283.844 562.266 285.078 562.438 286.484 562.594C287.891 562.719 289.422 562.828 291.078 562.922C292.734 562.984 294.453 563.016 296.234 563.016C297.859 563.016 299.438 562.969 300.969 562.875C302.5 562.75 303.906 562.609 305.188 562.453C306.469 562.297 307.578 562.125 308.516 561.938C309.453 561.75 310.156 561.562 310.625 561.375C311 562.719 311.781 564 312.969 565.219C314.156 566.438 315.5 567.516 317 568.453C318.531 569.391 320.078 570.172 321.641 570.797C323.234 571.391 324.609 571.75 325.766 571.875C325.453 572.5 325.141 573.156 324.828 573.844C324.547 574.5 324.281 575.391 324.031 576.516C323.812 577.609 323.625 579.031 323.469 580.781C323.344 582.5 323.281 584.734 323.281 587.484C323.281 590.203 323.328 592.516 323.422 594.422C323.516 596.297 323.656 597.875 323.844 599.156C324.031 600.438 324.281 601.469 324.594 602.25C324.938 603.031 325.344 603.688 325.812 604.219C325.031 604.219 324.141 604.344 323.141 604.594C322.141 604.812 321.094 605.125 320 605.531C318.938 605.906 317.875 606.359 316.812 606.891C315.781 607.422 314.828 608 313.953 608.625C313.078 609.219 312.328 609.844 311.703 610.5C311.078 611.156 310.656 611.812 310.438 612.469C309.844 612.25 309.047 612.047 308.047 611.859C307.047 611.672 305.891 611.5 304.578 611.344C303.266 611.188 301.828 611.062 300.266 610.969C298.703 610.875 297.062 610.828 295.344 610.828C293.656 610.828 292.031 610.875 290.469 610.969C288.938 611.062 287.516 611.188 286.203 611.344C284.922 611.469 283.781 611.641 282.781 611.859C281.812 612.047 281.062 612.25 280.531 612.469C280 611.312 279.109 610.234 277.859 609.234C276.609 608.234 275.234 607.359 273.734 606.609C272.234 605.859 270.703 605.281 269.141 604.875C267.609 604.438 266.281 604.219 265.156 604.219ZM286.484 587.531C286.484 590.188 286.641 592.469 286.953 594.375C287.297 596.281 287.844 597.844 288.594 599.062C289.344 600.281 290.312 601.188 291.5 601.781C292.688 602.344 294.141 602.625 295.859 602.625C297.672 602.625 299.156 602.25 300.312 601.5C301.469 600.719 302.375 599.656 303.031 598.312C303.688 596.969 304.141 595.375 304.391 593.531C304.641 591.688 304.766 589.688 304.766 587.531C304.766 585.375 304.641 583.391 304.391 581.578C304.141 579.734 303.688 578.156 303.031 576.844C302.375 575.5 301.469 574.469 300.312 573.75C299.156 573 297.672 572.625 295.859 572.625C294.141 572.625 292.688 572.906 291.5 573.469C290.312 574.031 289.344 574.922 288.594 576.141C287.844 577.328 287.297 578.859 286.953 580.734C286.641 582.609 286.484 584.875 286.484 587.531ZM337.766 556.453C337.953 556.109 338.125 555.594 338.281 554.906C338.469 554.219 338.609 553.422 338.703 552.516C338.828 551.609 338.922 550.641 338.984 549.609C339.078 548.547 339.125 547.469 339.125 546.375C339.125 545.375 339.078 544.406 338.984 543.469C338.922 542.5 338.828 541.609 338.703 540.797C338.578 539.953 338.422 539.203 338.234 538.547C338.078 537.891 337.906 537.375 337.719 537C338.281 537.188 339.016 537.375 339.922 537.562C340.859 537.719 341.891 537.859 343.016 537.984C344.172 538.109 345.375 538.219 346.625 538.312C347.906 538.375 349.156 538.406 350.375 538.406C351.5 538.406 352.719 538.391 354.031 538.359C355.375 538.297 356.656 538.203 357.875 538.078C359.125 537.953 360.25 537.812 361.25 537.656C362.25 537.469 363 537.25 363.5 537C363.312 537.406 363.141 537.938 362.984 538.594C362.859 539.25 362.734 540 362.609 540.844C362.516 541.656 362.438 542.547 362.375 543.516C362.344 544.453 362.328 545.406 362.328 546.375C362.328 547.375 362.344 548.359 362.375 549.328C362.438 550.297 362.516 551.234 362.609 552.141C362.734 553.016 362.859 553.828 362.984 554.578C363.141 555.328 363.312 555.953 363.5 556.453C363 556.297 362.266 556.172 361.297 556.078C360.359 555.953 359.281 555.859 358.062 555.797C356.875 555.703 355.625 555.641 354.312 555.609C353 555.547 351.734 555.516 350.516 555.516C349.297 555.516 348.047 555.547 346.766 555.609C345.484 555.641 344.25 555.703 343.062 555.797C341.906 555.859 340.859 555.953 339.922 556.078C338.984 556.172 338.266 556.297 337.766 556.453ZM334.016 612C334.266 611.188 334.438 610.219 334.531 609.094C334.625 607.969 334.672 606.859 334.672 605.766C334.672 604.766 334.609 603.766 334.484 602.766C334.359 601.766 334.203 600.781 334.016 599.812C335.766 599.812 337.297 599.734 338.609 599.578C339.953 599.422 341.062 599.156 341.938 598.781C342.844 598.375 343.516 597.812 343.953 597.094C344.422 596.375 344.656 595.453 344.656 594.328V581.297C344.625 579.953 344.375 578.891 343.906 578.109C343.469 577.297 342.875 576.688 342.125 576.281C341.375 575.844 340.5 575.562 339.5 575.438C338.531 575.281 337.5 575.203 336.406 575.203H334.906C335.156 574.578 335.375 573.719 335.562 572.625C335.75 571.5 335.844 570.328 335.844 569.109C335.844 567.922 335.75 566.781 335.562 565.688C335.406 564.562 335.188 563.672 334.906 563.016C337.562 563.141 340.031 563.234 342.312 563.297C344.625 563.359 346.797 563.391 348.828 563.391C352.609 563.391 355.875 563.25 358.625 562.969C361.375 562.656 363.734 562.125 365.703 561.375C365.078 562.594 364.531 563.766 364.062 564.891C363.594 565.984 363.188 567.156 362.844 568.406C362.531 569.625 362.281 570.969 362.094 572.438C361.938 573.906 361.859 575.594 361.859 577.5L361.812 594.328C361.812 595.453 362.047 596.375 362.516 597.094C363.016 597.812 363.688 598.375 364.531 598.781C365.375 599.156 366.375 599.422 367.531 599.578C368.688 599.734 369.938 599.812 371.281 599.812C371.094 600.469 370.938 601.281 370.812 602.25C370.719 603.219 370.672 604.25 370.672 605.344C370.672 606.531 370.703 607.734 370.766 608.953C370.859 610.141 371.031 611.156 371.281 612C370.438 611.844 369.281 611.703 367.812 611.578C366.344 611.422 364.734 611.297 362.984 611.203C361.266 611.078 359.453 610.984 357.547 610.922C355.672 610.859 353.891 610.828 352.203 610.828C350.703 610.828 349.062 610.859 347.281 610.922C345.531 610.953 343.797 611.031 342.078 611.156C340.391 611.25 338.828 611.375 337.391 611.531C335.953 611.656 334.828 611.812 334.016 612ZM375.969 612C376.219 611.188 376.391 610.219 376.484 609.094C376.578 607.969 376.625 606.859 376.625 605.766C376.625 604.766 376.562 603.766 376.438 602.766C376.312 601.766 376.156 600.781 375.969 599.812C377.719 599.812 379.156 599.734 380.281 599.578C381.438 599.422 382.344 599.156 383 598.781C383.656 598.375 384.109 597.812 384.359 597.094C384.609 596.375 384.734 595.453 384.734 594.328V586.453C384.734 585.453 384.672 584.453 384.547 583.453C384.453 582.453 384.281 581.547 384.031 580.734C383.781 579.922 383.438 579.234 383 578.672C382.594 578.078 382.094 577.703 381.5 577.547C382.156 577.359 382.688 577.109 383.094 576.797C383.531 576.453 383.859 576 384.078 575.438C384.328 574.875 384.5 574.172 384.594 573.328C384.688 572.453 384.734 571.391 384.734 570.141V555.281C384.703 553.938 384.531 552.875 384.219 552.094C383.906 551.281 383.469 550.672 382.906 550.266C382.375 549.828 381.703 549.547 380.891 549.422C380.109 549.266 379.219 549.188 378.219 549.188H376.766C377.016 548.562 377.234 547.703 377.422 546.609C377.609 545.484 377.703 544.312 377.703 543.094C377.703 541.906 377.609 540.766 377.422 539.672C377.266 538.547 377.047 537.656 376.766 537C377.359 537.094 378.078 537.172 378.922 537.234C379.766 537.297 380.688 537.359 381.688 537.422C382.688 537.453 383.75 537.484 384.875 537.516C386 537.547 387.156 537.562 388.344 537.562C389.938 537.562 391.547 537.531 393.172 537.469C394.797 537.406 396.344 537.312 397.812 537.188C399.312 537.062 400.688 536.891 401.938 536.672C403.219 536.453 404.281 536.172 405.125 535.828C404.469 537.047 403.953 538.406 403.578 539.906C403.203 541.406 402.906 543 402.688 544.688C402.469 546.375 402.328 548.141 402.266 549.984C402.203 551.828 402.172 553.703 402.172 555.609L402.125 570.234C402.125 571.484 402.172 572.547 402.266 573.422C402.391 574.266 402.578 574.969 402.828 575.531C403.078 576.094 403.406 576.531 403.812 576.844C404.219 577.156 404.734 577.391 405.359 577.547C404.703 577.734 404.156 578.125 403.719 578.719C403.312 579.281 402.984 579.969 402.734 580.781C402.516 581.594 402.359 582.5 402.266 583.5C402.172 584.469 402.125 585.453 402.125 586.453V594.328C402.125 595.453 402.328 596.375 402.734 597.094C403.141 597.812 403.719 598.375 404.469 598.781C405.25 599.156 406.172 599.422 407.234 599.578C408.328 599.734 409.547 599.812 410.891 599.812C410.703 600.469 410.547 601.281 410.422 602.25C410.328 603.219 410.281 604.25 410.281 605.344C410.281 606.531 410.312 607.734 410.375 608.953C410.469 610.141 410.641 611.156 410.891 612C410.047 611.844 408.906 611.703 407.469 611.578C406.062 611.422 404.516 611.297 402.828 611.203C401.141 611.078 399.375 610.984 397.531 610.922C395.719 610.859 393.969 610.828 392.281 610.828C390.781 610.828 389.234 610.859 387.641 610.922C386.078 610.953 384.562 611.031 383.094 611.156C381.656 611.25 380.312 611.375 379.062 611.531C377.812 611.656 376.781 611.812 375.969 612ZM417.172 604.219C417.797 603.469 418.281 602.422 418.625 601.078C418.969 599.734 419.219 598.281 419.375 596.719C419.562 595.125 419.672 593.531 419.703 591.938C419.766 590.344 419.797 588.938 419.797 587.719C419.797 586.438 419.75 584.984 419.656 583.359C419.562 581.734 419.406 580.156 419.188 578.625C419 577.062 418.734 575.656 418.391 574.406C418.078 573.156 417.688 572.25 417.219 571.688C418.594 571.688 420.109 571.344 421.766 570.656C423.422 569.938 424.984 569.062 426.453 568.031C427.953 566.969 429.25 565.844 430.344 564.656C431.438 563.469 432.125 562.375 432.406 561.375C434.125 561.969 436.156 562.391 438.5 562.641C440.844 562.891 443.75 563.016 447.219 563.016C449.656 563.016 451.672 562.875 453.266 562.594C454.859 562.312 456.156 561.906 457.156 561.375C457.688 562.469 458.562 563.453 459.781 564.328C461.031 565.203 462.375 565.953 463.812 566.578C465.281 567.203 466.734 567.703 468.172 568.078C469.641 568.422 470.844 568.609 471.781 568.641C471.531 569.172 471.297 569.75 471.078 570.375C470.891 571 470.719 571.734 470.562 572.578C470.438 573.422 470.328 574.422 470.234 575.578C470.172 576.703 470.141 578.031 470.141 579.562C470.141 580.625 470.156 581.656 470.188 582.656C470.25 583.656 470.328 584.578 470.422 585.422C470.516 586.266 470.609 587.016 470.703 587.672C470.828 588.297 470.953 588.766 471.078 589.078C470.297 589.016 469.25 588.969 467.938 588.938C466.625 588.875 465.188 588.828 463.625 588.797C462.062 588.734 460.422 588.703 458.703 588.703C457.016 588.672 455.406 588.656 453.875 588.656C452.062 588.656 450.25 588.672 448.438 588.703C446.656 588.703 444.812 588.703 442.906 588.703C441.312 588.703 440.047 588.844 439.109 589.125C438.172 589.406 437.453 589.797 436.953 590.297C436.484 590.766 436.172 591.344 436.016 592.031C435.891 592.719 435.828 593.469 435.828 594.281C435.828 595.5 436.125 596.609 436.719 597.609C437.312 598.609 438.125 599.469 439.156 600.188C440.188 600.875 441.406 601.422 442.812 601.828C444.219 602.203 445.719 602.391 447.312 602.391C448.625 602.391 449.672 602.203 450.453 601.828C451.234 601.422 451.828 600.891 452.234 600.234C452.672 599.578 452.953 598.812 453.078 597.938C453.203 597.062 453.266 596.125 453.266 595.125C453.641 595.25 454.203 595.359 454.953 595.453C455.703 595.547 456.516 595.625 457.391 595.688C458.266 595.719 459.141 595.75 460.016 595.781C460.922 595.812 461.703 595.828 462.359 595.828C463.016 595.828 463.766 595.812 464.609 595.781C465.453 595.75 466.281 595.719 467.094 595.688C467.938 595.625 468.719 595.547 469.438 595.453C470.156 595.359 470.734 595.25 471.172 595.125C471.109 595.469 471.031 595.938 470.938 596.531C470.875 597.094 470.812 597.703 470.75 598.359C470.719 599.016 470.688 599.672 470.656 600.328C470.625 600.984 470.609 601.531 470.609 601.969C470.609 603.5 470.656 604.734 470.75 605.672C470.875 606.578 471.062 607.391 471.312 608.109H470.469C469.188 608.109 467.875 608.234 466.531 608.484C465.188 608.703 463.891 609.016 462.641 609.422C461.391 609.797 460.219 610.25 459.125 610.781C458.031 611.312 457.094 611.875 456.312 612.469C455.875 612.188 455.266 611.953 454.484 611.766C453.734 611.547 452.891 611.375 451.953 611.25C451.047 611.094 450.078 610.984 449.047 610.922C448.047 610.859 447.078 610.828 446.141 610.828C445.016 610.828 443.844 610.875 442.625 610.969C441.406 611.062 440.234 611.203 439.109 611.391C438.016 611.547 437.016 611.719 436.109 611.906C435.203 612.094 434.5 612.281 434 612.469C433.719 611.656 432.984 610.766 431.797 609.797C430.641 608.828 429.281 607.938 427.719 607.125C426.156 606.281 424.5 605.578 422.75 605.016C421 604.453 419.406 604.172 417.969 604.172C417.812 604.172 417.672 604.188 417.547 604.219C417.422 604.219 417.297 604.219 417.172 604.219ZM448.344 580.219C449.594 580.219 450.578 580.172 451.297 580.078C452.047 579.984 452.609 579.797 452.984 579.516C453.391 579.234 453.641 578.859 453.734 578.391C453.859 577.891 453.922 577.234 453.922 576.422C453.922 574.922 453.281 573.703 452 572.766C450.719 571.828 448.719 571.359 446 571.359C444.312 571.359 442.859 571.5 441.641 571.781C440.422 572.062 439.391 572.547 438.547 573.234C437.734 573.922 437.109 574.828 436.672 575.953C436.234 577.078 435.969 578.5 435.875 580.219H448.344ZM481.25 612C481.5 611.188 481.672 610.219 481.766 609.094C481.859 607.969 481.906 606.859 481.906 605.766C481.906 604.766 481.844 603.766 481.719 602.766C481.594 601.766 481.438 600.781 481.25 599.812C483 599.812 484.438 599.734 485.562 599.578C486.719 599.422 487.641 599.156 488.328 598.781C489.016 598.375 489.484 597.812 489.734 597.094C490.016 596.375 490.156 595.453 490.156 594.328V581.297C490.125 579.953 489.953 578.891 489.641 578.109C489.328 577.297 488.891 576.688 488.328 576.281C487.797 575.844 487.125 575.562 486.312 575.438C485.531 575.281 484.641 575.203 483.641 575.203H482.188C482.438 574.578 482.656 573.719 482.844 572.625C483.031 571.5 483.125 570.328 483.125 569.109C483.125 567.922 483.031 566.797 482.844 565.734C482.688 564.641 482.469 563.766 482.188 563.109C483.094 563.234 484.172 563.328 485.422 563.391C486.703 563.453 488.078 563.484 489.547 563.484C491.047 563.484 492.594 563.453 494.188 563.391C495.812 563.297 497.391 563.172 498.922 563.016C500.453 562.859 501.891 562.641 503.234 562.359C504.609 562.078 505.797 561.75 506.797 561.375C506.578 562 506.422 562.641 506.328 563.297C506.266 563.922 506.234 564.578 506.234 565.266C506.234 566.234 506.297 567.203 506.422 568.172C506.578 569.141 506.734 570.078 506.891 570.984C508.234 570.609 509.641 570.078 511.109 569.391C512.609 568.672 514 567.875 515.281 567C516.594 566.125 517.703 565.203 518.609 564.234C519.516 563.266 520.078 562.312 520.297 561.375C521.203 561.906 522.375 562.312 523.812 562.594C525.281 562.875 526.953 563.016 528.828 563.016C529.578 563.016 530.359 563 531.172 562.969C531.984 562.906 532.766 562.828 533.516 562.734C534.297 562.609 535 562.438 535.625 562.219C536.281 562 536.812 561.719 537.219 561.375C536.969 562 536.766 562.781 536.609 563.719C536.484 564.656 536.375 565.672 536.281 566.766C536.219 567.828 536.172 568.922 536.141 570.047C536.109 571.141 536.094 572.172 536.094 573.141C536.094 574.109 536.125 575.219 536.188 576.469C536.25 577.688 536.328 578.875 536.422 580.031C536.516 581.156 536.625 582.141 536.75 582.984C536.906 583.828 537.062 584.359 537.219 584.578C536.188 584.328 534.891 584.125 533.328 583.969C531.797 583.781 530.188 583.688 528.5 583.688C526.812 583.688 525.219 583.781 523.719 583.969C522.219 584.125 521 584.328 520.062 584.578C520.062 581.234 519.672 578.891 518.891 577.547C518.141 576.203 517.016 575.531 515.516 575.531C514.766 575.531 513.938 575.75 513.031 576.188C512.156 576.594 511.328 577.203 510.547 578.016C509.797 578.828 509.141 579.828 508.578 581.016C508.016 582.172 507.688 583.5 507.594 585L507.641 594.328C507.641 595.453 507.953 596.375 508.578 597.094C509.234 597.812 510.125 598.375 511.25 598.781C512.375 599.156 513.719 599.422 515.281 599.578C516.844 599.734 518.547 599.812 520.391 599.812C520.203 600.469 520.047 601.281 519.922 602.25C519.828 603.219 519.781 604.25 519.781 605.344C519.781 606.531 519.828 607.734 519.922 608.953C520.016 610.141 520.172 611.156 520.391 612C519.391 611.844 518.156 611.703 516.688 611.578C515.219 611.422 513.609 611.297 511.859 611.203C510.109 611.078 508.25 610.984 506.281 610.922C504.312 610.859 502.344 610.828 500.375 610.828C498.875 610.828 497.188 610.859 495.312 610.922C493.469 610.953 491.641 611.031 489.828 611.156C488.016 611.25 486.328 611.375 484.766 611.531C483.234 611.656 482.062 611.812 481.25 612ZM544.625 612C544.812 611.219 544.969 610.281 545.094 609.188C545.25 608.062 545.328 606.906 545.328 605.719C545.328 604.625 545.25 603.562 545.094 602.531C544.938 601.469 544.781 600.562 544.625 599.812C546.031 599.812 547.266 599.703 548.328 599.484C549.391 599.266 550.281 598.906 551 598.406C551.719 597.875 552.25 597.172 552.594 596.297C552.969 595.391 553.156 594.266 553.156 592.922C553.156 590.297 553.078 588.047 552.922 586.172C552.797 584.297 552.594 582.75 552.312 581.531C552.062 580.312 551.734 579.391 551.328 578.766C550.922 578.109 550.453 577.703 549.922 577.547C550.484 577.359 550.969 577.062 551.375 576.656C551.781 576.25 552.109 575.562 552.359 574.594C552.641 573.594 552.844 572.234 552.969 570.516C553.094 568.766 553.156 566.453 553.156 563.578C553.156 562.234 552.969 561.125 552.594 560.25C552.25 559.344 551.719 558.641 551 558.141C550.281 557.609 549.391 557.234 548.328 557.016C547.266 556.797 546.031 556.688 544.625 556.688C544.781 555.938 544.938 555.047 545.094 554.016C545.25 552.953 545.328 551.875 545.328 550.781C545.328 549.594 545.25 548.453 545.094 547.359C544.969 546.234 544.812 545.281 544.625 544.5C545.031 544.656 545.828 544.812 547.016 544.969C548.203 545.125 549.594 545.266 551.188 545.391C552.812 545.484 554.562 545.578 556.438 545.672C558.312 545.766 560.156 545.859 561.969 545.953C563.781 546.016 565.469 546.062 567.031 546.094C568.625 546.125 569.938 546.141 570.969 546.141C573.781 546.141 576.641 546.125 579.547 546.094C582.453 546.031 585.156 545.938 587.656 545.812C590.156 545.688 592.344 545.516 594.219 545.297C596.094 545.078 597.422 544.812 598.203 544.5C598.266 545.469 598.703 546.531 599.516 547.688C600.328 548.844 601.297 549.938 602.422 550.969C603.547 551.969 604.719 552.828 605.938 553.547C607.156 554.234 608.203 554.594 609.078 554.625C608.859 555.062 608.656 555.734 608.469 556.641C608.312 557.547 608.172 558.578 608.047 559.734C607.922 560.859 607.828 562.047 607.766 563.297C607.703 564.516 607.672 565.688 607.672 566.812C607.672 568 607.688 569.156 607.719 570.281C607.781 571.406 607.859 572.469 607.953 573.469C608.078 574.469 608.219 575.375 608.375 576.188C608.562 577 608.797 577.688 609.078 578.25C607.859 578.469 606.625 578.922 605.375 579.609C604.156 580.297 603 581.109 601.906 582.047C600.812 582.953 599.828 583.953 598.953 585.047C598.078 586.109 597.391 587.125 596.891 588.094C595.703 587.656 594.016 587.297 591.828 587.016C589.672 586.703 587.297 586.547 584.703 586.547C582.641 586.547 580.562 586.688 578.469 586.969C576.375 587.25 574.344 587.703 572.375 588.328C572.094 589.359 571.953 590.656 571.953 592.219C571.953 593.844 572.125 595.156 572.469 596.156C572.812 597.125 573.469 597.891 574.438 598.453C575.406 598.984 576.75 599.344 578.469 599.531C580.188 599.719 582.422 599.812 585.172 599.812C585.016 600.562 584.859 601.469 584.703 602.531C584.547 603.562 584.469 604.625 584.469 605.719C584.469 606.906 584.531 608.062 584.656 609.188C584.812 610.281 584.984 611.219 585.172 612C584.266 611.812 583.078 611.656 581.609 611.531C580.141 611.375 578.531 611.25 576.781 611.156C575.062 611.031 573.281 610.953 571.438 610.922C569.625 610.859 567.922 610.828 566.328 610.828C564.641 610.828 562.734 610.859 560.609 610.922C558.484 610.953 556.391 611.031 554.328 611.156C552.297 611.25 550.406 611.375 548.656 611.531C546.906 611.656 545.562 611.812 544.625 612ZM572.094 576.562C573.188 576.906 574.344 577.156 575.562 577.312C576.812 577.469 578.141 577.547 579.547 577.547C581.109 577.547 582.484 577.266 583.672 576.703C584.891 576.109 585.906 575.297 586.719 574.266C587.562 573.234 588.188 572.031 588.594 570.656C589.031 569.25 589.25 567.734 589.25 566.109C589.25 564.734 589.078 563.406 588.734 562.125C588.422 560.812 587.906 559.656 587.188 558.656C586.469 557.625 585.516 556.812 584.328 556.219C583.172 555.594 581.734 555.281 580.016 555.281C578.672 555.281 577.297 555.391 575.891 555.609C574.484 555.828 573.203 556.234 572.047 556.828C571.891 557.891 571.781 559.094 571.719 560.438C571.656 561.75 571.625 563.141 571.625 564.609C571.625 566.734 571.672 568.859 571.766 570.984C571.859 573.109 571.969 574.969 572.094 576.562ZM616.062 612C616.312 611.188 616.484 610.219 616.578 609.094C616.672 607.969 616.719 606.859 616.719 605.766C616.719 604.766 616.656 603.766 616.531 602.766C616.406 601.766 616.25 600.781 616.062 599.812C617.812 599.812 619.25 599.734 620.375 599.578C621.531 599.422 622.438 599.156 623.094 598.781C623.75 598.375 624.203 597.812 624.453 597.094C624.703 596.375 624.828 595.453 624.828 594.328V586.453C624.828 585.453 624.766 584.453 624.641 583.453C624.547 582.453 624.375 581.547 624.125 580.734C623.875 579.922 623.531 579.234 623.094 578.672C622.688 578.078 622.188 577.703 621.594 577.547C622.25 577.359 622.781 577.109 623.188 576.797C623.625 576.453 623.953 576 624.172 575.438C624.422 574.875 624.594 574.172 624.688 573.328C624.781 572.453 624.828 571.391 624.828 570.141V555.281C624.797 553.938 624.625 552.875 624.312 552.094C624 551.281 623.562 550.672 623 550.266C622.469 549.828 621.797 549.547 620.984 549.422C620.203 549.266 619.312 549.188 618.312 549.188H616.859C617.109 548.562 617.328 547.703 617.516 546.609C617.703 545.484 617.797 544.312 617.797 543.094C617.797 541.906 617.703 540.766 617.516 539.672C617.359 538.547 617.141 537.656 616.859 537C617.453 537.094 618.172 537.172 619.016 537.234C619.859 537.297 620.781 537.359 621.781 537.422C622.781 537.453 623.844 537.484 624.969 537.516C626.094 537.547 627.25 537.562 628.438 537.562C630.031 537.562 631.641 537.531 633.266 537.469C634.891 537.406 636.438 537.312 637.906 537.188C639.406 537.062 640.781 536.891 642.031 536.672C643.312 536.453 644.375 536.172 645.219 535.828C644.562 537.047 644.047 538.406 643.672 539.906C643.297 541.406 643 543 642.781 544.688C642.562 546.375 642.422 548.141 642.359 549.984C642.297 551.828 642.266 553.703 642.266 555.609L642.219 570.234C642.219 571.484 642.266 572.547 642.359 573.422C642.484 574.266 642.672 574.969 642.922 575.531C643.172 576.094 643.5 576.531 643.906 576.844C644.312 577.156 644.828 577.391 645.453 577.547C644.797 577.734 644.25 578.125 643.812 578.719C643.406 579.281 643.078 579.969 642.828 580.781C642.609 581.594 642.453 582.5 642.359 583.5C642.266 584.469 642.219 585.453 642.219 586.453V594.328C642.219 595.453 642.422 596.375 642.828 597.094C643.234 597.812 643.812 598.375 644.562 598.781C645.344 599.156 646.266 599.422 647.328 599.578C648.422 599.734 649.641 599.812 650.984 599.812C650.797 600.469 650.641 601.281 650.516 602.25C650.422 603.219 650.375 604.25 650.375 605.344C650.375 606.531 650.406 607.734 650.469 608.953C650.562 610.141 650.734 611.156 650.984 612C650.141 611.844 649 611.703 647.562 611.578C646.156 611.422 644.609 611.297 642.922 611.203C641.234 611.078 639.469 610.984 637.625 610.922C635.812 610.859 634.062 610.828 632.375 610.828C630.875 610.828 629.328 610.859 627.734 610.922C626.172 610.953 624.656 611.031 623.188 611.156C621.75 611.25 620.406 611.375 619.156 611.531C617.906 611.656 616.875 611.812 616.062 612ZM655.719 605.109C656.125 604.391 656.422 603.562 656.609 602.625C656.797 601.688 656.891 600.734 656.891 599.766C656.891 598.766 656.781 597.766 656.562 596.766C656.344 595.766 656.062 594.953 655.719 594.328C656.562 594.047 657.312 593.594 657.969 592.969C658.656 592.344 659.234 591.641 659.703 590.859C660.203 590.078 660.609 589.281 660.922 588.469C661.234 587.656 661.438 586.906 661.531 586.219C661.688 586.281 661.859 586.312 662.047 586.312C662.234 586.312 662.438 586.312 662.656 586.312C664.969 586.312 667.766 586.094 671.047 585.656C674.328 585.219 677.875 584.641 681.688 583.922C683.469 583.578 684.938 583.156 686.094 582.656C687.25 582.156 688.172 581.594 688.859 580.969C689.547 580.312 690.016 579.609 690.266 578.859C690.547 578.109 690.688 577.312 690.688 576.469C690.688 574.938 690.297 573.766 689.516 572.953C688.766 572.109 687.453 571.688 685.578 571.688C683.109 571.688 681.281 572.312 680.094 573.562C678.938 574.781 678.359 576.797 678.359 579.609C677.328 579.359 676.078 579.188 674.609 579.094C673.141 578.969 671.516 578.906 669.734 578.906C668.828 578.906 667.906 578.922 666.969 578.953C666.062 578.984 665.172 579.031 664.297 579.094C663.422 579.125 662.609 579.188 661.859 579.281C661.109 579.375 660.469 579.484 659.938 579.609C660.125 578.641 660.281 577.547 660.406 576.328C660.562 575.109 660.641 573.688 660.641 572.062C660.641 571.531 660.625 571.047 660.594 570.609C660.594 570.141 660.562 569.688 660.5 569.25C660.469 568.812 660.406 568.359 660.312 567.891C660.219 567.391 660.094 566.844 659.938 566.25C661.25 566.25 662.688 566.125 664.25 565.875C665.812 565.594 667.328 565.234 668.797 564.797C670.297 564.359 671.656 563.844 672.875 563.25C674.094 562.656 675.031 562.031 675.688 561.375C676.25 561.656 676.797 561.906 677.328 562.125C677.859 562.312 678.469 562.484 679.156 562.641C679.844 562.766 680.641 562.859 681.547 562.922C682.453 562.984 683.547 563.016 684.828 563.016C687.766 563.016 690.266 562.875 692.328 562.594C694.422 562.281 695.922 561.875 696.828 561.375C697.328 562.312 698.047 563.203 698.984 564.047C699.922 564.891 700.938 565.625 702.031 566.25C703.156 566.844 704.281 567.328 705.406 567.703C706.562 568.047 707.609 568.219 708.547 568.219H708.969C708.688 568.906 708.453 569.859 708.266 571.078C708.078 572.297 707.922 573.672 707.797 575.203C707.672 576.703 707.578 578.297 707.516 579.984C707.453 581.672 707.391 583.344 707.328 585C707.297 586.625 707.281 588.156 707.281 589.594C707.281 591.031 707.281 592.25 707.281 593.25C707.281 594.531 707.391 595.578 707.609 596.391C707.828 597.172 708.25 597.781 708.875 598.219C709.531 598.656 710.438 598.953 711.594 599.109C712.781 599.266 714.312 599.344 716.188 599.344C716.062 599.719 715.938 600.188 715.812 600.75C715.719 601.281 715.625 601.859 715.531 602.484C715.438 603.109 715.359 603.734 715.297 604.359C715.266 604.984 715.25 605.562 715.25 606.094C715.25 608.531 715.562 610.5 716.188 612C715.438 611.656 714.219 611.375 712.531 611.156C710.844 610.938 709 610.828 707 610.828C704.75 610.828 702.75 610.938 701 611.156C699.281 611.375 697.922 611.656 696.922 612C696.672 610.281 696.188 608.906 695.469 607.875C694.781 606.844 694.078 606.031 693.359 605.438C692.266 605.781 691.266 606.25 690.359 606.844C689.453 607.406 688.641 608.031 687.922 608.719C687.234 609.375 686.672 610.047 686.234 610.734C685.797 611.391 685.516 611.969 685.391 612.469C684.672 612.281 684.016 612.094 683.422 611.906C682.859 611.719 682.281 611.547 681.688 611.391C681.094 611.203 680.453 611.062 679.766 610.969C679.078 610.875 678.266 610.828 677.328 610.828C676.359 610.828 675.328 610.875 674.234 610.969C673.172 611.062 672.109 611.203 671.047 611.391C669.984 611.547 668.984 611.719 668.047 611.906C667.141 612.094 666.359 612.281 665.703 612.469C665.172 611.594 664.516 610.734 663.734 609.891C662.953 609.016 662.109 608.234 661.203 607.547C660.328 606.828 659.406 606.25 658.438 605.812C657.5 605.375 656.594 605.141 655.719 605.109ZM675.875 596.391C675.875 597.141 676.031 597.812 676.344 598.406C676.656 598.969 677.047 599.453 677.516 599.859C678.016 600.234 678.562 600.531 679.156 600.75C679.75 600.938 680.328 601.031 680.891 601.031C681.922 601.031 682.969 600.828 684.031 600.422C685.125 600.016 686.125 599.375 687.031 598.5C687.938 597.594 688.703 596.422 689.328 594.984C689.953 593.547 690.328 591.797 690.453 589.734C687.766 589.797 685.484 589.984 683.609 590.297C681.766 590.578 680.266 591 679.109 591.562C677.953 592.094 677.125 592.766 676.625 593.578C676.125 594.391 675.875 595.328 675.875 596.391ZM725.516 602.344C726.547 601.094 727.234 599.5 727.578 597.562C727.922 595.625 728.094 593.297 728.094 590.578V577.031C728.062 576.469 727.969 575.969 727.812 575.531C727.688 575.062 727.453 574.672 727.109 574.359C726.797 574.016 726.359 573.75 725.797 573.562C725.234 573.375 724.531 573.281 723.688 573.281C723.219 573.281 722.703 573.312 722.141 573.375C721.609 573.438 721 573.531 720.312 573.656C720.469 572.75 720.578 571.766 720.641 570.703C720.703 569.641 720.734 568.562 720.734 567.469C720.734 566.469 720.703 565.484 720.641 564.516C720.578 563.547 720.469 562.656 720.312 561.844C720.625 562.062 721.016 562.25 721.484 562.406C721.953 562.531 722.422 562.641 722.891 562.734C723.359 562.828 723.797 562.906 724.203 562.969C724.609 563 724.922 563.016 725.141 563.016C726.047 563.016 726.719 562.672 727.156 561.984C727.625 561.266 727.859 560.031 727.859 558.281C727.859 558 727.844 557.609 727.812 557.109C727.812 556.609 727.797 556.094 727.766 555.562C727.734 555.031 727.672 554.531 727.578 554.062C727.516 553.594 727.422 553.234 727.297 552.984C727.547 553.047 727.797 553.078 728.047 553.078C728.297 553.078 728.562 553.078 728.844 553.078C730.438 553.078 732.109 552.812 733.859 552.281C735.641 551.75 737.359 551.172 739.016 550.547C740.703 549.922 742.266 549.344 743.703 548.812C745.141 548.281 746.328 548.016 747.266 548.016C747.016 548.766 746.812 549.594 746.656 550.5C746.5 551.406 746.375 552.312 746.281 553.219C746.188 554.125 746.109 555.016 746.047 555.891C746.016 556.734 746 557.453 746 558.047C746 559.078 746.125 559.922 746.375 560.578C746.625 561.203 747.062 561.703 747.688 562.078C748.344 562.422 749.234 562.672 750.359 562.828C751.516 562.953 752.984 563.016 754.766 563.016C755.516 563.016 756.391 563.016 757.391 563.016C758.422 562.984 759.484 562.938 760.578 562.875C761.672 562.781 762.75 562.656 763.812 562.5C764.906 562.344 765.906 562.125 766.812 561.844C766.5 562.656 766.281 563.609 766.156 564.703C766.031 565.797 765.969 566.922 765.969 568.078C765.969 569.391 766.031 570.609 766.156 571.734C766.281 572.859 766.5 573.859 766.812 574.734C765.75 574.641 764.578 574.531 763.297 574.406C762.047 574.281 760.797 574.172 759.547 574.078C758.297 573.953 757.141 573.859 756.078 573.797C755.016 573.703 754.156 573.656 753.5 573.656C751.938 573.656 750.641 573.734 749.609 573.891C748.609 574.016 747.812 574.234 747.219 574.547C746.625 574.828 746.203 575.203 745.953 575.672C745.734 576.109 745.625 576.625 745.625 577.219V589.781C745.625 591 745.688 592.297 745.812 593.672C745.969 595.016 746.234 596.266 746.609 597.422C746.984 598.578 747.5 599.547 748.156 600.328C748.812 601.078 749.656 601.453 750.688 601.453C751.812 601.453 752.75 601.234 753.5 600.797C754.281 600.328 754.906 599.688 755.375 598.875C755.844 598.062 756.172 597.109 756.359 596.016C756.578 594.891 756.688 593.656 756.688 592.312C757.375 592.469 758.297 592.625 759.453 592.781C760.609 592.938 761.797 593.016 763.016 593.016C764.203 593.016 765.312 592.938 766.344 592.781C767.406 592.625 768.219 592.469 768.781 592.312C768.531 593 768.344 593.969 768.219 595.219C768.125 596.438 768.078 597.75 768.078 599.156C768.078 600.562 768.125 601.875 768.219 603.094C768.312 604.312 768.5 605.219 768.781 605.812H768.312C767.156 605.812 765.906 606 764.562 606.375C763.25 606.719 761.984 607.188 760.766 607.781C759.547 608.375 758.422 609.047 757.391 609.797C756.391 610.516 755.625 611.25 755.094 612C754.844 611.812 754.359 611.656 753.641 611.531C752.953 611.375 752.141 611.25 751.203 611.156C750.297 611.031 749.328 610.953 748.297 610.922C747.266 610.859 746.281 610.828 745.344 610.828C744.406 610.828 743.422 610.859 742.391 610.922C741.391 610.953 740.406 611.031 739.438 611.156C738.469 611.25 737.578 611.375 736.766 611.531C735.984 611.656 735.359 611.812 734.891 612C734.609 610.906 734.172 609.844 733.578 608.812C733.016 607.75 732.328 606.781 731.516 605.906C730.703 605.031 729.781 604.281 728.75 603.656C727.75 603.031 726.672 602.594 725.516 602.344ZM777.453 604.219C778.078 603.469 778.562 602.422 778.906 601.078C779.25 599.734 779.5 598.281 779.656 596.719C779.844 595.125 779.953 593.531 779.984 591.938C780.047 590.344 780.078 588.938 780.078 587.719C780.078 586.438 780.031 584.984 779.938 583.359C779.844 581.734 779.688 580.156 779.469 578.625C779.281 577.062 779.016 575.656 778.672 574.406C778.359 573.156 777.969 572.25 777.5 571.688C778.875 571.688 780.391 571.344 782.047 570.656C783.703 569.938 785.266 569.062 786.734 568.031C788.234 566.969 789.531 565.844 790.625 564.656C791.719 563.469 792.406 562.375 792.688 561.375C794.406 561.969 796.438 562.391 798.781 562.641C801.125 562.891 804.031 563.016 807.5 563.016C809.938 563.016 811.953 562.875 813.547 562.594C815.141 562.312 816.438 561.906 817.438 561.375C817.969 562.469 818.844 563.453 820.062 564.328C821.312 565.203 822.656 565.953 824.094 566.578C825.562 567.203 827.016 567.703 828.453 568.078C829.922 568.422 831.125 568.609 832.062 568.641C831.812 569.172 831.578 569.75 831.359 570.375C831.172 571 831 571.734 830.844 572.578C830.719 573.422 830.609 574.422 830.516 575.578C830.453 576.703 830.422 578.031 830.422 579.562C830.422 580.625 830.438 581.656 830.469 582.656C830.531 583.656 830.609 584.578 830.703 585.422C830.797 586.266 830.891 587.016 830.984 587.672C831.109 588.297 831.234 588.766 831.359 589.078C830.578 589.016 829.531 588.969 828.219 588.938C826.906 588.875 825.469 588.828 823.906 588.797C822.344 588.734 820.703 588.703 818.984 588.703C817.297 588.672 815.688 588.656 814.156 588.656C812.344 588.656 810.531 588.672 808.719 588.703C806.938 588.703 805.094 588.703 803.188 588.703C801.594 588.703 800.328 588.844 799.391 589.125C798.453 589.406 797.734 589.797 797.234 590.297C796.766 590.766 796.453 591.344 796.297 592.031C796.172 592.719 796.109 593.469 796.109 594.281C796.109 595.5 796.406 596.609 797 597.609C797.594 598.609 798.406 599.469 799.438 600.188C800.469 600.875 801.688 601.422 803.094 601.828C804.5 602.203 806 602.391 807.594 602.391C808.906 602.391 809.953 602.203 810.734 601.828C811.516 601.422 812.109 600.891 812.516 600.234C812.953 599.578 813.234 598.812 813.359 597.938C813.484 597.062 813.547 596.125 813.547 595.125C813.922 595.25 814.484 595.359 815.234 595.453C815.984 595.547 816.797 595.625 817.672 595.688C818.547 595.719 819.422 595.75 820.297 595.781C821.203 595.812 821.984 595.828 822.641 595.828C823.297 595.828 824.047 595.812 824.891 595.781C825.734 595.75 826.562 595.719 827.375 595.688C828.219 595.625 829 595.547 829.719 595.453C830.438 595.359 831.016 595.25 831.453 595.125C831.391 595.469 831.312 595.938 831.219 596.531C831.156 597.094 831.094 597.703 831.031 598.359C831 599.016 830.969 599.672 830.938 600.328C830.906 600.984 830.891 601.531 830.891 601.969C830.891 603.5 830.938 604.734 831.031 605.672C831.156 606.578 831.344 607.391 831.594 608.109H830.75C829.469 608.109 828.156 608.234 826.812 608.484C825.469 608.703 824.172 609.016 822.922 609.422C821.672 609.797 820.5 610.25 819.406 610.781C818.312 611.312 817.375 611.875 816.594 612.469C816.156 612.188 815.547 611.953 814.766 611.766C814.016 611.547 813.172 611.375 812.234 611.25C811.328 611.094 810.359 610.984 809.328 610.922C808.328 610.859 807.359 610.828 806.422 610.828C805.297 610.828 804.125 610.875 802.906 610.969C801.688 611.062 800.516 611.203 799.391 611.391C798.297 611.547 797.297 611.719 796.391 611.906C795.484 612.094 794.781 612.281 794.281 612.469C794 611.656 793.266 610.766 792.078 609.797C790.922 608.828 789.562 607.938 788 607.125C786.438 606.281 784.781 605.578 783.031 605.016C781.281 604.453 779.688 604.172 778.25 604.172C778.094 604.172 777.953 604.188 777.828 604.219C777.703 604.219 777.578 604.219 777.453 604.219ZM808.625 580.219C809.875 580.219 810.859 580.172 811.578 580.078C812.328 579.984 812.891 579.797 813.266 579.516C813.672 579.234 813.922 578.859 814.016 578.391C814.141 577.891 814.203 577.234 814.203 576.422C814.203 574.922 813.562 573.703 812.281 572.766C811 571.828 809 571.359 806.281 571.359C804.594 571.359 803.141 571.5 801.922 571.781C800.703 572.062 799.672 572.547 798.828 573.234C798.016 573.922 797.391 574.828 796.953 575.953C796.516 577.078 796.25 578.5 796.156 580.219H808.625Z" fill="white"/>
</svg>
