<svg width="641" height="309" viewBox="0 0 641 309" fill="none" xmlns="http://www.w3.org/2000/svg">
<path d="M160.859 68C161.047 67.2188 161.203 66.2812 161.328 65.1875C161.484 64.0625 161.562 62.9062 161.562 61.7188C161.562 60.625 161.484 59.5625 161.328 58.5312C161.172 57.4688 161.016 56.5625 160.859 55.8125C162.266 55.8125 163.5 55.7031 164.562 55.4844C165.625 55.2656 166.516 54.9062 167.234 54.4062C167.953 53.875 168.484 53.1719 168.828 52.2969C169.203 51.3906 169.391 50.2656 169.391 48.9219C169.391 46.2969 169.312 44.0469 169.156 42.1719C169.031 40.2969 168.828 38.75 168.547 37.5312C168.297 36.3125 167.969 35.3906 167.562 34.7656C167.156 34.1094 166.688 33.7031 166.156 33.5469C166.719 33.3594 167.203 33.0625 167.609 32.6562C168.016 32.25 168.344 31.5625 168.594 30.5938C168.875 29.5938 169.078 28.2344 169.203 26.5156C169.328 24.7656 169.391 22.4531 169.391 19.5781C169.391 18.2344 169.203 17.125 168.828 16.25C168.484 15.3438 167.953 14.6406 167.234 14.1406C166.516 13.6094 165.625 13.2344 164.562 13.0156C163.5 12.7969 162.266 12.6875 160.859 12.6875C161.016 11.9375 161.172 11.0469 161.328 10.0156C161.484 8.95312 161.562 7.875 161.562 6.78125C161.562 5.59375 161.484 4.45312 161.328 3.35938C161.203 2.23438 161.047 1.28125 160.859 0.5C161.266 0.65625 162.062 0.8125 163.25 0.96875C164.438 1.125 165.828 1.26562 167.422 1.39062C169.047 1.48438 170.797 1.57812 172.672 1.67188C174.547 1.76562 176.391 1.85938 178.203 1.95312C180.016 2.01562 181.703 2.0625 183.266 2.09375C184.859 2.125 186.172 2.14062 187.203 2.14062C190.172 2.14062 193.172 2.125 196.203 2.09375C199.266 2.03125 202.109 1.9375 204.734 1.8125C207.391 1.6875 209.703 1.51563 211.672 1.29688C213.641 1.07812 215.031 0.8125 215.844 0.5C215.875 1.125 216.094 1.79688 216.5 2.51562C216.938 3.20313 217.484 3.90625 218.141 4.625C218.828 5.3125 219.594 5.98438 220.438 6.64062C221.281 7.29688 222.125 7.875 222.969 8.375C223.844 8.875 224.688 9.28125 225.5 9.59375C226.312 9.90625 227.031 10.0781 227.656 10.1094C227.438 10.5469 227.234 11.1875 227.047 12.0312C226.891 12.875 226.75 13.8125 226.625 14.8438C226.5 15.875 226.406 16.9688 226.344 18.125C226.281 19.25 226.25 20.3281 226.25 21.3594C226.25 22.5469 226.266 23.7188 226.297 24.875C226.359 26 226.438 27.0625 226.531 28.0625C226.625 29.0625 226.766 29.9844 226.953 30.8281C227.141 31.6406 227.375 32.3125 227.656 32.8438C226.562 33.0312 225.422 33.3281 224.234 33.7344C223.047 34.1406 221.875 34.6406 220.719 35.2344C219.562 35.7969 218.469 36.4375 217.438 37.1562C216.406 37.875 215.516 38.6406 214.766 39.4531C215.234 40.1094 215.781 40.7188 216.406 41.2812C217.062 41.8438 217.734 42.3281 218.422 42.7344C219.109 43.1094 219.812 43.4062 220.531 43.625C221.25 43.8438 221.922 43.9531 222.547 43.9531C222.547 45.8281 222.828 47.5 223.391 48.9688C223.984 50.4375 224.812 51.6875 225.875 52.7188C226.938 53.7188 228.234 54.4844 229.766 55.0156C231.297 55.5469 233.031 55.8125 234.969 55.8125C234.688 56.5625 234.5 57.4688 234.406 58.5312C234.312 59.5625 234.266 60.625 234.266 61.7188C234.266 62.9062 234.328 64.0625 234.453 65.1875C234.578 66.2812 234.781 67.2188 235.062 68C234.75 67.875 234.141 67.75 233.234 67.625C232.328 67.4688 231.281 67.3438 230.094 67.25C228.938 67.125 227.734 67.0312 226.484 66.9688C225.234 66.875 224.109 66.8281 223.109 66.8281C221.922 66.8281 220.609 66.8438 219.172 66.875C217.734 66.9062 216.328 66.9688 214.953 67.0625C213.578 67.125 212.312 67.2344 211.156 67.3906C210.031 67.5469 209.172 67.75 208.578 68C208.641 67.375 208.688 66.7656 208.719 66.1719C208.75 65.5469 208.766 64.9375 208.766 64.3438C208.766 63.0625 208.672 61.8438 208.484 60.6875C208.297 59.5 207.984 58.4219 207.547 57.4531C207.109 56.4531 206.547 55.5938 205.859 54.875C205.172 54.125 204.328 53.5469 203.328 53.1406C203.609 52.6094 203.859 51.8906 204.078 50.9844C204.297 50.0781 204.406 48.8125 204.406 47.1875C204.406 46.3125 204.266 45.4844 203.984 44.7031C203.703 43.9219 203.203 43.25 202.484 42.6875C201.797 42.125 200.875 41.6875 199.719 41.375C198.562 41.0312 197.109 40.8594 195.359 40.8594C194.609 40.8594 193.703 40.8906 192.641 40.9531C191.578 41.0156 190.453 41.125 189.266 41.2812C188.922 42.125 188.656 43.1406 188.469 44.3281C188.281 45.4844 188.188 47.0156 188.188 48.9219C188.188 50.2656 188.328 51.3906 188.609 52.2969C188.922 53.1719 189.422 53.875 190.109 54.4062C190.797 54.9062 191.672 55.2656 192.734 55.4844C193.828 55.7031 195.156 55.8125 196.719 55.8125C196.562 56.5625 196.406 57.4688 196.25 58.5312C196.094 59.5625 196.016 60.625 196.016 61.7188C196.016 62.9062 196.078 64.0625 196.203 65.1875C196.359 66.2812 196.531 67.2188 196.719 68C195.812 67.8125 194.672 67.6562 193.297 67.5312C191.922 67.375 190.422 67.25 188.797 67.1562C187.172 67.0312 185.5 66.9531 183.781 66.9219C182.062 66.8594 180.406 66.8281 178.812 66.8281C177.219 66.8281 175.547 66.8594 173.797 66.9219C172.078 66.9531 170.406 67.0312 168.781 67.1562C167.156 67.25 165.641 67.375 164.234 67.5312C162.859 67.6562 161.734 67.8125 160.859 68ZM188.281 30.5938C189.594 30.9688 190.969 31.25 192.406 31.4375C193.875 31.5938 195.469 31.6719 197.188 31.6719C198.875 31.6719 200.375 31.4219 201.688 30.9219C203.031 30.3906 204.156 29.6719 205.062 28.7656C205.969 27.8594 206.656 26.7969 207.125 25.5781C207.594 24.3281 207.828 23 207.828 21.5938C207.828 20.2812 207.641 19 207.266 17.75C206.922 16.5 206.344 15.4062 205.531 14.4688C204.75 13.5 203.703 12.7344 202.391 12.1719C201.109 11.5781 199.531 11.2812 197.656 11.2812C196.031 11.2812 194.375 11.3906 192.688 11.6094C191.031 11.8281 189.547 12.2031 188.234 12.7344C188.078 13.7344 187.969 14.8438 187.906 16.0625C187.844 17.25 187.812 18.5 187.812 19.8125C187.812 21.75 187.859 23.6719 187.953 25.5781C188.047 27.4531 188.156 29.125 188.281 30.5938ZM241.156 60.2188C241.781 59.4688 242.266 58.4219 242.609 57.0781C242.953 55.7344 243.203 54.2812 243.359 52.7188C243.547 51.125 243.656 49.5312 243.688 47.9375C243.75 46.3438 243.781 44.9375 243.781 43.7188C243.781 42.4375 243.734 40.9844 243.641 39.3594C243.547 37.7344 243.391 36.1562 243.172 34.625C242.984 33.0625 242.719 31.6562 242.375 30.4062C242.062 29.1562 241.672 28.25 241.203 27.6875C242.578 27.6875 244.094 27.3438 245.75 26.6562C247.406 25.9375 248.969 25.0625 250.438 24.0312C251.938 22.9688 253.234 21.8438 254.328 20.6562C255.422 19.4688 256.109 18.375 256.391 17.375C258.109 17.9688 260.141 18.3906 262.484 18.6406C264.828 18.8906 267.734 19.0156 271.203 19.0156C273.641 19.0156 275.656 18.875 277.25 18.5938C278.844 18.3125 280.141 17.9062 281.141 17.375C281.672 18.4688 282.547 19.4531 283.766 20.3281C285.016 21.2031 286.359 21.9531 287.797 22.5781C289.266 23.2031 290.719 23.7031 292.156 24.0781C293.625 24.4219 294.828 24.6094 295.766 24.6406C295.516 25.1719 295.281 25.75 295.062 26.375C294.875 27 294.703 27.7344 294.547 28.5781C294.422 29.4219 294.312 30.4219 294.219 31.5781C294.156 32.7031 294.125 34.0312 294.125 35.5625C294.125 36.625 294.141 37.6562 294.172 38.6562C294.234 39.6562 294.312 40.5781 294.406 41.4219C294.5 42.2656 294.594 43.0156 294.688 43.6719C294.812 44.2969 294.938 44.7656 295.062 45.0781C294.281 45.0156 293.234 44.9688 291.922 44.9375C290.609 44.875 289.172 44.8281 287.609 44.7969C286.047 44.7344 284.406 44.7031 282.688 44.7031C281 44.6719 279.391 44.6562 277.859 44.6562C276.047 44.6562 274.234 44.6719 272.422 44.7031C270.641 44.7031 268.797 44.7031 266.891 44.7031C265.297 44.7031 264.031 44.8438 263.094 45.125C262.156 45.4062 261.438 45.7969 260.938 46.2969C260.469 46.7656 260.156 47.3438 260 48.0312C259.875 48.7188 259.812 49.4688 259.812 50.2812C259.812 51.5 260.109 52.6094 260.703 53.6094C261.297 54.6094 262.109 55.4688 263.141 56.1875C264.172 56.875 265.391 57.4219 266.797 57.8281C268.203 58.2031 269.703 58.3906 271.297 58.3906C272.609 58.3906 273.656 58.2031 274.438 57.8281C275.219 57.4219 275.812 56.8906 276.219 56.2344C276.656 55.5781 276.938 54.8125 277.062 53.9375C277.188 53.0625 277.25 52.125 277.25 51.125C277.625 51.25 278.188 51.3594 278.938 51.4531C279.688 51.5469 280.5 51.625 281.375 51.6875C282.25 51.7188 283.125 51.75 284 51.7812C284.906 51.8125 285.688 51.8281 286.344 51.8281C287 51.8281 287.75 51.8125 288.594 51.7812C289.438 51.75 290.266 51.7188 291.078 51.6875C291.922 51.625 292.703 51.5469 293.422 51.4531C294.141 51.3594 294.719 51.25 295.156 51.125C295.094 51.4688 295.016 51.9375 294.922 52.5312C294.859 53.0938 294.797 53.7031 294.734 54.3594C294.703 55.0156 294.672 55.6719 294.641 56.3281C294.609 56.9844 294.594 57.5312 294.594 57.9688C294.594 59.5 294.641 60.7344 294.734 61.6719C294.859 62.5781 295.047 63.3906 295.297 64.1094H294.453C293.172 64.1094 291.859 64.2344 290.516 64.4844C289.172 64.7031 287.875 65.0156 286.625 65.4219C285.375 65.7969 284.203 66.25 283.109 66.7812C282.016 67.3125 281.078 67.875 280.297 68.4688C279.859 68.1875 279.25 67.9531 278.469 67.7656C277.719 67.5469 276.875 67.375 275.938 67.25C275.031 67.0938 274.062 66.9844 273.031 66.9219C272.031 66.8594 271.062 66.8281 270.125 66.8281C269 66.8281 267.828 66.875 266.609 66.9688C265.391 67.0625 264.219 67.2031 263.094 67.3906C262 67.5469 261 67.7188 260.094 67.9062C259.188 68.0938 258.484 68.2812 257.984 68.4688C257.703 67.6562 256.969 66.7656 255.781 65.7969C254.625 64.8281 253.266 63.9375 251.703 63.125C250.141 62.2812 248.484 61.5781 246.734 61.0156C244.984 60.4531 243.391 60.1719 241.953 60.1719C241.797 60.1719 241.656 60.1875 241.531 60.2188C241.406 60.2188 241.281 60.2188 241.156 60.2188ZM272.328 36.2188C273.578 36.2188 274.562 36.1719 275.281 36.0781C276.031 35.9844 276.594 35.7969 276.969 35.5156C277.375 35.2344 277.625 34.8594 277.719 34.3906C277.844 33.8906 277.906 33.2344 277.906 32.4219C277.906 30.9219 277.266 29.7031 275.984 28.7656C274.703 27.8281 272.703 27.3594 269.984 27.3594C268.297 27.3594 266.844 27.5 265.625 27.7812C264.406 28.0625 263.375 28.5469 262.531 29.2344C261.719 29.9219 261.094 30.8281 260.656 31.9531C260.219 33.0781 259.953 34.5 259.859 36.2188H272.328ZM303.641 61.1094C304.047 60.3906 304.344 59.5625 304.531 58.625C304.719 57.6875 304.812 56.7344 304.812 55.7656C304.812 54.7656 304.703 53.7656 304.484 52.7656C304.266 51.7656 303.984 50.9531 303.641 50.3281C304.484 50.0469 305.234 49.5938 305.891 48.9688C306.578 48.3438 307.156 47.6406 307.625 46.8594C308.125 46.0781 308.531 45.2812 308.844 44.4688C309.156 43.6562 309.359 42.9062 309.453 42.2188C309.609 42.2812 309.781 42.3125 309.969 42.3125C310.156 42.3125 310.359 42.3125 310.578 42.3125C312.891 42.3125 315.688 42.0938 318.969 41.6562C322.25 41.2188 325.797 40.6406 329.609 39.9219C331.391 39.5781 332.859 39.1562 334.016 38.6562C335.172 38.1562 336.094 37.5938 336.781 36.9688C337.469 36.3125 337.938 35.6094 338.188 34.8594C338.469 34.1094 338.609 33.3125 338.609 32.4688C338.609 30.9375 338.219 29.7656 337.438 28.9531C336.688 28.1094 335.375 27.6875 333.5 27.6875C331.031 27.6875 329.203 28.3125 328.016 29.5625C326.859 30.7812 326.281 32.7969 326.281 35.6094C325.25 35.3594 324 35.1875 322.531 35.0938C321.062 34.9688 319.438 34.9062 317.656 34.9062C316.75 34.9062 315.828 34.9219 314.891 34.9531C313.984 34.9844 313.094 35.0312 312.219 35.0938C311.344 35.125 310.531 35.1875 309.781 35.2812C309.031 35.375 308.391 35.4844 307.859 35.6094C308.047 34.6406 308.203 33.5469 308.328 32.3281C308.484 31.1094 308.562 29.6875 308.562 28.0625C308.562 27.5312 308.547 27.0469 308.516 26.6094C308.516 26.1406 308.484 25.6875 308.422 25.25C308.391 24.8125 308.328 24.3594 308.234 23.8906C308.141 23.3906 308.016 22.8438 307.859 22.25C309.172 22.25 310.609 22.125 312.172 21.875C313.734 21.5938 315.25 21.2344 316.719 20.7969C318.219 20.3594 319.578 19.8438 320.797 19.25C322.016 18.6562 322.953 18.0312 323.609 17.375C324.172 17.6562 324.719 17.9062 325.25 18.125C325.781 18.3125 326.391 18.4844 327.078 18.6406C327.766 18.7656 328.562 18.8594 329.469 18.9219C330.375 18.9844 331.469 19.0156 332.75 19.0156C335.688 19.0156 338.188 18.875 340.25 18.5938C342.344 18.2812 343.844 17.875 344.75 17.375C345.25 18.3125 345.969 19.2031 346.906 20.0469C347.844 20.8906 348.859 21.625 349.953 22.25C351.078 22.8438 352.203 23.3281 353.328 23.7031C354.484 24.0469 355.531 24.2188 356.469 24.2188H356.891C356.609 24.9062 356.375 25.8594 356.188 27.0781C356 28.2969 355.844 29.6719 355.719 31.2031C355.594 32.7031 355.5 34.2969 355.438 35.9844C355.375 37.6719 355.312 39.3438 355.25 41C355.219 42.625 355.203 44.1562 355.203 45.5938C355.203 47.0312 355.203 48.25 355.203 49.25C355.203 50.5312 355.312 51.5781 355.531 52.3906C355.75 53.1719 356.172 53.7812 356.797 54.2188C357.453 54.6562 358.359 54.9531 359.516 55.1094C360.703 55.2656 362.234 55.3438 364.109 55.3438C363.984 55.7188 363.859 56.1875 363.734 56.75C363.641 57.2812 363.547 57.8594 363.453 58.4844C363.359 59.1094 363.281 59.7344 363.219 60.3594C363.188 60.9844 363.172 61.5625 363.172 62.0938C363.172 64.5312 363.484 66.5 364.109 68C363.359 67.6562 362.141 67.375 360.453 67.1562C358.766 66.9375 356.922 66.8281 354.922 66.8281C352.672 66.8281 350.672 66.9375 348.922 67.1562C347.203 67.375 345.844 67.6562 344.844 68C344.594 66.2812 344.109 64.9062 343.391 63.875C342.703 62.8438 342 62.0312 341.281 61.4375C340.188 61.7812 339.188 62.25 338.281 62.8438C337.375 63.4062 336.562 64.0312 335.844 64.7188C335.156 65.375 334.594 66.0469 334.156 66.7344C333.719 67.3906 333.438 67.9688 333.312 68.4688C332.594 68.2812 331.938 68.0938 331.344 67.9062C330.781 67.7188 330.203 67.5469 329.609 67.3906C329.016 67.2031 328.375 67.0625 327.688 66.9688C327 66.875 326.188 66.8281 325.25 66.8281C324.281 66.8281 323.25 66.875 322.156 66.9688C321.094 67.0625 320.031 67.2031 318.969 67.3906C317.906 67.5469 316.906 67.7188 315.969 67.9062C315.062 68.0938 314.281 68.2812 313.625 68.4688C313.094 67.5938 312.438 66.7344 311.656 65.8906C310.875 65.0156 310.031 64.2344 309.125 63.5469C308.25 62.8281 307.328 62.25 306.359 61.8125C305.422 61.375 304.516 61.1406 303.641 61.1094ZM323.797 52.3906C323.797 53.1406 323.953 53.8125 324.266 54.4062C324.578 54.9688 324.969 55.4531 325.438 55.8594C325.938 56.2344 326.484 56.5312 327.078 56.75C327.672 56.9375 328.25 57.0312 328.812 57.0312C329.844 57.0312 330.891 56.8281 331.953 56.4219C333.047 56.0156 334.047 55.375 334.953 54.5C335.859 53.5938 336.625 52.4219 337.25 50.9844C337.875 49.5469 338.25 47.7969 338.375 45.7344C335.688 45.7969 333.406 45.9844 331.531 46.2969C329.688 46.5781 328.188 47 327.031 47.5625C325.875 48.0938 325.047 48.7656 324.547 49.5781C324.047 50.3906 323.797 51.3281 323.797 52.3906ZM368.516 60.2188C369.016 59.6875 369.422 58.8281 369.734 57.6406C370.078 56.4531 370.344 55.0938 370.531 53.5625C370.75 52.0312 370.891 50.4062 370.953 48.6875C371.047 46.9688 371.094 45.3125 371.094 43.7188C371.094 42.1562 371.047 40.5469 370.953 38.8906C370.859 37.2344 370.703 35.6719 370.484 34.2031C370.266 32.7344 370 31.4219 369.688 30.2656C369.375 29.1094 368.984 28.25 368.516 27.6875C369.766 27.5625 371.172 27.2031 372.734 26.6094C374.297 26.0156 375.797 25.2656 377.234 24.3594C378.703 23.4531 380.016 22.4062 381.172 21.2188C382.359 20 383.203 18.7188 383.703 17.375C384.109 17.5938 384.656 17.7969 385.344 17.9844C386.062 18.1719 386.859 18.3438 387.734 18.5C388.641 18.6562 389.609 18.7812 390.641 18.875C391.703 18.9688 392.781 19.0156 393.875 19.0156C395.219 19.0156 396.531 18.9531 397.812 18.8281C399.094 18.7031 400.281 18.5312 401.375 18.3125C402.469 18.0938 403.438 17.8281 404.281 17.5156C405.156 17.1719 405.828 16.8125 406.297 16.4375C406.734 17.0312 407.328 17.5781 408.078 18.0781C408.828 18.5469 409.688 18.9688 410.656 19.3438C411.625 19.6875 412.672 19.9531 413.797 20.1406C414.922 20.3281 416.078 20.4219 417.266 20.4219C418.922 20.4219 420.156 20.3594 420.969 20.2344C421.781 20.0781 422.422 19.9375 422.891 19.8125C422.516 20.8125 422.219 22.1719 422 23.8906C421.812 25.6094 421.719 27.3438 421.719 29.0938C421.719 30.0312 421.734 30.9844 421.766 31.9531C421.828 32.8906 421.906 33.7812 422 34.625C422.125 35.4688 422.25 36.2344 422.375 36.9219C422.531 37.5781 422.703 38.0938 422.891 38.4688C422.109 38.0938 421.078 37.8281 419.797 37.6719C418.516 37.4844 416.984 37.3906 415.203 37.3906C413.422 37.3906 411.844 37.4844 410.469 37.6719C409.094 37.8281 407.938 38.0938 407 38.4688C406.75 35.1562 406.016 32.6719 404.797 31.0156C403.578 29.3281 401.672 28.4844 399.078 28.4844C397.797 28.4844 396.594 28.6875 395.469 29.0938C394.344 29.5 393.359 30.25 392.516 31.3438C391.703 32.4062 391.047 33.8594 390.547 35.7031C390.078 37.5469 389.844 39.9062 389.844 42.7812C389.844 46.0312 390.062 48.6562 390.5 50.6562C390.969 52.625 391.578 54.1719 392.328 55.2969C393.109 56.3906 394.031 57.125 395.094 57.5C396.156 57.875 397.297 58.0625 398.516 58.0625C400.141 58.0625 401.5 57.7812 402.594 57.2188C403.688 56.625 404.562 55.8594 405.219 54.9219C405.875 53.9844 406.359 52.9062 406.672 51.6875C406.984 50.4375 407.188 49.1562 407.281 47.8438C408.375 48.25 409.641 48.5312 411.078 48.6875C412.547 48.8125 414.031 48.875 415.531 48.875C416.875 48.875 418.172 48.8125 419.422 48.6875C420.703 48.5312 421.859 48.25 422.891 47.8438C422.734 48.3125 422.594 48.8906 422.469 49.5781C422.344 50.2344 422.234 50.9219 422.141 51.6406C422.078 52.3281 422.031 53.0156 422 53.7031C421.969 54.3906 421.953 55 421.953 55.5312C421.953 56.5 421.969 57.3594 422 58.1094C422.062 58.8281 422.141 59.4844 422.234 60.0781C422.328 60.6719 422.422 61.2188 422.516 61.7188C422.641 62.2188 422.766 62.7031 422.891 63.1719C422.641 63.1406 422.391 63.125 422.141 63.125C421.891 63.0938 421.641 63.0781 421.391 63.0781C420.078 63.0781 418.672 63.2344 417.172 63.5469C415.703 63.8594 414.25 64.2656 412.812 64.7656C411.406 65.2656 410.062 65.8438 408.781 66.5C407.531 67.125 406.484 67.7812 405.641 68.4688C404.734 68.0938 403.516 67.7344 401.984 67.3906C400.484 67.0156 398.844 66.8281 397.062 66.8281C395.938 66.8281 394.797 66.875 393.641 66.9688C392.484 67.0625 391.391 67.2031 390.359 67.3906C389.328 67.5469 388.375 67.7188 387.5 67.9062C386.625 68.0938 385.891 68.2812 385.297 68.4688C385.172 67.9375 384.797 67.3594 384.172 66.7344C383.578 66.1094 382.812 65.5 381.875 64.9062C380.969 64.2812 379.953 63.6875 378.828 63.125C377.703 62.5625 376.562 62.0625 375.406 61.625C374.25 61.1875 373.109 60.8438 371.984 60.5938C370.891 60.3438 369.906 60.2188 369.031 60.2188H368.516ZM437 58.3438C438.031 57.0938 438.719 55.5 439.062 53.5625C439.406 51.625 439.578 49.2969 439.578 46.5781V33.0312C439.547 32.4688 439.453 31.9688 439.297 31.5312C439.172 31.0625 438.938 30.6719 438.594 30.3594C438.281 30.0156 437.844 29.75 437.281 29.5625C436.719 29.375 436.016 29.2812 435.172 29.2812C434.703 29.2812 434.188 29.3125 433.625 29.375C433.094 29.4375 432.484 29.5312 431.797 29.6562C431.953 28.75 432.062 27.7656 432.125 26.7031C432.188 25.6406 432.219 24.5625 432.219 23.4688C432.219 22.4688 432.188 21.4844 432.125 20.5156C432.062 19.5469 431.953 18.6562 431.797 17.8438C432.109 18.0625 432.5 18.25 432.969 18.4062C433.438 18.5312 433.906 18.6406 434.375 18.7344C434.844 18.8281 435.281 18.9062 435.688 18.9688C436.094 19 436.406 19.0156 436.625 19.0156C437.531 19.0156 438.203 18.6719 438.641 17.9844C439.109 17.2656 439.344 16.0312 439.344 14.2812C439.344 14 439.328 13.6094 439.297 13.1094C439.297 12.6094 439.281 12.0938 439.25 11.5625C439.219 11.0312 439.156 10.5312 439.062 10.0625C439 9.59375 438.906 9.23438 438.781 8.98438C439.031 9.04688 439.281 9.07812 439.531 9.07812C439.781 9.07812 440.047 9.07812 440.328 9.07812C441.922 9.07812 443.594 8.8125 445.344 8.28125C447.125 7.75 448.844 7.17188 450.5 6.54688C452.188 5.92188 453.75 5.34375 455.188 4.8125C456.625 4.28125 457.812 4.01562 458.75 4.01562C458.5 4.76562 458.297 5.59375 458.141 6.5C457.984 7.40625 457.859 8.3125 457.766 9.21875C457.672 10.125 457.594 11.0156 457.531 11.8906C457.5 12.7344 457.484 13.4531 457.484 14.0469C457.484 15.0781 457.609 15.9219 457.859 16.5781C458.109 17.2031 458.547 17.7031 459.172 18.0781C459.828 18.4219 460.719 18.6719 461.844 18.8281C463 18.9531 464.469 19.0156 466.25 19.0156C467 19.0156 467.875 19.0156 468.875 19.0156C469.906 18.9844 470.969 18.9375 472.062 18.875C473.156 18.7812 474.234 18.6562 475.297 18.5C476.391 18.3438 477.391 18.125 478.297 17.8438C477.984 18.6562 477.766 19.6094 477.641 20.7031C477.516 21.7969 477.453 22.9219 477.453 24.0781C477.453 25.3906 477.516 26.6094 477.641 27.7344C477.766 28.8594 477.984 29.8594 478.297 30.7344C477.234 30.6406 476.062 30.5312 474.781 30.4062C473.531 30.2812 472.281 30.1719 471.031 30.0781C469.781 29.9531 468.625 29.8594 467.562 29.7969C466.5 29.7031 465.641 29.6562 464.984 29.6562C463.422 29.6562 462.125 29.7344 461.094 29.8906C460.094 30.0156 459.297 30.2344 458.703 30.5469C458.109 30.8281 457.688 31.2031 457.438 31.6719C457.219 32.1094 457.109 32.625 457.109 33.2188V45.7812C457.109 47 457.172 48.2969 457.297 49.6719C457.453 51.0156 457.719 52.2656 458.094 53.4219C458.469 54.5781 458.984 55.5469 459.641 56.3281C460.297 57.0781 461.141 57.4531 462.172 57.4531C463.297 57.4531 464.234 57.2344 464.984 56.7969C465.766 56.3281 466.391 55.6875 466.859 54.875C467.328 54.0625 467.656 53.1094 467.844 52.0156C468.062 50.8906 468.172 49.6562 468.172 48.3125C468.859 48.4688 469.781 48.625 470.938 48.7812C472.094 48.9375 473.281 49.0156 474.5 49.0156C475.688 49.0156 476.797 48.9375 477.828 48.7812C478.891 48.625 479.703 48.4688 480.266 48.3125C480.016 49 479.828 49.9688 479.703 51.2188C479.609 52.4375 479.562 53.75 479.562 55.1562C479.562 56.5625 479.609 57.875 479.703 59.0938C479.797 60.3125 479.984 61.2188 480.266 61.8125H479.797C478.641 61.8125 477.391 62 476.047 62.375C474.734 62.7188 473.469 63.1875 472.25 63.7812C471.031 64.375 469.906 65.0469 468.875 65.7969C467.875 66.5156 467.109 67.25 466.578 68C466.328 67.8125 465.844 67.6562 465.125 67.5312C464.438 67.375 463.625 67.25 462.688 67.1562C461.781 67.0312 460.812 66.9531 459.781 66.9219C458.75 66.8594 457.766 66.8281 456.828 66.8281C455.891 66.8281 454.906 66.8594 453.875 66.9219C452.875 66.9531 451.891 67.0312 450.922 67.1562C449.953 67.25 449.062 67.375 448.25 67.5312C447.469 67.6562 446.844 67.8125 446.375 68C446.094 66.9062 445.656 65.8438 445.062 64.8125C444.5 63.75 443.812 62.7812 443 61.9062C442.188 61.0312 441.266 60.2812 440.234 59.6562C439.234 59.0312 438.156 58.5938 437 58.3438ZM136.672 188C136.859 187.219 137.016 186.281 137.141 185.188C137.297 184.062 137.375 182.906 137.375 181.719C137.375 180.625 137.297 179.562 137.141 178.531C136.984 177.469 136.828 176.562 136.672 175.812C138.078 175.812 139.312 175.703 140.375 175.484C141.438 175.266 142.328 174.906 143.047 174.406C143.766 173.875 144.297 173.172 144.641 172.297C145.016 171.391 145.203 170.266 145.203 168.922C145.203 166.078 145.125 163.703 144.969 161.797C144.844 159.891 144.641 158.359 144.359 157.203C144.109 156.016 143.781 155.156 143.375 154.625C142.969 154.062 142.5 153.703 141.969 153.547C142.531 153.359 143.016 153.031 143.422 152.562C143.828 152.062 144.156 151.266 144.406 150.172C144.688 149.078 144.891 147.625 145.016 145.812C145.141 143.969 145.203 141.609 145.203 138.734C145.203 137.484 145 136.469 144.594 135.688C144.188 134.906 143.641 134.297 142.953 133.859C142.266 133.391 141.453 133.078 140.516 132.922C139.609 132.766 138.625 132.688 137.562 132.688H136.672C136.828 131.938 136.984 131.078 137.141 130.109C137.297 129.109 137.375 128.062 137.375 126.969C137.375 125.812 137.297 124.641 137.141 123.453C137.016 122.266 136.859 121.281 136.672 120.5C137.891 120.938 139.625 121.328 141.875 121.672C144.125 121.984 147.047 122.141 150.641 122.141C152.984 122.141 155.266 122.016 157.484 121.766C159.703 121.484 161.75 121.172 163.625 120.828C163.625 122.328 163.938 124.031 164.562 125.938C165.188 127.844 166.031 129.844 167.094 131.938C168.156 134.031 169.359 136.172 170.703 138.359C172.078 140.516 173.5 142.609 174.969 144.641C176.469 146.672 177.953 148.594 179.422 150.406C180.922 152.188 182.312 153.75 183.594 155.094C184.906 156.406 186.047 157.453 187.016 158.234C187.984 159.016 188.703 159.406 189.172 159.406H189.266C189.297 159.406 189.328 159.422 189.359 159.453C189.422 159.453 189.484 159.453 189.547 159.453C189.797 158.516 189.984 157.328 190.109 155.891C190.266 154.453 190.375 152.828 190.438 151.016C190.531 149.203 190.594 147.266 190.625 145.203C190.656 143.109 190.672 140.953 190.672 138.734C190.672 137.484 190.469 136.469 190.062 135.688C189.656 134.906 189.109 134.297 188.422 133.859C187.734 133.391 186.922 133.078 185.984 132.922C185.078 132.766 184.094 132.688 183.031 132.688H182.141C182.297 131.938 182.453 131.078 182.609 130.109C182.766 129.109 182.844 128.062 182.844 126.969C182.844 125.812 182.766 124.641 182.609 123.453C182.484 122.266 182.328 121.281 182.141 120.5C182.734 120.719 183.672 120.922 184.953 121.109C186.234 121.297 187.703 121.469 189.359 121.625C191.016 121.781 192.766 121.906 194.609 122C196.484 122.094 198.312 122.141 200.094 122.141C201.906 122.141 203.734 122.094 205.578 122C207.453 121.906 209.203 121.781 210.828 121.625C212.484 121.469 213.938 121.297 215.188 121.109C216.438 120.922 217.375 120.719 218 120.5C217.812 121.281 217.641 122.266 217.484 123.453C217.359 124.641 217.297 125.812 217.297 126.969C217.297 128.062 217.375 129.109 217.531 130.109C217.688 131.078 217.844 131.938 218 132.688H217.016C215.891 132.688 214.859 132.766 213.922 132.922C212.984 133.078 212.188 133.391 211.531 133.859C210.875 134.297 210.359 134.906 209.984 135.688C209.641 136.469 209.469 137.484 209.469 138.734C209.469 141.609 209.547 143.984 209.703 145.859C209.891 147.734 210.141 149.234 210.453 150.359C210.797 151.484 211.188 152.281 211.625 152.75C212.094 153.219 212.609 153.484 213.172 153.547C212.641 153.828 212.172 154.266 211.766 154.859C211.359 155.453 211.016 156.391 210.734 157.672C210.484 158.953 210.281 160.656 210.125 162.781C210 164.906 209.938 167.641 209.938 170.984C209.938 173.234 210.031 175.297 210.219 177.172C210.406 179.016 210.625 180.656 210.875 182.094C211.156 183.5 211.453 184.703 211.766 185.703C212.078 186.672 212.359 187.438 212.609 188C211.828 187.75 210.953 187.547 209.984 187.391C209.016 187.234 208.031 187.125 207.031 187.062C206.031 186.969 205.062 186.906 204.125 186.875C203.188 186.844 202.375 186.828 201.688 186.828C200.938 186.828 200.094 186.844 199.156 186.875C198.219 186.906 197.25 186.969 196.25 187.062C195.281 187.125 194.297 187.234 193.297 187.391C192.297 187.547 191.375 187.75 190.531 188C190.531 186.438 190.078 184.578 189.172 182.422C188.297 180.266 187.125 178 185.656 175.625C184.219 173.25 182.578 170.844 180.734 168.406C178.922 165.969 177.078 163.672 175.203 161.516C173.359 159.328 171.578 157.375 169.859 155.656C168.141 153.906 166.672 152.547 165.453 151.578C164.859 152.984 164.469 155.188 164.281 158.188C164.094 161.188 164 164.766 164 168.922C164 170.266 164.141 171.391 164.422 172.297C164.734 173.172 165.234 173.875 165.922 174.406C166.609 174.906 167.484 175.266 168.547 175.484C169.641 175.703 170.969 175.812 172.531 175.812C172.375 176.562 172.219 177.469 172.062 178.531C171.906 179.562 171.828 180.625 171.828 181.719C171.828 182.906 171.891 184.062 172.016 185.188C172.172 186.281 172.344 187.219 172.531 188C171.625 187.812 170.484 187.656 169.109 187.531C167.734 187.375 166.234 187.25 164.609 187.156C162.984 187.031 161.312 186.953 159.594 186.922C157.875 186.859 156.219 186.828 154.625 186.828C153.031 186.828 151.359 186.859 149.609 186.922C147.891 186.953 146.219 187.031 144.594 187.156C142.969 187.25 141.453 187.375 140.047 187.531C138.672 187.656 137.547 187.812 136.672 188ZM223.484 181.109C223.891 180.391 224.188 179.562 224.375 178.625C224.562 177.688 224.656 176.734 224.656 175.766C224.656 174.766 224.547 173.766 224.328 172.766C224.109 171.766 223.828 170.953 223.484 170.328C224.328 170.047 225.078 169.594 225.734 168.969C226.422 168.344 227 167.641 227.469 166.859C227.969 166.078 228.375 165.281 228.688 164.469C229 163.656 229.203 162.906 229.297 162.219C229.453 162.281 229.625 162.312 229.812 162.312C230 162.312 230.203 162.312 230.422 162.312C232.734 162.312 235.531 162.094 238.812 161.656C242.094 161.219 245.641 160.641 249.453 159.922C251.234 159.578 252.703 159.156 253.859 158.656C255.016 158.156 255.938 157.594 256.625 156.969C257.312 156.312 257.781 155.609 258.031 154.859C258.312 154.109 258.453 153.312 258.453 152.469C258.453 150.938 258.062 149.766 257.281 148.953C256.531 148.109 255.219 147.688 253.344 147.688C250.875 147.688 249.047 148.312 247.859 149.562C246.703 150.781 246.125 152.797 246.125 155.609C245.094 155.359 243.844 155.188 242.375 155.094C240.906 154.969 239.281 154.906 237.5 154.906C236.594 154.906 235.672 154.922 234.734 154.953C233.828 154.984 232.938 155.031 232.062 155.094C231.188 155.125 230.375 155.188 229.625 155.281C228.875 155.375 228.234 155.484 227.703 155.609C227.891 154.641 228.047 153.547 228.172 152.328C228.328 151.109 228.406 149.688 228.406 148.062C228.406 147.531 228.391 147.047 228.359 146.609C228.359 146.141 228.328 145.688 228.266 145.25C228.234 144.812 228.172 144.359 228.078 143.891C227.984 143.391 227.859 142.844 227.703 142.25C229.016 142.25 230.453 142.125 232.016 141.875C233.578 141.594 235.094 141.234 236.562 140.797C238.062 140.359 239.422 139.844 240.641 139.25C241.859 138.656 242.797 138.031 243.453 137.375C244.016 137.656 244.562 137.906 245.094 138.125C245.625 138.312 246.234 138.484 246.922 138.641C247.609 138.766 248.406 138.859 249.312 138.922C250.219 138.984 251.312 139.016 252.594 139.016C255.531 139.016 258.031 138.875 260.094 138.594C262.188 138.281 263.688 137.875 264.594 137.375C265.094 138.312 265.812 139.203 266.75 140.047C267.688 140.891 268.703 141.625 269.797 142.25C270.922 142.844 272.047 143.328 273.172 143.703C274.328 144.047 275.375 144.219 276.312 144.219H276.734C276.453 144.906 276.219 145.859 276.031 147.078C275.844 148.297 275.688 149.672 275.562 151.203C275.438 152.703 275.344 154.297 275.281 155.984C275.219 157.672 275.156 159.344 275.094 161C275.062 162.625 275.047 164.156 275.047 165.594C275.047 167.031 275.047 168.25 275.047 169.25C275.047 170.531 275.156 171.578 275.375 172.391C275.594 173.172 276.016 173.781 276.641 174.219C277.297 174.656 278.203 174.953 279.359 175.109C280.547 175.266 282.078 175.344 283.953 175.344C283.828 175.719 283.703 176.188 283.578 176.75C283.484 177.281 283.391 177.859 283.297 178.484C283.203 179.109 283.125 179.734 283.062 180.359C283.031 180.984 283.016 181.562 283.016 182.094C283.016 184.531 283.328 186.5 283.953 188C283.203 187.656 281.984 187.375 280.297 187.156C278.609 186.938 276.766 186.828 274.766 186.828C272.516 186.828 270.516 186.938 268.766 187.156C267.047 187.375 265.688 187.656 264.688 188C264.438 186.281 263.953 184.906 263.234 183.875C262.547 182.844 261.844 182.031 261.125 181.438C260.031 181.781 259.031 182.25 258.125 182.844C257.219 183.406 256.406 184.031 255.688 184.719C255 185.375 254.438 186.047 254 186.734C253.562 187.391 253.281 187.969 253.156 188.469C252.438 188.281 251.781 188.094 251.188 187.906C250.625 187.719 250.047 187.547 249.453 187.391C248.859 187.203 248.219 187.062 247.531 186.969C246.844 186.875 246.031 186.828 245.094 186.828C244.125 186.828 243.094 186.875 242 186.969C240.938 187.062 239.875 187.203 238.812 187.391C237.75 187.547 236.75 187.719 235.812 187.906C234.906 188.094 234.125 188.281 233.469 188.469C232.938 187.594 232.281 186.734 231.5 185.891C230.719 185.016 229.875 184.234 228.969 183.547C228.094 182.828 227.172 182.25 226.203 181.812C225.266 181.375 224.359 181.141 223.484 181.109ZM243.641 172.391C243.641 173.141 243.797 173.812 244.109 174.406C244.422 174.969 244.812 175.453 245.281 175.859C245.781 176.234 246.328 176.531 246.922 176.75C247.516 176.938 248.094 177.031 248.656 177.031C249.688 177.031 250.734 176.828 251.797 176.422C252.891 176.016 253.891 175.375 254.797 174.5C255.703 173.594 256.469 172.422 257.094 170.984C257.719 169.547 258.094 167.797 258.219 165.734C255.531 165.797 253.25 165.984 251.375 166.297C249.531 166.578 248.031 167 246.875 167.562C245.719 168.094 244.891 168.766 244.391 169.578C243.891 170.391 243.641 171.328 243.641 172.391ZM293.281 178.344C294.312 177.094 295 175.5 295.344 173.562C295.688 171.625 295.859 169.297 295.859 166.578V153.031C295.828 152.469 295.734 151.969 295.578 151.531C295.453 151.062 295.219 150.672 294.875 150.359C294.562 150.016 294.125 149.75 293.562 149.562C293 149.375 292.297 149.281 291.453 149.281C290.984 149.281 290.469 149.312 289.906 149.375C289.375 149.438 288.766 149.531 288.078 149.656C288.234 148.75 288.344 147.766 288.406 146.703C288.469 145.641 288.5 144.562 288.5 143.469C288.5 142.469 288.469 141.484 288.406 140.516C288.344 139.547 288.234 138.656 288.078 137.844C288.391 138.062 288.781 138.25 289.25 138.406C289.719 138.531 290.188 138.641 290.656 138.734C291.125 138.828 291.562 138.906 291.969 138.969C292.375 139 292.688 139.016 292.906 139.016C293.812 139.016 294.484 138.672 294.922 137.984C295.391 137.266 295.625 136.031 295.625 134.281C295.625 134 295.609 133.609 295.578 133.109C295.578 132.609 295.562 132.094 295.531 131.562C295.5 131.031 295.438 130.531 295.344 130.062C295.281 129.594 295.188 129.234 295.062 128.984C295.312 129.047 295.562 129.078 295.812 129.078C296.062 129.078 296.328 129.078 296.609 129.078C298.203 129.078 299.875 128.812 301.625 128.281C303.406 127.75 305.125 127.172 306.781 126.547C308.469 125.922 310.031 125.344 311.469 124.812C312.906 124.281 314.094 124.016 315.031 124.016C314.781 124.766 314.578 125.594 314.422 126.5C314.266 127.406 314.141 128.312 314.047 129.219C313.953 130.125 313.875 131.016 313.812 131.891C313.781 132.734 313.766 133.453 313.766 134.047C313.766 135.078 313.891 135.922 314.141 136.578C314.391 137.203 314.828 137.703 315.453 138.078C316.109 138.422 317 138.672 318.125 138.828C319.281 138.953 320.75 139.016 322.531 139.016C323.281 139.016 324.156 139.016 325.156 139.016C326.188 138.984 327.25 138.938 328.344 138.875C329.438 138.781 330.516 138.656 331.578 138.5C332.672 138.344 333.672 138.125 334.578 137.844C334.266 138.656 334.047 139.609 333.922 140.703C333.797 141.797 333.734 142.922 333.734 144.078C333.734 145.391 333.797 146.609 333.922 147.734C334.047 148.859 334.266 149.859 334.578 150.734C333.516 150.641 332.344 150.531 331.062 150.406C329.812 150.281 328.562 150.172 327.312 150.078C326.062 149.953 324.906 149.859 323.844 149.797C322.781 149.703 321.922 149.656 321.266 149.656C319.703 149.656 318.406 149.734 317.375 149.891C316.375 150.016 315.578 150.234 314.984 150.547C314.391 150.828 313.969 151.203 313.719 151.672C313.5 152.109 313.391 152.625 313.391 153.219V165.781C313.391 167 313.453 168.297 313.578 169.672C313.734 171.016 314 172.266 314.375 173.422C314.75 174.578 315.266 175.547 315.922 176.328C316.578 177.078 317.422 177.453 318.453 177.453C319.578 177.453 320.516 177.234 321.266 176.797C322.047 176.328 322.672 175.688 323.141 174.875C323.609 174.062 323.938 173.109 324.125 172.016C324.344 170.891 324.453 169.656 324.453 168.312C325.141 168.469 326.062 168.625 327.219 168.781C328.375 168.938 329.562 169.016 330.781 169.016C331.969 169.016 333.078 168.938 334.109 168.781C335.172 168.625 335.984 168.469 336.547 168.312C336.297 169 336.109 169.969 335.984 171.219C335.891 172.438 335.844 173.75 335.844 175.156C335.844 176.562 335.891 177.875 335.984 179.094C336.078 180.312 336.266 181.219 336.547 181.812H336.078C334.922 181.812 333.672 182 332.328 182.375C331.016 182.719 329.75 183.188 328.531 183.781C327.312 184.375 326.188 185.047 325.156 185.797C324.156 186.516 323.391 187.25 322.859 188C322.609 187.812 322.125 187.656 321.406 187.531C320.719 187.375 319.906 187.25 318.969 187.156C318.062 187.031 317.094 186.953 316.062 186.922C315.031 186.859 314.047 186.828 313.109 186.828C312.172 186.828 311.188 186.859 310.156 186.922C309.156 186.953 308.172 187.031 307.203 187.156C306.234 187.25 305.344 187.375 304.531 187.531C303.75 187.656 303.125 187.812 302.656 188C302.375 186.906 301.938 185.844 301.344 184.812C300.781 183.75 300.094 182.781 299.281 181.906C298.469 181.031 297.547 180.281 296.516 179.656C295.516 179.031 294.438 178.594 293.281 178.344ZM346.062 132.453C346.25 132.109 346.422 131.594 346.578 130.906C346.766 130.219 346.906 129.422 347 128.516C347.125 127.609 347.219 126.641 347.281 125.609C347.375 124.547 347.422 123.469 347.422 122.375C347.422 121.375 347.375 120.406 347.281 119.469C347.219 118.5 347.125 117.609 347 116.797C346.875 115.953 346.719 115.203 346.531 114.547C346.375 113.891 346.203 113.375 346.016 113C346.578 113.188 347.312 113.375 348.219 113.562C349.156 113.719 350.188 113.859 351.312 113.984C352.469 114.109 353.672 114.219 354.922 114.312C356.203 114.375 357.453 114.406 358.672 114.406C359.797 114.406 361.016 114.391 362.328 114.359C363.672 114.297 364.953 114.203 366.172 114.078C367.422 113.953 368.547 113.812 369.547 113.656C370.547 113.469 371.297 113.25 371.797 113C371.609 113.406 371.438 113.938 371.281 114.594C371.156 115.25 371.031 116 370.906 116.844C370.812 117.656 370.734 118.547 370.672 119.516C370.641 120.453 370.625 121.406 370.625 122.375C370.625 123.375 370.641 124.359 370.672 125.328C370.734 126.297 370.812 127.234 370.906 128.141C371.031 129.016 371.156 129.828 371.281 130.578C371.438 131.328 371.609 131.953 371.797 132.453C371.297 132.297 370.562 132.172 369.594 132.078C368.656 131.953 367.578 131.859 366.359 131.797C365.172 131.703 363.922 131.641 362.609 131.609C361.297 131.547 360.031 131.516 358.812 131.516C357.594 131.516 356.344 131.547 355.062 131.609C353.781 131.641 352.547 131.703 351.359 131.797C350.203 131.859 349.156 131.953 348.219 132.078C347.281 132.172 346.562 132.297 346.062 132.453ZM342.312 188C342.562 187.188 342.734 186.219 342.828 185.094C342.922 183.969 342.969 182.859 342.969 181.766C342.969 180.766 342.906 179.766 342.781 178.766C342.656 177.766 342.5 176.781 342.312 175.812C344.062 175.812 345.594 175.734 346.906 175.578C348.25 175.422 349.359 175.156 350.234 174.781C351.141 174.375 351.812 173.812 352.25 173.094C352.719 172.375 352.953 171.453 352.953 170.328V157.297C352.922 155.953 352.672 154.891 352.203 154.109C351.766 153.297 351.172 152.688 350.422 152.281C349.672 151.844 348.797 151.562 347.797 151.438C346.828 151.281 345.797 151.203 344.703 151.203H343.203C343.453 150.578 343.672 149.719 343.859 148.625C344.047 147.5 344.141 146.328 344.141 145.109C344.141 143.922 344.047 142.781 343.859 141.688C343.703 140.562 343.484 139.672 343.203 139.016C345.859 139.141 348.328 139.234 350.609 139.297C352.922 139.359 355.094 139.391 357.125 139.391C360.906 139.391 364.172 139.25 366.922 138.969C369.672 138.656 372.031 138.125 374 137.375C373.375 138.594 372.828 139.766 372.359 140.891C371.891 141.984 371.484 143.156 371.141 144.406C370.828 145.625 370.578 146.969 370.391 148.438C370.234 149.906 370.156 151.594 370.156 153.5L370.109 170.328C370.109 171.453 370.344 172.375 370.812 173.094C371.312 173.812 371.984 174.375 372.828 174.781C373.672 175.156 374.672 175.422 375.828 175.578C376.984 175.734 378.234 175.812 379.578 175.812C379.391 176.469 379.234 177.281 379.109 178.25C379.016 179.219 378.969 180.25 378.969 181.344C378.969 182.531 379 183.734 379.062 184.953C379.156 186.141 379.328 187.156 379.578 188C378.734 187.844 377.578 187.703 376.109 187.578C374.641 187.422 373.031 187.297 371.281 187.203C369.562 187.078 367.75 186.984 365.844 186.922C363.969 186.859 362.188 186.828 360.5 186.828C359 186.828 357.359 186.859 355.578 186.922C353.828 186.953 352.094 187.031 350.375 187.156C348.688 187.25 347.125 187.375 345.688 187.531C344.25 187.656 343.125 187.812 342.312 188ZM402.359 188C402.391 187.781 402.406 187.531 402.406 187.25C402.438 186.938 402.453 186.656 402.453 186.406C402.453 185.062 402.188 183.453 401.656 181.578C401.125 179.703 400.328 177.672 399.266 175.484C398.172 173.234 397.031 171.453 395.844 170.141C394.656 168.828 393.484 168 392.328 167.656C392.859 167.469 393.125 166.969 393.125 166.156C393.125 165.75 393.094 165.203 393.031 164.516C393 163.797 392.859 162.984 392.609 162.078C392.359 161.141 391.984 160.125 391.484 159.031C390.984 157.938 390.266 156.797 389.328 155.609C388.797 154.922 388.219 154.281 387.594 153.688C387 153.062 386.281 152.516 385.438 152.047C384.625 151.578 383.672 151.203 382.578 150.922C381.484 150.641 380.188 150.5 378.688 150.5C378.844 149.594 378.984 148.609 379.109 147.547C379.203 146.453 379.25 145.25 379.25 143.938C379.25 142.781 379.203 141.672 379.109 140.609C379.016 139.516 378.875 138.594 378.688 137.844C379.156 138.031 379.969 138.203 381.125 138.359C382.312 138.484 383.719 138.594 385.344 138.688C386.969 138.781 388.719 138.859 390.594 138.922C392.469 138.984 394.344 139.016 396.219 139.016C398.219 139.016 400.141 139.016 401.984 139.016C403.828 138.984 405.531 138.938 407.094 138.875C408.688 138.781 410.094 138.656 411.312 138.5C412.562 138.344 413.562 138.125 414.312 137.844C414.125 138.625 413.984 139.469 413.891 140.375C413.797 141.281 413.75 142.312 413.75 143.469C413.75 144.781 413.781 146.062 413.844 147.312C413.938 148.531 414.062 149.594 414.219 150.5C411.875 150.5 410.188 150.75 409.156 151.25C408.156 151.75 407.656 152.547 407.656 153.641C407.656 154.484 407.938 155.594 408.5 156.969C409.062 158.344 409.766 159.906 410.609 161.656C411.453 163.406 412.344 165.312 413.281 167.375C414.219 169.406 415.062 171.516 415.812 173.703C416.625 171.734 417.516 169.781 418.484 167.844C419.453 165.906 420.344 164.062 421.156 162.312C422 160.562 422.703 158.938 423.266 157.438C423.828 155.938 424.109 154.625 424.109 153.5C424.109 152.25 423.656 151.438 422.75 151.062C421.844 150.688 420.359 150.5 418.297 150.5C418.453 149.594 418.562 148.531 418.625 147.312C418.719 146.062 418.766 144.781 418.766 143.469C418.766 141.219 418.578 139.344 418.203 137.844C418.609 138.125 419.281 138.344 420.219 138.5C421.188 138.656 422.297 138.781 423.547 138.875C424.797 138.938 426.125 138.984 427.531 139.016C428.969 139.016 430.375 139.016 431.75 139.016C433.281 139.016 434.766 139 436.203 138.969C437.641 138.906 438.938 138.828 440.094 138.734C441.281 138.609 442.281 138.484 443.094 138.359C443.938 138.203 444.516 138.031 444.828 137.844C444.672 138.469 444.547 139.281 444.453 140.281C444.391 141.281 444.359 142.344 444.359 143.469C444.359 144.781 444.391 146.062 444.453 147.312C444.547 148.531 444.672 149.594 444.828 150.5C444.078 150.5 443.297 150.609 442.484 150.828C441.672 151.047 440.859 151.391 440.047 151.859C439.266 152.297 438.5 152.859 437.75 153.547C437.031 154.234 436.406 155.031 435.875 155.938C435.125 157.031 434.516 158.094 434.047 159.125C433.609 160.125 433.266 161.078 433.016 161.984C432.797 162.859 432.656 163.656 432.594 164.375C432.531 165.094 432.5 165.688 432.5 166.156C432.5 166.969 432.766 167.469 433.297 167.656C432.141 167.906 431 168.562 429.875 169.625C428.781 170.656 427.797 171.984 426.922 173.609C426.078 175.203 425.391 177.047 424.859 179.141C424.328 181.203 424.062 183.375 424.062 185.656C424.062 186.094 424.078 186.516 424.109 186.922C424.172 187.297 424.234 187.656 424.297 188C424.016 187.844 423.422 187.703 422.516 187.578C421.609 187.422 420.562 187.297 419.375 187.203C418.219 187.078 417.031 186.984 415.812 186.922C414.594 186.859 413.547 186.828 412.672 186.828C411.703 186.828 410.703 186.875 409.672 186.969C408.672 187.031 407.703 187.125 406.766 187.25C405.859 187.344 405.016 187.469 404.234 187.625C403.453 187.75 402.828 187.875 402.359 188ZM449.094 180.219C449.719 179.469 450.203 178.422 450.547 177.078C450.891 175.734 451.141 174.281 451.297 172.719C451.484 171.125 451.594 169.531 451.625 167.938C451.688 166.344 451.719 164.938 451.719 163.719C451.719 162.438 451.672 160.984 451.578 159.359C451.484 157.734 451.328 156.156 451.109 154.625C450.922 153.062 450.656 151.656 450.312 150.406C450 149.156 449.609 148.25 449.141 147.688C450.516 147.688 452.031 147.344 453.688 146.656C455.344 145.938 456.906 145.062 458.375 144.031C459.875 142.969 461.172 141.844 462.266 140.656C463.359 139.469 464.047 138.375 464.328 137.375C466.047 137.969 468.078 138.391 470.422 138.641C472.766 138.891 475.672 139.016 479.141 139.016C481.578 139.016 483.594 138.875 485.188 138.594C486.781 138.312 488.078 137.906 489.078 137.375C489.609 138.469 490.484 139.453 491.703 140.328C492.953 141.203 494.297 141.953 495.734 142.578C497.203 143.203 498.656 143.703 500.094 144.078C501.562 144.422 502.766 144.609 503.703 144.641C503.453 145.172 503.219 145.75 503 146.375C502.812 147 502.641 147.734 502.484 148.578C502.359 149.422 502.25 150.422 502.156 151.578C502.094 152.703 502.062 154.031 502.062 155.562C502.062 156.625 502.078 157.656 502.109 158.656C502.172 159.656 502.25 160.578 502.344 161.422C502.438 162.266 502.531 163.016 502.625 163.672C502.75 164.297 502.875 164.766 503 165.078C502.219 165.016 501.172 164.969 499.859 164.938C498.547 164.875 497.109 164.828 495.547 164.797C493.984 164.734 492.344 164.703 490.625 164.703C488.938 164.672 487.328 164.656 485.797 164.656C483.984 164.656 482.172 164.672 480.359 164.703C478.578 164.703 476.734 164.703 474.828 164.703C473.234 164.703 471.969 164.844 471.031 165.125C470.094 165.406 469.375 165.797 468.875 166.297C468.406 166.766 468.094 167.344 467.938 168.031C467.812 168.719 467.75 169.469 467.75 170.281C467.75 171.5 468.047 172.609 468.641 173.609C469.234 174.609 470.047 175.469 471.078 176.188C472.109 176.875 473.328 177.422 474.734 177.828C476.141 178.203 477.641 178.391 479.234 178.391C480.547 178.391 481.594 178.203 482.375 177.828C483.156 177.422 483.75 176.891 484.156 176.234C484.594 175.578 484.875 174.812 485 173.938C485.125 173.062 485.188 172.125 485.188 171.125C485.562 171.25 486.125 171.359 486.875 171.453C487.625 171.547 488.438 171.625 489.312 171.688C490.188 171.719 491.062 171.75 491.938 171.781C492.844 171.812 493.625 171.828 494.281 171.828C494.938 171.828 495.688 171.812 496.531 171.781C497.375 171.75 498.203 171.719 499.016 171.688C499.859 171.625 500.641 171.547 501.359 171.453C502.078 171.359 502.656 171.25 503.094 171.125C503.031 171.469 502.953 171.938 502.859 172.531C502.797 173.094 502.734 173.703 502.672 174.359C502.641 175.016 502.609 175.672 502.578 176.328C502.547 176.984 502.531 177.531 502.531 177.969C502.531 179.5 502.578 180.734 502.672 181.672C502.797 182.578 502.984 183.391 503.234 184.109H502.391C501.109 184.109 499.797 184.234 498.453 184.484C497.109 184.703 495.812 185.016 494.562 185.422C493.312 185.797 492.141 186.25 491.047 186.781C489.953 187.312 489.016 187.875 488.234 188.469C487.797 188.188 487.188 187.953 486.406 187.766C485.656 187.547 484.812 187.375 483.875 187.25C482.969 187.094 482 186.984 480.969 186.922C479.969 186.859 479 186.828 478.062 186.828C476.938 186.828 475.766 186.875 474.547 186.969C473.328 187.062 472.156 187.203 471.031 187.391C469.938 187.547 468.938 187.719 468.031 187.906C467.125 188.094 466.422 188.281 465.922 188.469C465.641 187.656 464.906 186.766 463.719 185.797C462.562 184.828 461.203 183.938 459.641 183.125C458.078 182.281 456.422 181.578 454.672 181.016C452.922 180.453 451.328 180.172 449.891 180.172C449.734 180.172 449.594 180.188 449.469 180.219C449.344 180.219 449.219 180.219 449.094 180.219ZM480.266 156.219C481.516 156.219 482.5 156.172 483.219 156.078C483.969 155.984 484.531 155.797 484.906 155.516C485.312 155.234 485.562 154.859 485.656 154.391C485.781 153.891 485.844 153.234 485.844 152.422C485.844 150.922 485.203 149.703 483.922 148.766C482.641 147.828 480.641 147.359 477.922 147.359C476.234 147.359 474.781 147.5 473.562 147.781C472.344 148.062 471.312 148.547 470.469 149.234C469.656 149.922 469.031 150.828 468.594 151.953C468.156 153.078 467.891 154.5 467.797 156.219H480.266ZM0.3125 308C0.5 307.219 0.65625 306.281 0.78125 305.188C0.9375 304.062 1.01562 302.906 1.01562 301.719C1.01562 300.625 0.9375 299.562 0.78125 298.531C0.625 297.469 0.46875 296.562 0.3125 295.812C1.71875 295.812 2.95312 295.703 4.01562 295.484C5.07812 295.266 5.96875 294.906 6.6875 294.406C7.40625 293.875 7.9375 293.172 8.28125 292.297C8.65625 291.391 8.84375 290.266 8.84375 288.922C8.84375 286.297 8.76562 284.047 8.60938 282.172C8.48438 280.297 8.28125 278.75 8 277.531C7.75 276.312 7.42188 275.391 7.01562 274.766C6.60938 274.109 6.14062 273.703 5.60938 273.547C6.17188 273.359 6.65625 273.062 7.0625 272.656C7.46875 272.25 7.79688 271.562 8.04688 270.594C8.32812 269.594 8.53125 268.234 8.65625 266.516C8.78125 264.766 8.84375 262.453 8.84375 259.578C8.84375 258.234 8.65625 257.125 8.28125 256.25C7.9375 255.344 7.40625 254.641 6.6875 254.141C5.96875 253.609 5.07812 253.234 4.01562 253.016C2.95312 252.797 1.71875 252.688 0.3125 252.688C0.46875 251.938 0.625 251.047 0.78125 250.016C0.9375 248.953 1.01562 247.875 1.01562 246.781C1.01562 245.594 0.9375 244.453 0.78125 243.359C0.65625 242.234 0.5 241.281 0.3125 240.5C0.71875 240.656 1.51562 240.812 2.70312 240.969C3.89062 241.125 5.28125 241.266 6.875 241.391C8.5 241.484 10.25 241.578 12.125 241.672C14 241.766 15.8438 241.859 17.6562 241.953C19.4688 242.016 21.1562 242.062 22.7188 242.094C24.3125 242.125 25.625 242.141 26.6562 242.141C29.25 242.141 31.7812 242.125 34.25 242.094C36.75 242.031 39.0469 241.938 41.1406 241.812C43.2344 241.688 45.0625 241.516 46.625 241.297C48.1875 241.078 49.3281 240.812 50.0469 240.5C50.0781 241.156 50.3281 241.859 50.7969 242.609C51.2656 243.328 51.875 244.062 52.625 244.812C53.4062 245.531 54.2656 246.234 55.2031 246.922C56.1406 247.609 57.0938 248.234 58.0625 248.797C59.0312 249.328 59.9688 249.766 60.875 250.109C61.7812 250.422 62.5781 250.594 63.2656 250.625C63.0469 251.031 62.8438 251.625 62.6562 252.406C62.5 253.156 62.3594 254.016 62.2344 254.984C62.1094 255.953 62.0156 256.953 61.9531 257.984C61.8906 259.016 61.8594 260 61.8594 260.938C61.8594 262.938 61.9531 264.812 62.1406 266.562C62.3594 268.281 62.7344 269.594 63.2656 270.5C61.9531 270.75 60.6406 271.25 59.3281 272C58.0156 272.75 56.7812 273.641 55.625 274.672C57.3125 275.672 59.1406 276.5 61.1094 277.156C63.0781 277.781 64.9219 278.219 66.6406 278.469C66.3906 278.875 66.1719 279.406 65.9844 280.062C65.7969 280.719 65.6406 281.453 65.5156 282.266C65.4219 283.078 65.3438 283.938 65.2812 284.844C65.25 285.75 65.2344 286.656 65.2344 287.562C65.2344 288.5 65.25 289.5 65.2812 290.562C65.3438 291.594 65.4375 292.594 65.5625 293.562C65.6875 294.5 65.8281 295.359 65.9844 296.141C66.1719 296.922 66.3906 297.5 66.6406 297.875C65.7656 297.906 64.75 298.078 63.5938 298.391C62.4688 298.703 61.2969 299.125 60.0781 299.656C58.8906 300.156 57.7031 300.734 56.5156 301.391C55.3594 302.047 54.2969 302.75 53.3281 303.5C52.3594 304.25 51.5469 305.016 50.8906 305.797C50.2344 306.547 49.8281 307.281 49.6719 308C49.2969 307.812 48.375 307.656 46.9062 307.531C45.4375 307.375 43.625 307.25 41.4688 307.156C39.3438 307.031 36.9844 306.953 34.3906 306.922C31.8281 306.859 29.25 306.828 26.6562 306.828C25.6562 306.828 24.3438 306.844 22.7188 306.875C21.0938 306.906 19.3438 306.953 17.4688 307.016C15.5938 307.078 13.6875 307.141 11.75 307.203C9.84375 307.266 8.07812 307.344 6.45312 307.438C4.85938 307.531 3.5 307.625 2.375 307.719C1.25 307.812 0.5625 307.906 0.3125 308ZM27.7344 268.438C28.1719 268.594 28.6094 268.734 29.0469 268.859C29.5156 268.953 30.0312 269.047 30.5938 269.141C31.1875 269.203 31.8594 269.25 32.6094 269.281C33.3594 269.312 34.2344 269.328 35.2344 269.328C36.7969 269.328 38.0781 269.094 39.0781 268.625C40.1094 268.156 40.9062 267.516 41.4688 266.703C42.0625 265.891 42.4688 264.938 42.6875 263.844C42.9375 262.719 43.0625 261.516 43.0625 260.234C43.0625 259.141 43 258.094 42.875 257.094C42.75 256.062 42.4375 255.156 41.9375 254.375C41.4375 253.562 40.7031 252.922 39.7344 252.453C38.7656 251.984 37.4219 251.75 35.7031 251.75C34.2969 251.75 32.8906 251.844 31.4844 252.031C30.0781 252.219 28.7969 252.562 27.6406 253.062C27.5156 253.938 27.4219 254.906 27.3594 255.969C27.3281 257 27.3125 258.062 27.3125 259.156C27.3125 260.812 27.3438 262.453 27.4062 264.078C27.5 265.672 27.6094 267.125 27.7344 268.438ZM27.6406 296.562C29.1406 296.969 30.6875 297.266 32.2812 297.453C33.9062 297.609 35.6719 297.688 37.5781 297.688C39.3594 297.688 40.8281 297.438 41.9844 296.938C43.1719 296.406 44.125 295.703 44.8438 294.828C45.5625 293.953 46.0625 292.922 46.3438 291.734C46.6562 290.547 46.8125 289.266 46.8125 287.891C46.8125 286.672 46.7188 285.5 46.5312 284.375C46.375 283.25 45.9844 282.25 45.3594 281.375C44.7656 280.5 43.8906 279.797 42.7344 279.266C41.5781 278.734 40.0156 278.469 38.0469 278.469C35.4531 278.469 33.3594 278.578 31.7656 278.797C30.1719 278.984 28.8125 279.328 27.6875 279.828C27.5312 280.891 27.4219 282.062 27.3594 283.344C27.2969 284.625 27.2656 285.969 27.2656 287.375C27.2656 289 27.2969 290.609 27.3594 292.203C27.4531 293.766 27.5469 295.219 27.6406 296.562ZM73.1562 300.219C73.5 299.719 73.8281 299.078 74.1406 298.297C74.4531 297.516 74.7188 296.5 74.9375 295.25C75.1875 293.969 75.375 292.406 75.5 290.562C75.6562 288.688 75.7344 286.406 75.7344 283.719C75.7344 280.906 75.6562 278.625 75.5 276.875C75.375 275.125 75.1875 273.703 74.9375 272.609C74.7188 271.484 74.4531 270.578 74.1406 269.891C73.8281 269.203 73.5156 268.531 73.2031 267.875C74.4531 267.75 75.875 267.391 77.4688 266.797C79.0625 266.172 80.5938 265.391 82.0625 264.453C83.5625 263.516 84.8906 262.438 86.0469 261.219C87.2031 260 87.9688 258.719 88.3438 257.375C88.9062 257.625 89.7188 257.859 90.7812 258.078C91.8438 258.266 93.0781 258.438 94.4844 258.594C95.8906 258.719 97.4219 258.828 99.0781 258.922C100.734 258.984 102.453 259.016 104.234 259.016C105.859 259.016 107.438 258.969 108.969 258.875C110.5 258.75 111.906 258.609 113.188 258.453C114.469 258.297 115.578 258.125 116.516 257.938C117.453 257.75 118.156 257.562 118.625 257.375C119 258.719 119.781 260 120.969 261.219C122.156 262.438 123.5 263.516 125 264.453C126.531 265.391 128.078 266.172 129.641 266.797C131.234 267.391 132.609 267.75 133.766 267.875C133.453 268.5 133.141 269.156 132.828 269.844C132.547 270.5 132.281 271.391 132.031 272.516C131.812 273.609 131.625 275.031 131.469 276.781C131.344 278.5 131.281 280.734 131.281 283.484C131.281 286.203 131.328 288.516 131.422 290.422C131.516 292.297 131.656 293.875 131.844 295.156C132.031 296.438 132.281 297.469 132.594 298.25C132.938 299.031 133.344 299.688 133.812 300.219C133.031 300.219 132.141 300.344 131.141 300.594C130.141 300.812 129.094 301.125 128 301.531C126.938 301.906 125.875 302.359 124.812 302.891C123.781 303.422 122.828 304 121.953 304.625C121.078 305.219 120.328 305.844 119.703 306.5C119.078 307.156 118.656 307.812 118.438 308.469C117.844 308.25 117.047 308.047 116.047 307.859C115.047 307.672 113.891 307.5 112.578 307.344C111.266 307.188 109.828 307.062 108.266 306.969C106.703 306.875 105.062 306.828 103.344 306.828C101.656 306.828 100.031 306.875 98.4688 306.969C96.9375 307.062 95.5156 307.188 94.2031 307.344C92.9219 307.469 91.7812 307.641 90.7812 307.859C89.8125 308.047 89.0625 308.25 88.5312 308.469C88 307.312 87.1094 306.234 85.8594 305.234C84.6094 304.234 83.2344 303.359 81.7344 302.609C80.2344 301.859 78.7031 301.281 77.1406 300.875C75.6094 300.438 74.2812 300.219 73.1562 300.219ZM94.4844 283.531C94.4844 286.188 94.6406 288.469 94.9531 290.375C95.2969 292.281 95.8438 293.844 96.5938 295.062C97.3438 296.281 98.3125 297.188 99.5 297.781C100.688 298.344 102.141 298.625 103.859 298.625C105.672 298.625 107.156 298.25 108.312 297.5C109.469 296.719 110.375 295.656 111.031 294.312C111.688 292.969 112.141 291.375 112.391 289.531C112.641 287.688 112.766 285.688 112.766 283.531C112.766 281.375 112.641 279.391 112.391 277.578C112.141 275.734 111.688 274.156 111.031 272.844C110.375 271.5 109.469 270.469 108.312 269.75C107.156 269 105.672 268.625 103.859 268.625C102.141 268.625 100.688 268.906 99.5 269.469C98.3125 270.031 97.3438 270.922 96.5938 272.141C95.8438 273.328 95.2969 274.859 94.9531 276.734C94.6406 278.609 94.4844 280.875 94.4844 283.531ZM145.766 252.453C145.953 252.109 146.125 251.594 146.281 250.906C146.469 250.219 146.609 249.422 146.703 248.516C146.828 247.609 146.922 246.641 146.984 245.609C147.078 244.547 147.125 243.469 147.125 242.375C147.125 241.375 147.078 240.406 146.984 239.469C146.922 238.5 146.828 237.609 146.703 236.797C146.578 235.953 146.422 235.203 146.234 234.547C146.078 233.891 145.906 233.375 145.719 233C146.281 233.188 147.016 233.375 147.922 233.562C148.859 233.719 149.891 233.859 151.016 233.984C152.172 234.109 153.375 234.219 154.625 234.312C155.906 234.375 157.156 234.406 158.375 234.406C159.5 234.406 160.719 234.391 162.031 234.359C163.375 234.297 164.656 234.203 165.875 234.078C167.125 233.953 168.25 233.812 169.25 233.656C170.25 233.469 171 233.25 171.5 233C171.312 233.406 171.141 233.938 170.984 234.594C170.859 235.25 170.734 236 170.609 236.844C170.516 237.656 170.438 238.547 170.375 239.516C170.344 240.453 170.328 241.406 170.328 242.375C170.328 243.375 170.344 244.359 170.375 245.328C170.438 246.297 170.516 247.234 170.609 248.141C170.734 249.016 170.859 249.828 170.984 250.578C171.141 251.328 171.312 251.953 171.5 252.453C171 252.297 170.266 252.172 169.297 252.078C168.359 251.953 167.281 251.859 166.062 251.797C164.875 251.703 163.625 251.641 162.312 251.609C161 251.547 159.734 251.516 158.516 251.516C157.297 251.516 156.047 251.547 154.766 251.609C153.484 251.641 152.25 251.703 151.062 251.797C149.906 251.859 148.859 251.953 147.922 252.078C146.984 252.172 146.266 252.297 145.766 252.453ZM142.016 308C142.266 307.188 142.438 306.219 142.531 305.094C142.625 303.969 142.672 302.859 142.672 301.766C142.672 300.766 142.609 299.766 142.484 298.766C142.359 297.766 142.203 296.781 142.016 295.812C143.766 295.812 145.297 295.734 146.609 295.578C147.953 295.422 149.062 295.156 149.938 294.781C150.844 294.375 151.516 293.812 151.953 293.094C152.422 292.375 152.656 291.453 152.656 290.328V277.297C152.625 275.953 152.375 274.891 151.906 274.109C151.469 273.297 150.875 272.688 150.125 272.281C149.375 271.844 148.5 271.562 147.5 271.438C146.531 271.281 145.5 271.203 144.406 271.203H142.906C143.156 270.578 143.375 269.719 143.562 268.625C143.75 267.5 143.844 266.328 143.844 265.109C143.844 263.922 143.75 262.781 143.562 261.688C143.406 260.562 143.188 259.672 142.906 259.016C145.562 259.141 148.031 259.234 150.312 259.297C152.625 259.359 154.797 259.391 156.828 259.391C160.609 259.391 163.875 259.25 166.625 258.969C169.375 258.656 171.734 258.125 173.703 257.375C173.078 258.594 172.531 259.766 172.062 260.891C171.594 261.984 171.188 263.156 170.844 264.406C170.531 265.625 170.281 266.969 170.094 268.438C169.938 269.906 169.859 271.594 169.859 273.5L169.812 290.328C169.812 291.453 170.047 292.375 170.516 293.094C171.016 293.812 171.688 294.375 172.531 294.781C173.375 295.156 174.375 295.422 175.531 295.578C176.688 295.734 177.938 295.812 179.281 295.812C179.094 296.469 178.938 297.281 178.812 298.25C178.719 299.219 178.672 300.25 178.672 301.344C178.672 302.531 178.703 303.734 178.766 304.953C178.859 306.141 179.031 307.156 179.281 308C178.438 307.844 177.281 307.703 175.812 307.578C174.344 307.422 172.734 307.297 170.984 307.203C169.266 307.078 167.453 306.984 165.547 306.922C163.672 306.859 161.891 306.828 160.203 306.828C158.703 306.828 157.062 306.859 155.281 306.922C153.531 306.953 151.797 307.031 150.078 307.156C148.391 307.25 146.828 307.375 145.391 307.531C143.953 307.656 142.828 307.812 142.016 308ZM183.969 308C184.219 307.188 184.391 306.219 184.484 305.094C184.578 303.969 184.625 302.859 184.625 301.766C184.625 300.766 184.562 299.766 184.438 298.766C184.312 297.766 184.156 296.781 183.969 295.812C185.719 295.812 187.156 295.734 188.281 295.578C189.438 295.422 190.344 295.156 191 294.781C191.656 294.375 192.109 293.812 192.359 293.094C192.609 292.375 192.734 291.453 192.734 290.328V282.453C192.734 281.453 192.672 280.453 192.547 279.453C192.453 278.453 192.281 277.547 192.031 276.734C191.781 275.922 191.438 275.234 191 274.672C190.594 274.078 190.094 273.703 189.5 273.547C190.156 273.359 190.688 273.109 191.094 272.797C191.531 272.453 191.859 272 192.078 271.438C192.328 270.875 192.5 270.172 192.594 269.328C192.688 268.453 192.734 267.391 192.734 266.141V251.281C192.703 249.938 192.531 248.875 192.219 248.094C191.906 247.281 191.469 246.672 190.906 246.266C190.375 245.828 189.703 245.547 188.891 245.422C188.109 245.266 187.219 245.188 186.219 245.188H184.766C185.016 244.562 185.234 243.703 185.422 242.609C185.609 241.484 185.703 240.312 185.703 239.094C185.703 237.906 185.609 236.766 185.422 235.672C185.266 234.547 185.047 233.656 184.766 233C185.359 233.094 186.078 233.172 186.922 233.234C187.766 233.297 188.688 233.359 189.688 233.422C190.688 233.453 191.75 233.484 192.875 233.516C194 233.547 195.156 233.562 196.344 233.562C197.938 233.562 199.547 233.531 201.172 233.469C202.797 233.406 204.344 233.312 205.812 233.188C207.312 233.062 208.688 232.891 209.938 232.672C211.219 232.453 212.281 232.172 213.125 231.828C212.469 233.047 211.953 234.406 211.578 235.906C211.203 237.406 210.906 239 210.688 240.688C210.469 242.375 210.328 244.141 210.266 245.984C210.203 247.828 210.172 249.703 210.172 251.609L210.125 266.234C210.125 267.484 210.172 268.547 210.266 269.422C210.391 270.266 210.578 270.969 210.828 271.531C211.078 272.094 211.406 272.531 211.812 272.844C212.219 273.156 212.734 273.391 213.359 273.547C212.703 273.734 212.156 274.125 211.719 274.719C211.312 275.281 210.984 275.969 210.734 276.781C210.516 277.594 210.359 278.5 210.266 279.5C210.172 280.469 210.125 281.453 210.125 282.453V290.328C210.125 291.453 210.328 292.375 210.734 293.094C211.141 293.812 211.719 294.375 212.469 294.781C213.25 295.156 214.172 295.422 215.234 295.578C216.328 295.734 217.547 295.812 218.891 295.812C218.703 296.469 218.547 297.281 218.422 298.25C218.328 299.219 218.281 300.25 218.281 301.344C218.281 302.531 218.312 303.734 218.375 304.953C218.469 306.141 218.641 307.156 218.891 308C218.047 307.844 216.906 307.703 215.469 307.578C214.062 307.422 212.516 307.297 210.828 307.203C209.141 307.078 207.375 306.984 205.531 306.922C203.719 306.859 201.969 306.828 200.281 306.828C198.781 306.828 197.234 306.859 195.641 306.922C194.078 306.953 192.562 307.031 191.094 307.156C189.656 307.25 188.312 307.375 187.062 307.531C185.812 307.656 184.781 307.812 183.969 308ZM225.172 300.219C225.797 299.469 226.281 298.422 226.625 297.078C226.969 295.734 227.219 294.281 227.375 292.719C227.562 291.125 227.672 289.531 227.703 287.938C227.766 286.344 227.797 284.938 227.797 283.719C227.797 282.438 227.75 280.984 227.656 279.359C227.562 277.734 227.406 276.156 227.188 274.625C227 273.062 226.734 271.656 226.391 270.406C226.078 269.156 225.688 268.25 225.219 267.688C226.594 267.688 228.109 267.344 229.766 266.656C231.422 265.938 232.984 265.062 234.453 264.031C235.953 262.969 237.25 261.844 238.344 260.656C239.438 259.469 240.125 258.375 240.406 257.375C242.125 257.969 244.156 258.391 246.5 258.641C248.844 258.891 251.75 259.016 255.219 259.016C257.656 259.016 259.672 258.875 261.266 258.594C262.859 258.312 264.156 257.906 265.156 257.375C265.688 258.469 266.562 259.453 267.781 260.328C269.031 261.203 270.375 261.953 271.812 262.578C273.281 263.203 274.734 263.703 276.172 264.078C277.641 264.422 278.844 264.609 279.781 264.641C279.531 265.172 279.297 265.75 279.078 266.375C278.891 267 278.719 267.734 278.562 268.578C278.438 269.422 278.328 270.422 278.234 271.578C278.172 272.703 278.141 274.031 278.141 275.562C278.141 276.625 278.156 277.656 278.188 278.656C278.25 279.656 278.328 280.578 278.422 281.422C278.516 282.266 278.609 283.016 278.703 283.672C278.828 284.297 278.953 284.766 279.078 285.078C278.297 285.016 277.25 284.969 275.938 284.938C274.625 284.875 273.188 284.828 271.625 284.797C270.062 284.734 268.422 284.703 266.703 284.703C265.016 284.672 263.406 284.656 261.875 284.656C260.062 284.656 258.25 284.672 256.438 284.703C254.656 284.703 252.812 284.703 250.906 284.703C249.312 284.703 248.047 284.844 247.109 285.125C246.172 285.406 245.453 285.797 244.953 286.297C244.484 286.766 244.172 287.344 244.016 288.031C243.891 288.719 243.828 289.469 243.828 290.281C243.828 291.5 244.125 292.609 244.719 293.609C245.312 294.609 246.125 295.469 247.156 296.188C248.188 296.875 249.406 297.422 250.812 297.828C252.219 298.203 253.719 298.391 255.312 298.391C256.625 298.391 257.672 298.203 258.453 297.828C259.234 297.422 259.828 296.891 260.234 296.234C260.672 295.578 260.953 294.812 261.078 293.938C261.203 293.062 261.266 292.125 261.266 291.125C261.641 291.25 262.203 291.359 262.953 291.453C263.703 291.547 264.516 291.625 265.391 291.688C266.266 291.719 267.141 291.75 268.016 291.781C268.922 291.812 269.703 291.828 270.359 291.828C271.016 291.828 271.766 291.812 272.609 291.781C273.453 291.75 274.281 291.719 275.094 291.688C275.938 291.625 276.719 291.547 277.438 291.453C278.156 291.359 278.734 291.25 279.172 291.125C279.109 291.469 279.031 291.938 278.938 292.531C278.875 293.094 278.812 293.703 278.75 294.359C278.719 295.016 278.688 295.672 278.656 296.328C278.625 296.984 278.609 297.531 278.609 297.969C278.609 299.5 278.656 300.734 278.75 301.672C278.875 302.578 279.062 303.391 279.312 304.109H278.469C277.188 304.109 275.875 304.234 274.531 304.484C273.188 304.703 271.891 305.016 270.641 305.422C269.391 305.797 268.219 306.25 267.125 306.781C266.031 307.312 265.094 307.875 264.312 308.469C263.875 308.188 263.266 307.953 262.484 307.766C261.734 307.547 260.891 307.375 259.953 307.25C259.047 307.094 258.078 306.984 257.047 306.922C256.047 306.859 255.078 306.828 254.141 306.828C253.016 306.828 251.844 306.875 250.625 306.969C249.406 307.062 248.234 307.203 247.109 307.391C246.016 307.547 245.016 307.719 244.109 307.906C243.203 308.094 242.5 308.281 242 308.469C241.719 307.656 240.984 306.766 239.797 305.797C238.641 304.828 237.281 303.938 235.719 303.125C234.156 302.281 232.5 301.578 230.75 301.016C229 300.453 227.406 300.172 225.969 300.172C225.812 300.172 225.672 300.188 225.547 300.219C225.422 300.219 225.297 300.219 225.172 300.219ZM256.344 276.219C257.594 276.219 258.578 276.172 259.297 276.078C260.047 275.984 260.609 275.797 260.984 275.516C261.391 275.234 261.641 274.859 261.734 274.391C261.859 273.891 261.922 273.234 261.922 272.422C261.922 270.922 261.281 269.703 260 268.766C258.719 267.828 256.719 267.359 254 267.359C252.312 267.359 250.859 267.5 249.641 267.781C248.422 268.062 247.391 268.547 246.547 269.234C245.734 269.922 245.109 270.828 244.672 271.953C244.234 273.078 243.969 274.5 243.875 276.219H256.344ZM289.25 308C289.5 307.188 289.672 306.219 289.766 305.094C289.859 303.969 289.906 302.859 289.906 301.766C289.906 300.766 289.844 299.766 289.719 298.766C289.594 297.766 289.438 296.781 289.25 295.812C291 295.812 292.438 295.734 293.562 295.578C294.719 295.422 295.641 295.156 296.328 294.781C297.016 294.375 297.484 293.812 297.734 293.094C298.016 292.375 298.156 291.453 298.156 290.328V277.297C298.125 275.953 297.953 274.891 297.641 274.109C297.328 273.297 296.891 272.688 296.328 272.281C295.797 271.844 295.125 271.562 294.312 271.438C293.531 271.281 292.641 271.203 291.641 271.203H290.188C290.438 270.578 290.656 269.719 290.844 268.625C291.031 267.5 291.125 266.328 291.125 265.109C291.125 263.922 291.031 262.797 290.844 261.734C290.688 260.641 290.469 259.766 290.188 259.109C291.094 259.234 292.172 259.328 293.422 259.391C294.703 259.453 296.078 259.484 297.547 259.484C299.047 259.484 300.594 259.453 302.188 259.391C303.812 259.297 305.391 259.172 306.922 259.016C308.453 258.859 309.891 258.641 311.234 258.359C312.609 258.078 313.797 257.75 314.797 257.375C314.578 258 314.422 258.641 314.328 259.297C314.266 259.922 314.234 260.578 314.234 261.266C314.234 262.234 314.297 263.203 314.422 264.172C314.578 265.141 314.734 266.078 314.891 266.984C316.234 266.609 317.641 266.078 319.109 265.391C320.609 264.672 322 263.875 323.281 263C324.594 262.125 325.703 261.203 326.609 260.234C327.516 259.266 328.078 258.312 328.297 257.375C329.203 257.906 330.375 258.312 331.812 258.594C333.281 258.875 334.953 259.016 336.828 259.016C337.578 259.016 338.359 259 339.172 258.969C339.984 258.906 340.766 258.828 341.516 258.734C342.297 258.609 343 258.438 343.625 258.219C344.281 258 344.812 257.719 345.219 257.375C344.969 258 344.766 258.781 344.609 259.719C344.484 260.656 344.375 261.672 344.281 262.766C344.219 263.828 344.172 264.922 344.141 266.047C344.109 267.141 344.094 268.172 344.094 269.141C344.094 270.109 344.125 271.219 344.188 272.469C344.25 273.688 344.328 274.875 344.422 276.031C344.516 277.156 344.625 278.141 344.75 278.984C344.906 279.828 345.062 280.359 345.219 280.578C344.188 280.328 342.891 280.125 341.328 279.969C339.797 279.781 338.188 279.688 336.5 279.688C334.812 279.688 333.219 279.781 331.719 279.969C330.219 280.125 329 280.328 328.062 280.578C328.062 277.234 327.672 274.891 326.891 273.547C326.141 272.203 325.016 271.531 323.516 271.531C322.766 271.531 321.938 271.75 321.031 272.188C320.156 272.594 319.328 273.203 318.547 274.016C317.797 274.828 317.141 275.828 316.578 277.016C316.016 278.172 315.688 279.5 315.594 281L315.641 290.328C315.641 291.453 315.953 292.375 316.578 293.094C317.234 293.812 318.125 294.375 319.25 294.781C320.375 295.156 321.719 295.422 323.281 295.578C324.844 295.734 326.547 295.812 328.391 295.812C328.203 296.469 328.047 297.281 327.922 298.25C327.828 299.219 327.781 300.25 327.781 301.344C327.781 302.531 327.828 303.734 327.922 304.953C328.016 306.141 328.172 307.156 328.391 308C327.391 307.844 326.156 307.703 324.688 307.578C323.219 307.422 321.609 307.297 319.859 307.203C318.109 307.078 316.25 306.984 314.281 306.922C312.312 306.859 310.344 306.828 308.375 306.828C306.875 306.828 305.188 306.859 303.312 306.922C301.469 306.953 299.641 307.031 297.828 307.156C296.016 307.25 294.328 307.375 292.766 307.531C291.234 307.656 290.062 307.812 289.25 308ZM352.625 308C352.812 307.219 352.969 306.281 353.094 305.188C353.25 304.062 353.328 302.906 353.328 301.719C353.328 300.625 353.25 299.562 353.094 298.531C352.938 297.469 352.781 296.562 352.625 295.812C354.031 295.812 355.266 295.703 356.328 295.484C357.391 295.266 358.281 294.906 359 294.406C359.719 293.875 360.25 293.172 360.594 292.297C360.969 291.391 361.156 290.266 361.156 288.922C361.156 286.297 361.078 284.047 360.922 282.172C360.797 280.297 360.594 278.75 360.312 277.531C360.062 276.312 359.734 275.391 359.328 274.766C358.922 274.109 358.453 273.703 357.922 273.547C358.484 273.359 358.969 273.062 359.375 272.656C359.781 272.25 360.109 271.562 360.359 270.594C360.641 269.594 360.844 268.234 360.969 266.516C361.094 264.766 361.156 262.453 361.156 259.578C361.156 258.234 360.969 257.125 360.594 256.25C360.25 255.344 359.719 254.641 359 254.141C358.281 253.609 357.391 253.234 356.328 253.016C355.266 252.797 354.031 252.688 352.625 252.688C352.781 251.938 352.938 251.047 353.094 250.016C353.25 248.953 353.328 247.875 353.328 246.781C353.328 245.594 353.25 244.453 353.094 243.359C352.969 242.234 352.812 241.281 352.625 240.5C353.031 240.656 353.828 240.812 355.016 240.969C356.203 241.125 357.594 241.266 359.188 241.391C360.812 241.484 362.562 241.578 364.438 241.672C366.312 241.766 368.156 241.859 369.969 241.953C371.781 242.016 373.469 242.062 375.031 242.094C376.625 242.125 377.938 242.141 378.969 242.141C381.781 242.141 384.641 242.125 387.547 242.094C390.453 242.031 393.156 241.938 395.656 241.812C398.156 241.688 400.344 241.516 402.219 241.297C404.094 241.078 405.422 240.812 406.203 240.5C406.266 241.469 406.703 242.531 407.516 243.688C408.328 244.844 409.297 245.938 410.422 246.969C411.547 247.969 412.719 248.828 413.938 249.547C415.156 250.234 416.203 250.594 417.078 250.625C416.859 251.062 416.656 251.734 416.469 252.641C416.312 253.547 416.172 254.578 416.047 255.734C415.922 256.859 415.828 258.047 415.766 259.297C415.703 260.516 415.672 261.688 415.672 262.812C415.672 264 415.688 265.156 415.719 266.281C415.781 267.406 415.859 268.469 415.953 269.469C416.078 270.469 416.219 271.375 416.375 272.188C416.562 273 416.797 273.688 417.078 274.25C415.859 274.469 414.625 274.922 413.375 275.609C412.156 276.297 411 277.109 409.906 278.047C408.812 278.953 407.828 279.953 406.953 281.047C406.078 282.109 405.391 283.125 404.891 284.094C403.703 283.656 402.016 283.297 399.828 283.016C397.672 282.703 395.297 282.547 392.703 282.547C390.641 282.547 388.562 282.688 386.469 282.969C384.375 283.25 382.344 283.703 380.375 284.328C380.094 285.359 379.953 286.656 379.953 288.219C379.953 289.844 380.125 291.156 380.469 292.156C380.812 293.125 381.469 293.891 382.438 294.453C383.406 294.984 384.75 295.344 386.469 295.531C388.188 295.719 390.422 295.812 393.172 295.812C393.016 296.562 392.859 297.469 392.703 298.531C392.547 299.562 392.469 300.625 392.469 301.719C392.469 302.906 392.531 304.062 392.656 305.188C392.812 306.281 392.984 307.219 393.172 308C392.266 307.812 391.078 307.656 389.609 307.531C388.141 307.375 386.531 307.25 384.781 307.156C383.062 307.031 381.281 306.953 379.438 306.922C377.625 306.859 375.922 306.828 374.328 306.828C372.641 306.828 370.734 306.859 368.609 306.922C366.484 306.953 364.391 307.031 362.328 307.156C360.297 307.25 358.406 307.375 356.656 307.531C354.906 307.656 353.562 307.812 352.625 308ZM380.094 272.562C381.188 272.906 382.344 273.156 383.562 273.312C384.812 273.469 386.141 273.547 387.547 273.547C389.109 273.547 390.484 273.266 391.672 272.703C392.891 272.109 393.906 271.297 394.719 270.266C395.562 269.234 396.188 268.031 396.594 266.656C397.031 265.25 397.25 263.734 397.25 262.109C397.25 260.734 397.078 259.406 396.734 258.125C396.422 256.812 395.906 255.656 395.188 254.656C394.469 253.625 393.516 252.812 392.328 252.219C391.172 251.594 389.734 251.281 388.016 251.281C386.672 251.281 385.297 251.391 383.891 251.609C382.484 251.828 381.203 252.234 380.047 252.828C379.891 253.891 379.781 255.094 379.719 256.438C379.656 257.75 379.625 259.141 379.625 260.609C379.625 262.734 379.672 264.859 379.766 266.984C379.859 269.109 379.969 270.969 380.094 272.562ZM424.062 308C424.312 307.188 424.484 306.219 424.578 305.094C424.672 303.969 424.719 302.859 424.719 301.766C424.719 300.766 424.656 299.766 424.531 298.766C424.406 297.766 424.25 296.781 424.062 295.812C425.812 295.812 427.25 295.734 428.375 295.578C429.531 295.422 430.438 295.156 431.094 294.781C431.75 294.375 432.203 293.812 432.453 293.094C432.703 292.375 432.828 291.453 432.828 290.328V282.453C432.828 281.453 432.766 280.453 432.641 279.453C432.547 278.453 432.375 277.547 432.125 276.734C431.875 275.922 431.531 275.234 431.094 274.672C430.688 274.078 430.188 273.703 429.594 273.547C430.25 273.359 430.781 273.109 431.188 272.797C431.625 272.453 431.953 272 432.172 271.438C432.422 270.875 432.594 270.172 432.688 269.328C432.781 268.453 432.828 267.391 432.828 266.141V251.281C432.797 249.938 432.625 248.875 432.312 248.094C432 247.281 431.562 246.672 431 246.266C430.469 245.828 429.797 245.547 428.984 245.422C428.203 245.266 427.312 245.188 426.312 245.188H424.859C425.109 244.562 425.328 243.703 425.516 242.609C425.703 241.484 425.797 240.312 425.797 239.094C425.797 237.906 425.703 236.766 425.516 235.672C425.359 234.547 425.141 233.656 424.859 233C425.453 233.094 426.172 233.172 427.016 233.234C427.859 233.297 428.781 233.359 429.781 233.422C430.781 233.453 431.844 233.484 432.969 233.516C434.094 233.547 435.25 233.562 436.438 233.562C438.031 233.562 439.641 233.531 441.266 233.469C442.891 233.406 444.438 233.312 445.906 233.188C447.406 233.062 448.781 232.891 450.031 232.672C451.312 232.453 452.375 232.172 453.219 231.828C452.562 233.047 452.047 234.406 451.672 235.906C451.297 237.406 451 239 450.781 240.688C450.562 242.375 450.422 244.141 450.359 245.984C450.297 247.828 450.266 249.703 450.266 251.609L450.219 266.234C450.219 267.484 450.266 268.547 450.359 269.422C450.484 270.266 450.672 270.969 450.922 271.531C451.172 272.094 451.5 272.531 451.906 272.844C452.312 273.156 452.828 273.391 453.453 273.547C452.797 273.734 452.25 274.125 451.812 274.719C451.406 275.281 451.078 275.969 450.828 276.781C450.609 277.594 450.453 278.5 450.359 279.5C450.266 280.469 450.219 281.453 450.219 282.453V290.328C450.219 291.453 450.422 292.375 450.828 293.094C451.234 293.812 451.812 294.375 452.562 294.781C453.344 295.156 454.266 295.422 455.328 295.578C456.422 295.734 457.641 295.812 458.984 295.812C458.797 296.469 458.641 297.281 458.516 298.25C458.422 299.219 458.375 300.25 458.375 301.344C458.375 302.531 458.406 303.734 458.469 304.953C458.562 306.141 458.734 307.156 458.984 308C458.141 307.844 457 307.703 455.562 307.578C454.156 307.422 452.609 307.297 450.922 307.203C449.234 307.078 447.469 306.984 445.625 306.922C443.812 306.859 442.062 306.828 440.375 306.828C438.875 306.828 437.328 306.859 435.734 306.922C434.172 306.953 432.656 307.031 431.188 307.156C429.75 307.25 428.406 307.375 427.156 307.531C425.906 307.656 424.875 307.812 424.062 308ZM463.719 301.109C464.125 300.391 464.422 299.562 464.609 298.625C464.797 297.688 464.891 296.734 464.891 295.766C464.891 294.766 464.781 293.766 464.562 292.766C464.344 291.766 464.062 290.953 463.719 290.328C464.562 290.047 465.312 289.594 465.969 288.969C466.656 288.344 467.234 287.641 467.703 286.859C468.203 286.078 468.609 285.281 468.922 284.469C469.234 283.656 469.438 282.906 469.531 282.219C469.688 282.281 469.859 282.312 470.047 282.312C470.234 282.312 470.438 282.312 470.656 282.312C472.969 282.312 475.766 282.094 479.047 281.656C482.328 281.219 485.875 280.641 489.688 279.922C491.469 279.578 492.938 279.156 494.094 278.656C495.25 278.156 496.172 277.594 496.859 276.969C497.547 276.312 498.016 275.609 498.266 274.859C498.547 274.109 498.688 273.312 498.688 272.469C498.688 270.938 498.297 269.766 497.516 268.953C496.766 268.109 495.453 267.688 493.578 267.688C491.109 267.688 489.281 268.312 488.094 269.562C486.938 270.781 486.359 272.797 486.359 275.609C485.328 275.359 484.078 275.188 482.609 275.094C481.141 274.969 479.516 274.906 477.734 274.906C476.828 274.906 475.906 274.922 474.969 274.953C474.062 274.984 473.172 275.031 472.297 275.094C471.422 275.125 470.609 275.188 469.859 275.281C469.109 275.375 468.469 275.484 467.938 275.609C468.125 274.641 468.281 273.547 468.406 272.328C468.562 271.109 468.641 269.688 468.641 268.062C468.641 267.531 468.625 267.047 468.594 266.609C468.594 266.141 468.562 265.688 468.5 265.25C468.469 264.812 468.406 264.359 468.312 263.891C468.219 263.391 468.094 262.844 467.938 262.25C469.25 262.25 470.688 262.125 472.25 261.875C473.812 261.594 475.328 261.234 476.797 260.797C478.297 260.359 479.656 259.844 480.875 259.25C482.094 258.656 483.031 258.031 483.688 257.375C484.25 257.656 484.797 257.906 485.328 258.125C485.859 258.312 486.469 258.484 487.156 258.641C487.844 258.766 488.641 258.859 489.547 258.922C490.453 258.984 491.547 259.016 492.828 259.016C495.766 259.016 498.266 258.875 500.328 258.594C502.422 258.281 503.922 257.875 504.828 257.375C505.328 258.312 506.047 259.203 506.984 260.047C507.922 260.891 508.938 261.625 510.031 262.25C511.156 262.844 512.281 263.328 513.406 263.703C514.562 264.047 515.609 264.219 516.547 264.219H516.969C516.688 264.906 516.453 265.859 516.266 267.078C516.078 268.297 515.922 269.672 515.797 271.203C515.672 272.703 515.578 274.297 515.516 275.984C515.453 277.672 515.391 279.344 515.328 281C515.297 282.625 515.281 284.156 515.281 285.594C515.281 287.031 515.281 288.25 515.281 289.25C515.281 290.531 515.391 291.578 515.609 292.391C515.828 293.172 516.25 293.781 516.875 294.219C517.531 294.656 518.438 294.953 519.594 295.109C520.781 295.266 522.312 295.344 524.188 295.344C524.062 295.719 523.938 296.188 523.812 296.75C523.719 297.281 523.625 297.859 523.531 298.484C523.438 299.109 523.359 299.734 523.297 300.359C523.266 300.984 523.25 301.562 523.25 302.094C523.25 304.531 523.562 306.5 524.188 308C523.438 307.656 522.219 307.375 520.531 307.156C518.844 306.938 517 306.828 515 306.828C512.75 306.828 510.75 306.938 509 307.156C507.281 307.375 505.922 307.656 504.922 308C504.672 306.281 504.188 304.906 503.469 303.875C502.781 302.844 502.078 302.031 501.359 301.438C500.266 301.781 499.266 302.25 498.359 302.844C497.453 303.406 496.641 304.031 495.922 304.719C495.234 305.375 494.672 306.047 494.234 306.734C493.797 307.391 493.516 307.969 493.391 308.469C492.672 308.281 492.016 308.094 491.422 307.906C490.859 307.719 490.281 307.547 489.688 307.391C489.094 307.203 488.453 307.062 487.766 306.969C487.078 306.875 486.266 306.828 485.328 306.828C484.359 306.828 483.328 306.875 482.234 306.969C481.172 307.062 480.109 307.203 479.047 307.391C477.984 307.547 476.984 307.719 476.047 307.906C475.141 308.094 474.359 308.281 473.703 308.469C473.172 307.594 472.516 306.734 471.734 305.891C470.953 305.016 470.109 304.234 469.203 303.547C468.328 302.828 467.406 302.25 466.438 301.812C465.5 301.375 464.594 301.141 463.719 301.109ZM483.875 292.391C483.875 293.141 484.031 293.812 484.344 294.406C484.656 294.969 485.047 295.453 485.516 295.859C486.016 296.234 486.562 296.531 487.156 296.75C487.75 296.938 488.328 297.031 488.891 297.031C489.922 297.031 490.969 296.828 492.031 296.422C493.125 296.016 494.125 295.375 495.031 294.5C495.938 293.594 496.703 292.422 497.328 290.984C497.953 289.547 498.328 287.797 498.453 285.734C495.766 285.797 493.484 285.984 491.609 286.297C489.766 286.578 488.266 287 487.109 287.562C485.953 288.094 485.125 288.766 484.625 289.578C484.125 290.391 483.875 291.328 483.875 292.391ZM533.516 298.344C534.547 297.094 535.234 295.5 535.578 293.562C535.922 291.625 536.094 289.297 536.094 286.578V273.031C536.062 272.469 535.969 271.969 535.812 271.531C535.688 271.062 535.453 270.672 535.109 270.359C534.797 270.016 534.359 269.75 533.797 269.562C533.234 269.375 532.531 269.281 531.688 269.281C531.219 269.281 530.703 269.312 530.141 269.375C529.609 269.438 529 269.531 528.312 269.656C528.469 268.75 528.578 267.766 528.641 266.703C528.703 265.641 528.734 264.562 528.734 263.469C528.734 262.469 528.703 261.484 528.641 260.516C528.578 259.547 528.469 258.656 528.312 257.844C528.625 258.062 529.016 258.25 529.484 258.406C529.953 258.531 530.422 258.641 530.891 258.734C531.359 258.828 531.797 258.906 532.203 258.969C532.609 259 532.922 259.016 533.141 259.016C534.047 259.016 534.719 258.672 535.156 257.984C535.625 257.266 535.859 256.031 535.859 254.281C535.859 254 535.844 253.609 535.812 253.109C535.812 252.609 535.797 252.094 535.766 251.562C535.734 251.031 535.672 250.531 535.578 250.062C535.516 249.594 535.422 249.234 535.297 248.984C535.547 249.047 535.797 249.078 536.047 249.078C536.297 249.078 536.562 249.078 536.844 249.078C538.438 249.078 540.109 248.812 541.859 248.281C543.641 247.75 545.359 247.172 547.016 246.547C548.703 245.922 550.266 245.344 551.703 244.812C553.141 244.281 554.328 244.016 555.266 244.016C555.016 244.766 554.812 245.594 554.656 246.5C554.5 247.406 554.375 248.312 554.281 249.219C554.188 250.125 554.109 251.016 554.047 251.891C554.016 252.734 554 253.453 554 254.047C554 255.078 554.125 255.922 554.375 256.578C554.625 257.203 555.062 257.703 555.688 258.078C556.344 258.422 557.234 258.672 558.359 258.828C559.516 258.953 560.984 259.016 562.766 259.016C563.516 259.016 564.391 259.016 565.391 259.016C566.422 258.984 567.484 258.938 568.578 258.875C569.672 258.781 570.75 258.656 571.812 258.5C572.906 258.344 573.906 258.125 574.812 257.844C574.5 258.656 574.281 259.609 574.156 260.703C574.031 261.797 573.969 262.922 573.969 264.078C573.969 265.391 574.031 266.609 574.156 267.734C574.281 268.859 574.5 269.859 574.812 270.734C573.75 270.641 572.578 270.531 571.297 270.406C570.047 270.281 568.797 270.172 567.547 270.078C566.297 269.953 565.141 269.859 564.078 269.797C563.016 269.703 562.156 269.656 561.5 269.656C559.938 269.656 558.641 269.734 557.609 269.891C556.609 270.016 555.812 270.234 555.219 270.547C554.625 270.828 554.203 271.203 553.953 271.672C553.734 272.109 553.625 272.625 553.625 273.219V285.781C553.625 287 553.688 288.297 553.812 289.672C553.969 291.016 554.234 292.266 554.609 293.422C554.984 294.578 555.5 295.547 556.156 296.328C556.812 297.078 557.656 297.453 558.688 297.453C559.812 297.453 560.75 297.234 561.5 296.797C562.281 296.328 562.906 295.688 563.375 294.875C563.844 294.062 564.172 293.109 564.359 292.016C564.578 290.891 564.688 289.656 564.688 288.312C565.375 288.469 566.297 288.625 567.453 288.781C568.609 288.938 569.797 289.016 571.016 289.016C572.203 289.016 573.312 288.938 574.344 288.781C575.406 288.625 576.219 288.469 576.781 288.312C576.531 289 576.344 289.969 576.219 291.219C576.125 292.438 576.078 293.75 576.078 295.156C576.078 296.562 576.125 297.875 576.219 299.094C576.312 300.312 576.5 301.219 576.781 301.812H576.312C575.156 301.812 573.906 302 572.562 302.375C571.25 302.719 569.984 303.188 568.766 303.781C567.547 304.375 566.422 305.047 565.391 305.797C564.391 306.516 563.625 307.25 563.094 308C562.844 307.812 562.359 307.656 561.641 307.531C560.953 307.375 560.141 307.25 559.203 307.156C558.297 307.031 557.328 306.953 556.297 306.922C555.266 306.859 554.281 306.828 553.344 306.828C552.406 306.828 551.422 306.859 550.391 306.922C549.391 306.953 548.406 307.031 547.438 307.156C546.469 307.25 545.578 307.375 544.766 307.531C543.984 307.656 543.359 307.812 542.891 308C542.609 306.906 542.172 305.844 541.578 304.812C541.016 303.75 540.328 302.781 539.516 301.906C538.703 301.031 537.781 300.281 536.75 299.656C535.75 299.031 534.672 298.594 533.516 298.344ZM585.453 300.219C586.078 299.469 586.562 298.422 586.906 297.078C587.25 295.734 587.5 294.281 587.656 292.719C587.844 291.125 587.953 289.531 587.984 287.938C588.047 286.344 588.078 284.938 588.078 283.719C588.078 282.438 588.031 280.984 587.938 279.359C587.844 277.734 587.688 276.156 587.469 274.625C587.281 273.062 587.016 271.656 586.672 270.406C586.359 269.156 585.969 268.25 585.5 267.688C586.875 267.688 588.391 267.344 590.047 266.656C591.703 265.938 593.266 265.062 594.734 264.031C596.234 262.969 597.531 261.844 598.625 260.656C599.719 259.469 600.406 258.375 600.688 257.375C602.406 257.969 604.438 258.391 606.781 258.641C609.125 258.891 612.031 259.016 615.5 259.016C617.938 259.016 619.953 258.875 621.547 258.594C623.141 258.312 624.438 257.906 625.438 257.375C625.969 258.469 626.844 259.453 628.062 260.328C629.312 261.203 630.656 261.953 632.094 262.578C633.562 263.203 635.016 263.703 636.453 264.078C637.922 264.422 639.125 264.609 640.062 264.641C639.812 265.172 639.578 265.75 639.359 266.375C639.172 267 639 267.734 638.844 268.578C638.719 269.422 638.609 270.422 638.516 271.578C638.453 272.703 638.422 274.031 638.422 275.562C638.422 276.625 638.438 277.656 638.469 278.656C638.531 279.656 638.609 280.578 638.703 281.422C638.797 282.266 638.891 283.016 638.984 283.672C639.109 284.297 639.234 284.766 639.359 285.078C638.578 285.016 637.531 284.969 636.219 284.938C634.906 284.875 633.469 284.828 631.906 284.797C630.344 284.734 628.703 284.703 626.984 284.703C625.297 284.672 623.688 284.656 622.156 284.656C620.344 284.656 618.531 284.672 616.719 284.703C614.938 284.703 613.094 284.703 611.188 284.703C609.594 284.703 608.328 284.844 607.391 285.125C606.453 285.406 605.734 285.797 605.234 286.297C604.766 286.766 604.453 287.344 604.297 288.031C604.172 288.719 604.109 289.469 604.109 290.281C604.109 291.5 604.406 292.609 605 293.609C605.594 294.609 606.406 295.469 607.438 296.188C608.469 296.875 609.688 297.422 611.094 297.828C612.5 298.203 614 298.391 615.594 298.391C616.906 298.391 617.953 298.203 618.734 297.828C619.516 297.422 620.109 296.891 620.516 296.234C620.953 295.578 621.234 294.812 621.359 293.938C621.484 293.062 621.547 292.125 621.547 291.125C621.922 291.25 622.484 291.359 623.234 291.453C623.984 291.547 624.797 291.625 625.672 291.688C626.547 291.719 627.422 291.75 628.297 291.781C629.203 291.812 629.984 291.828 630.641 291.828C631.297 291.828 632.047 291.812 632.891 291.781C633.734 291.75 634.562 291.719 635.375 291.688C636.219 291.625 637 291.547 637.719 291.453C638.438 291.359 639.016 291.25 639.453 291.125C639.391 291.469 639.312 291.938 639.219 292.531C639.156 293.094 639.094 293.703 639.031 294.359C639 295.016 638.969 295.672 638.938 296.328C638.906 296.984 638.891 297.531 638.891 297.969C638.891 299.5 638.938 300.734 639.031 301.672C639.156 302.578 639.344 303.391 639.594 304.109H638.75C637.469 304.109 636.156 304.234 634.812 304.484C633.469 304.703 632.172 305.016 630.922 305.422C629.672 305.797 628.5 306.25 627.406 306.781C626.312 307.312 625.375 307.875 624.594 308.469C624.156 308.188 623.547 307.953 622.766 307.766C622.016 307.547 621.172 307.375 620.234 307.25C619.328 307.094 618.359 306.984 617.328 306.922C616.328 306.859 615.359 306.828 614.422 306.828C613.297 306.828 612.125 306.875 610.906 306.969C609.688 307.062 608.516 307.203 607.391 307.391C606.297 307.547 605.297 307.719 604.391 307.906C603.484 308.094 602.781 308.281 602.281 308.469C602 307.656 601.266 306.766 600.078 305.797C598.922 304.828 597.562 303.938 596 303.125C594.438 302.281 592.781 301.578 591.031 301.016C589.281 300.453 587.688 300.172 586.25 300.172C586.094 300.172 585.953 300.188 585.828 300.219C585.703 300.219 585.578 300.219 585.453 300.219ZM616.625 276.219C617.875 276.219 618.859 276.172 619.578 276.078C620.328 275.984 620.891 275.797 621.266 275.516C621.672 275.234 621.922 274.859 622.016 274.391C622.141 273.891 622.203 273.234 622.203 272.422C622.203 270.922 621.562 269.703 620.281 268.766C619 267.828 617 267.359 614.281 267.359C612.594 267.359 611.141 267.5 609.922 267.781C608.703 268.062 607.672 268.547 606.828 269.234C606.016 269.922 605.391 270.828 604.953 271.953C604.516 273.078 604.25 274.5 604.156 276.219H616.625Z" fill="white"/>
</svg>
